%TF.GenerationSoftware,KiCad,Pcbnew,(5.1.9)-1*%
%TF.CreationDate,2021-02-16T23:53:01+08:00*%
%TF.ProjectId,ChipInspector24,43686970-496e-4737-9065-63746f723234,rev?*%
%TF.SameCoordinates,Original*%
%TF.FileFunction,Copper,L2,Bot*%
%TF.FilePolarity,Positive*%
%FSLAX46Y46*%
G04 Gerber Fmt 4.6, Leading zero omitted, Abs format (unit mm)*
G04 Created by KiCad (PCBNEW (5.1.9)-1) date 2021-02-16 23:53:01*
%MOMM*%
%LPD*%
G01*
G04 APERTURE LIST*
%TA.AperFunction,ComponentPad*%
%ADD10O,2.000000X1.440000*%
%TD*%
%TA.AperFunction,ComponentPad*%
%ADD11R,2.000000X1.440000*%
%TD*%
%TA.AperFunction,ComponentPad*%
%ADD12O,1.600000X1.600000*%
%TD*%
%TA.AperFunction,ViaPad*%
%ADD13C,0.800000*%
%TD*%
%TA.AperFunction,Conductor*%
%ADD14C,0.500000*%
%TD*%
%TA.AperFunction,Conductor*%
%ADD15C,0.350000*%
%TD*%
%TA.AperFunction,Conductor*%
%ADD16C,1.000000*%
%TD*%
%TA.AperFunction,Conductor*%
%ADD17C,0.254000*%
%TD*%
%TA.AperFunction,Conductor*%
%ADD18C,0.100000*%
%TD*%
G04 APERTURE END LIST*
D10*
%TO.P,J1,13*%
%TO.N,P13*%
X133350000Y-115570000D03*
%TO.P,J1,12*%
%TO.N,P12*%
X125730000Y-115570000D03*
%TO.P,J1,14*%
%TO.N,P14*%
X133350000Y-113030000D03*
%TO.P,J1,11*%
%TO.N,P11*%
X125730000Y-113030000D03*
%TO.P,J1,15*%
%TO.N,P15*%
X133350000Y-110490000D03*
%TO.P,J1,10*%
%TO.N,P10*%
X125730000Y-110490000D03*
%TO.P,J1,16*%
%TO.N,P16*%
X133350000Y-107950000D03*
%TO.P,J1,9*%
%TO.N,P09*%
X125730000Y-107950000D03*
%TO.P,J1,17*%
%TO.N,P17*%
X133350000Y-105410000D03*
%TO.P,J1,8*%
%TO.N,P08*%
X125730000Y-105410000D03*
%TO.P,J1,18*%
%TO.N,P18*%
X133350000Y-102870000D03*
%TO.P,J1,7*%
%TO.N,P07*%
X125730000Y-102870000D03*
%TO.P,J1,19*%
%TO.N,P19*%
X133350000Y-100330000D03*
%TO.P,J1,6*%
%TO.N,P06*%
X125730000Y-100330000D03*
%TO.P,J1,20*%
%TO.N,P20*%
X133350000Y-97790000D03*
%TO.P,J1,5*%
%TO.N,P05*%
X125730000Y-97790000D03*
%TO.P,J1,21*%
%TO.N,P21*%
X133350000Y-95250000D03*
%TO.P,J1,4*%
%TO.N,P04*%
X125730000Y-95250000D03*
%TO.P,J1,22*%
%TO.N,P22*%
X133350000Y-92710000D03*
%TO.P,J1,3*%
%TO.N,P03*%
X125730000Y-92710000D03*
%TO.P,J1,23*%
%TO.N,P23*%
X133350000Y-90170000D03*
%TO.P,J1,2*%
%TO.N,P02*%
X125730000Y-90170000D03*
%TO.P,J1,24*%
%TO.N,VCC*%
X133350000Y-87630000D03*
D11*
%TO.P,J1,1*%
%TO.N,P01*%
X125730000Y-87630000D03*
%TD*%
D12*
%TO.P,M1,53*%
%TO.N,P21R*%
X163830000Y-91440000D03*
%TO.P,M1,54*%
%TO.N,P22R*%
X161290000Y-91440000D03*
%TO.P,M1,40*%
%TO.N,VCC*%
X170180000Y-76200000D03*
%TO.P,M1,39*%
%TO.N,P01R*%
X170180000Y-78740000D03*
%TO.P,M1,38*%
%TO.N,P02R*%
X170180000Y-81280000D03*
%TO.P,M1,37*%
%TO.N,P03R*%
X170180000Y-83820000D03*
%TO.P,M1,36*%
%TO.N,P20R*%
X170180000Y-86360000D03*
%TO.P,M1,35*%
%TO.N,P04R*%
X170180000Y-88900000D03*
%TO.P,M1,34*%
%TO.N,P19R*%
X170180000Y-91440000D03*
%TO.P,M1,33*%
%TO.N,P05R*%
X170180000Y-93980000D03*
%TO.P,M1,32*%
%TO.N,P18R*%
X170180000Y-96520000D03*
%TO.P,M1,31*%
%TO.N,P06R*%
X170180000Y-99060000D03*
%TO.P,M1,30*%
%TO.N,GND*%
X170180000Y-101600000D03*
%TO.P,M1,29*%
%TO.N,Net-(M1-Pad29)*%
X170180000Y-104140000D03*
%TO.P,M1,28*%
%TO.N,P12*%
X170180000Y-106680000D03*
%TO.P,M1,27*%
%TO.N,P11*%
X170180000Y-109220000D03*
%TO.P,M1,26*%
%TO.N,P10*%
X170180000Y-111760000D03*
%TO.P,M1,25*%
%TO.N,P09*%
X170180000Y-114300000D03*
%TO.P,M1,24*%
%TO.N,P08*%
X170180000Y-116840000D03*
%TO.P,M1,23*%
%TO.N,P07*%
X170180000Y-119380000D03*
%TO.P,M1,22*%
%TO.N,P06*%
X170180000Y-121920000D03*
%TO.P,M1,21*%
%TO.N,P05*%
X170180000Y-124460000D03*
%TO.P,M1,20*%
%TO.N,P12R*%
X154940000Y-124460000D03*
%TO.P,M1,19*%
%TO.N,P11R*%
X154940000Y-121920000D03*
%TO.P,M1,18*%
%TO.N,P10R*%
X154940000Y-119380000D03*
%TO.P,M1,17*%
%TO.N,P09R*%
X154940000Y-116840000D03*
%TO.P,M1,16*%
%TO.N,P13*%
X154940000Y-114300000D03*
%TO.P,M1,15*%
%TO.N,P14R*%
X154940000Y-111760000D03*
%TO.P,M1,14*%
%TO.N,P16*%
X154940000Y-109220000D03*
%TO.P,M1,13*%
%TO.N,P17*%
X154940000Y-106680000D03*
%TO.P,M1,12*%
%TO.N,P18*%
X154940000Y-104140000D03*
%TO.P,M1,11*%
%TO.N,P19*%
X154940000Y-101600000D03*
%TO.P,M1,10*%
%TO.N,P20*%
X154940000Y-99060000D03*
%TO.P,M1,9*%
%TO.N,P21*%
X154940000Y-96520000D03*
%TO.P,M1,8*%
%TO.N,P22*%
X154940000Y-93980000D03*
%TO.P,M1,7*%
%TO.N,P23*%
X154940000Y-91440000D03*
%TO.P,M1,6*%
%TO.N,P23R*%
X154940000Y-88900000D03*
%TO.P,M1,5*%
%TO.N,P01*%
X154940000Y-86360000D03*
%TO.P,M1,4*%
%TO.N,P02*%
X154940000Y-83820000D03*
%TO.P,M1,3*%
%TO.N,P03*%
X154940000Y-81280000D03*
%TO.P,M1,2*%
%TO.N,P04*%
X154940000Y-78740000D03*
%TO.P,M1,1*%
%TO.N,GND*%
X154940000Y-76200000D03*
%TO.P,M1,41*%
%TO.N,VCC*%
X160020000Y-124460000D03*
%TO.P,M1,42*%
%TO.N,GND*%
X162560000Y-124460000D03*
%TO.P,M1,43*%
%TO.N,Net-(M1-Pad43)*%
X165100000Y-124460000D03*
%TO.P,M1,44*%
%TO.N,Net-(M1-Pad44)*%
X160020000Y-116840000D03*
%TO.P,M1,48*%
%TO.N,P14*%
X162560000Y-116840000D03*
%TO.P,M1,47*%
%TO.N,P15R*%
X162560000Y-114300000D03*
%TO.P,M1,46*%
%TO.N,P08R*%
X162560000Y-111760000D03*
%TO.P,M1,45*%
%TO.N,P07R*%
X162560000Y-109220000D03*
%TO.P,M1,52*%
%TO.N,P17R*%
X165100000Y-109220000D03*
%TO.P,M1,51*%
%TO.N,P16R*%
X165100000Y-111760000D03*
%TO.P,M1,50*%
%TO.N,P15*%
X165100000Y-114300000D03*
%TO.P,M1,49*%
%TO.N,P13R*%
X165100000Y-116840000D03*
%TD*%
D13*
%TO.N,VCC*%
X156210000Y-85090000D03*
X153670000Y-85090000D03*
X158115000Y-85090000D03*
X135890000Y-85090000D03*
%TO.N,GND*%
X167640000Y-104140000D03*
X165100000Y-106680000D03*
X167640000Y-106680000D03*
%TO.N,P11*%
X124460000Y-117475000D03*
X152388168Y-116684979D03*
X156835130Y-116849870D03*
%TO.N,P07*%
X123190000Y-121285000D03*
X156845000Y-121729990D03*
X151765000Y-120650000D03*
%TO.N,P05*%
X122555000Y-123190000D03*
X151765000Y-123190000D03*
X156845000Y-123825000D03*
%TO.N,P09*%
X123825014Y-119380000D03*
X149860000Y-119380000D03*
X156845006Y-119449305D03*
%TO.N,P01R*%
X142240000Y-88900000D03*
%TO.N,P02R*%
X142240000Y-91440000D03*
%TO.N,P03R*%
X142240000Y-93980000D03*
%TO.N,P04R*%
X142240000Y-96520000D03*
%TO.N,P05R*%
X142240000Y-99060000D03*
%TO.N,P06R*%
X142240000Y-101600000D03*
%TO.N,P07R*%
X142240000Y-104140000D03*
%TO.N,P08R*%
X142240000Y-106680000D03*
%TO.N,P09R*%
X142240000Y-109220000D03*
X144204473Y-116753685D03*
%TO.N,P10R*%
X142240000Y-111760000D03*
X143233492Y-117475000D03*
%TO.N,P11R*%
X142240000Y-114300000D03*
X142240000Y-116839994D03*
%TO.N,P14*%
X152400000Y-113030000D03*
%TO.N,P15*%
X156845000Y-110490000D03*
%TO.N,P13R*%
X156845000Y-113030000D03*
%TO.N,P15R*%
X151130000Y-110490000D03*
%TO.N,P16R*%
X156845000Y-107950000D03*
%TO.N,P17R*%
X156845000Y-105410000D03*
%TO.N,P18R*%
X156845000Y-102870000D03*
%TO.N,P19R*%
X156845000Y-100330000D03*
%TO.N,P20R*%
X156845000Y-97790000D03*
%TO.N,P21R*%
X156845000Y-95250000D03*
%TO.N,P22R*%
X156845000Y-92710000D03*
%TD*%
D14*
%TO.N,VCC*%
X135255000Y-87630000D02*
X133350000Y-87630000D01*
X135890000Y-85090000D02*
X135890000Y-86995000D01*
X133985000Y-85090000D02*
X135890000Y-85090000D01*
X133350000Y-85725000D02*
X133985000Y-85090000D01*
X135890000Y-86995000D02*
X135255000Y-87630000D01*
X133350000Y-87630000D02*
X133350000Y-85725000D01*
X153035000Y-85090000D02*
X154305000Y-85090000D01*
D15*
X154305000Y-85090000D02*
X155575000Y-85090000D01*
D14*
X155575000Y-85090000D02*
X156210000Y-85090000D01*
X168275000Y-77470000D02*
X169545000Y-77470000D01*
X169545000Y-77470000D02*
X170180000Y-76835000D01*
X170180000Y-76274460D02*
X170172125Y-76270447D01*
X170180000Y-76835000D02*
X170180000Y-76274460D01*
D16*
X160655000Y-85090000D02*
X168275000Y-77470000D01*
X135890000Y-85090000D02*
X153670000Y-85090000D01*
X158115000Y-85090000D02*
X160655000Y-85090000D01*
X156210000Y-85090000D02*
X158115000Y-85090000D01*
D14*
X170180000Y-76200000D02*
X168910000Y-76200000D01*
X168910000Y-76200000D02*
X168275000Y-76835000D01*
X168275000Y-76835000D02*
X168275000Y-77470000D01*
%TO.N,GND*%
X170180000Y-101600000D02*
X167640000Y-104140000D01*
X167640000Y-104140000D02*
X165100000Y-106680000D01*
X167640000Y-104140000D02*
X167640000Y-106680000D01*
X165100000Y-106680000D02*
X167640000Y-106680000D01*
D15*
%TO.N,P12*%
X146685000Y-118745000D02*
X127635000Y-118745000D01*
X127635000Y-118745000D02*
X125730000Y-116840000D01*
X149860000Y-115570000D02*
X146685000Y-118745000D01*
X156783501Y-115570000D02*
X149860000Y-115570000D01*
X159323501Y-118110000D02*
X156783501Y-115570000D01*
X165569002Y-118110000D02*
X159323501Y-118110000D01*
X125730000Y-116840000D02*
X125730000Y-115570000D01*
X167005000Y-116674002D02*
X165569002Y-118110000D01*
X167005000Y-109855000D02*
X167005000Y-116674002D01*
X170180000Y-106680000D02*
X167005000Y-109855000D01*
%TO.N,P11*%
X170180000Y-109220000D02*
X167640000Y-111760000D01*
X167640000Y-111760000D02*
X167640000Y-117009980D01*
X158730260Y-118745000D02*
X156835130Y-116849870D01*
X167640000Y-117009980D02*
X165904980Y-118745000D01*
X165904980Y-118745000D02*
X158730260Y-118745000D01*
X147320000Y-119380000D02*
X150015021Y-116684979D01*
X126365000Y-119380000D02*
X147320000Y-119380000D01*
X150015021Y-116684979D02*
X152388168Y-116684979D01*
X124460000Y-117475000D02*
X126365000Y-119380000D01*
%TO.N,P10*%
X124380000Y-110490000D02*
X125730000Y-110490000D01*
X123190000Y-111680000D02*
X124380000Y-110490000D01*
X123190000Y-117475000D02*
X123190000Y-111680000D01*
X125730000Y-120015000D02*
X123190000Y-117475000D01*
X147955000Y-120015000D02*
X125730000Y-120015000D01*
X149860000Y-118110000D02*
X147955000Y-120015000D01*
X156845000Y-118110000D02*
X149860000Y-118110000D01*
X166118522Y-119380000D02*
X158115000Y-119380000D01*
X168275000Y-117223522D02*
X166118522Y-119380000D01*
X168275000Y-113665000D02*
X168275000Y-117223522D01*
X158115000Y-119380000D02*
X156845000Y-118110000D01*
X170180000Y-111760000D02*
X168275000Y-113665000D01*
%TO.N,P08*%
X122555000Y-119380000D02*
X122555000Y-107235000D01*
X124460000Y-121285000D02*
X122555000Y-119380000D01*
X149225000Y-121285000D02*
X124460000Y-121285000D01*
X151320002Y-119189998D02*
X149225000Y-121285000D01*
X152255997Y-119189998D02*
X151320002Y-119189998D01*
X124380000Y-105410000D02*
X125730000Y-105410000D01*
X153715999Y-120650000D02*
X152255997Y-119189998D01*
X166726378Y-120650000D02*
X153715999Y-120650000D01*
X122555000Y-107235000D02*
X124380000Y-105410000D01*
X170180000Y-117196378D02*
X166726378Y-120650000D01*
X170180000Y-116840000D02*
X170180000Y-117196378D01*
%TO.N,P07*%
X156845000Y-121729990D02*
X157670010Y-121729990D01*
X158115000Y-121285000D02*
X168275000Y-121285000D01*
X157670010Y-121729990D02*
X158115000Y-121285000D01*
X170180000Y-119380000D02*
X168275000Y-121285000D01*
X151199315Y-120650000D02*
X151765000Y-120650000D01*
X149929315Y-121920000D02*
X151199315Y-120650000D01*
X123825000Y-121920000D02*
X149929315Y-121920000D01*
X123190000Y-121285000D02*
X123825000Y-121920000D01*
%TO.N,P06*%
X124380000Y-100330000D02*
X125730000Y-100330000D01*
X121920000Y-121285000D02*
X121920000Y-102790000D01*
X123190000Y-122555000D02*
X121920000Y-121285000D01*
X150495000Y-122555000D02*
X123190000Y-122555000D01*
X152375502Y-121920000D02*
X151130000Y-121920000D01*
X153600503Y-123145001D02*
X152375502Y-121920000D01*
X155528001Y-123145001D02*
X153600503Y-123145001D01*
X156118002Y-122555000D02*
X155528001Y-123145001D01*
X151130000Y-121920000D02*
X150495000Y-122555000D01*
X158115000Y-122555000D02*
X156118002Y-122555000D01*
X121920000Y-102790000D02*
X124380000Y-100330000D01*
X158750000Y-121920000D02*
X158115000Y-122555000D01*
X170180000Y-121920000D02*
X158750000Y-121920000D01*
%TO.N,P05*%
X158539271Y-123190000D02*
X157480000Y-123190000D01*
X159174271Y-122555000D02*
X158539271Y-123190000D01*
X157480000Y-123190000D02*
X156845000Y-123825000D01*
X168275000Y-122555000D02*
X159174271Y-122555000D01*
X170180000Y-124460000D02*
X168275000Y-122555000D01*
X122555000Y-123190000D02*
X151765000Y-123190000D01*
%TO.N,P09*%
X170180000Y-114300000D02*
X168910000Y-115570000D01*
X168910000Y-115570000D02*
X168910000Y-117617836D01*
X168910000Y-117617836D02*
X166512842Y-120014994D01*
X166512842Y-120014994D02*
X157410695Y-120014994D01*
X157410695Y-120014994D02*
X156845006Y-119449305D01*
X148590000Y-120650000D02*
X149860000Y-119380000D01*
X125095014Y-120650000D02*
X148590000Y-120650000D01*
X123825014Y-119380000D02*
X125095014Y-120650000D01*
%TO.N,P01R*%
X142240000Y-88900000D02*
X143554999Y-87585001D01*
X161334999Y-87585001D02*
X170180000Y-78740000D01*
X143554999Y-87585001D02*
X161334999Y-87585001D01*
%TO.N,P02R*%
X143510000Y-90170000D02*
X142240000Y-91440000D01*
X156845000Y-90170000D02*
X143510000Y-90170000D01*
X158115000Y-88900000D02*
X156845000Y-90170000D01*
X162560000Y-88900000D02*
X158115000Y-88900000D01*
X170180000Y-81280000D02*
X162560000Y-88900000D01*
%TO.N,P03R*%
X155575000Y-95250000D02*
X143510000Y-95250000D01*
X156845000Y-96520000D02*
X155575000Y-95250000D01*
X143510000Y-95250000D02*
X142240000Y-93980000D01*
X161290000Y-96520000D02*
X156845000Y-96520000D01*
X165735000Y-92075000D02*
X161290000Y-96520000D01*
X165735000Y-88265000D02*
X165735000Y-92075000D01*
X170180000Y-83820000D02*
X165735000Y-88265000D01*
%TO.N,P04R*%
X143510000Y-97790000D02*
X142240000Y-96520000D01*
X155575000Y-97790000D02*
X143510000Y-97790000D01*
X161290000Y-99060000D02*
X156845000Y-99060000D01*
X168275000Y-92075000D02*
X161290000Y-99060000D01*
X156845000Y-99060000D02*
X155575000Y-97790000D01*
X168275000Y-90805000D02*
X168275000Y-92075000D01*
X170180000Y-88900000D02*
X168275000Y-90805000D01*
%TO.N,P05R*%
X155575000Y-100330000D02*
X143510000Y-100330000D01*
X156845000Y-101600000D02*
X155575000Y-100330000D01*
X143510000Y-100330000D02*
X142240000Y-99060000D01*
X162560000Y-101600000D02*
X156845000Y-101600000D01*
X170180000Y-93980000D02*
X162560000Y-101600000D01*
%TO.N,P06R*%
X143554999Y-102914999D02*
X142240000Y-101600000D01*
X155619999Y-102914999D02*
X143554999Y-102914999D01*
X156845000Y-104140000D02*
X155619999Y-102914999D01*
X165100000Y-104140000D02*
X156845000Y-104140000D01*
X170180000Y-99060000D02*
X165100000Y-104140000D01*
%TO.N,P07R*%
X143510000Y-105410000D02*
X142240000Y-104140000D01*
X155575000Y-105410000D02*
X143510000Y-105410000D01*
X160020000Y-106680000D02*
X162560000Y-109220000D01*
X156845000Y-106680000D02*
X160020000Y-106680000D01*
X156845000Y-106680000D02*
X155575000Y-105410000D01*
%TO.N,P08R*%
X143510000Y-107950000D02*
X142240000Y-106680000D01*
X155575000Y-107950000D02*
X143510000Y-107950000D01*
X157480000Y-109220000D02*
X160020000Y-111760000D01*
X156845000Y-109220000D02*
X157480000Y-109220000D01*
X162560000Y-111760000D02*
X160020000Y-111760000D01*
X156845000Y-109220000D02*
X155575000Y-107950000D01*
%TO.N,P09R*%
X142240000Y-109220000D02*
X144204473Y-111184473D01*
X144204473Y-111184473D02*
X144204473Y-116753685D01*
%TO.N,P10R*%
X143233492Y-112753492D02*
X143233492Y-117475000D01*
X142240000Y-111760000D02*
X143233492Y-112753492D01*
%TO.N,P11R*%
X154940000Y-121920000D02*
X154305000Y-121920000D01*
X142240000Y-114300000D02*
X142240000Y-116839994D01*
%TO.N,P14*%
X158159999Y-115614999D02*
X155575000Y-113030000D01*
X160608001Y-115614999D02*
X158159999Y-115614999D01*
X161833002Y-116840000D02*
X160608001Y-115614999D01*
X162560000Y-116840000D02*
X161833002Y-116840000D01*
X155575000Y-113030000D02*
X152400000Y-113030000D01*
%TO.N,P15*%
X165100000Y-114300000D02*
X163830000Y-113030000D01*
X159385000Y-113030000D02*
X156845000Y-110490000D01*
X163830000Y-113030000D02*
X159385000Y-113030000D01*
%TO.N,P13R*%
X158750000Y-114935000D02*
X156845000Y-113030000D01*
X163874999Y-115614999D02*
X165100000Y-116840000D01*
X162061997Y-115614999D02*
X163874999Y-115614999D01*
X161381998Y-114935000D02*
X162061997Y-115614999D01*
X158750000Y-114935000D02*
X161381998Y-114935000D01*
%TO.N,P15R*%
X155575000Y-110490000D02*
X151130000Y-110490000D01*
X162560000Y-114300000D02*
X159385000Y-114300000D01*
X159385000Y-114300000D02*
X155575000Y-110490000D01*
%TO.N,P16R*%
X165100000Y-111760000D02*
X163830000Y-110490000D01*
X158115000Y-107950000D02*
X160655000Y-110490000D01*
X156845000Y-107950000D02*
X158115000Y-107950000D01*
X163830000Y-110490000D02*
X160655000Y-110490000D01*
%TO.N,P17R*%
X161290000Y-105410000D02*
X156845000Y-105410000D01*
X165100000Y-109220000D02*
X161290000Y-105410000D01*
%TO.N,P18R*%
X163830000Y-102870000D02*
X156845000Y-102870000D01*
X170180000Y-96520000D02*
X163830000Y-102870000D01*
%TO.N,P19R*%
X161290000Y-100330000D02*
X156845000Y-100330000D01*
X170180000Y-91440000D02*
X161290000Y-100330000D01*
%TO.N,P20R*%
X161290000Y-97790000D02*
X156845000Y-97790000D01*
X167005000Y-92075000D02*
X161290000Y-97790000D01*
X167005000Y-89535000D02*
X167005000Y-92075000D01*
X170180000Y-86360000D02*
X167005000Y-89535000D01*
%TO.N,P21R*%
X160020000Y-95250000D02*
X156845000Y-95250000D01*
X163830000Y-91440000D02*
X160020000Y-95250000D01*
%TO.N,P22R*%
X161290000Y-91440000D02*
X160020000Y-92710000D01*
X156845000Y-92710000D02*
X160020000Y-92710000D01*
%TD*%
D17*
%TO.N,GND*%
X183244545Y-74358909D02*
X183595208Y-74464780D01*
X183918625Y-74636744D01*
X184202484Y-74868254D01*
X184435965Y-75150486D01*
X184610183Y-75472695D01*
X184718502Y-75822614D01*
X184760000Y-76217443D01*
X184760001Y-124427711D01*
X184721091Y-124824545D01*
X184615220Y-125175206D01*
X184443257Y-125498623D01*
X184211748Y-125782482D01*
X183929514Y-126015965D01*
X183607304Y-126190184D01*
X183257385Y-126298502D01*
X182862557Y-126340000D01*
X109252279Y-126340000D01*
X108855455Y-126301091D01*
X108504794Y-126195220D01*
X108181377Y-126023257D01*
X107897518Y-125791748D01*
X107664035Y-125509514D01*
X107489816Y-125187304D01*
X107381498Y-124837385D01*
X107340000Y-124442557D01*
X107340000Y-102790000D01*
X121106081Y-102790000D01*
X121110001Y-102829798D01*
X121110000Y-121245212D01*
X121106081Y-121285000D01*
X121110000Y-121324788D01*
X121110000Y-121324790D01*
X121121720Y-121443787D01*
X121168037Y-121596472D01*
X121203049Y-121661975D01*
X121243251Y-121737189D01*
X121274492Y-121775256D01*
X121344472Y-121860528D01*
X121375387Y-121885899D01*
X121885388Y-122395901D01*
X121751063Y-122530226D01*
X121637795Y-122699744D01*
X121559774Y-122888102D01*
X121520000Y-123088061D01*
X121520000Y-123291939D01*
X121559774Y-123491898D01*
X121637795Y-123680256D01*
X121751063Y-123849774D01*
X121895226Y-123993937D01*
X122064744Y-124107205D01*
X122253102Y-124185226D01*
X122453061Y-124225000D01*
X122656939Y-124225000D01*
X122856898Y-124185226D01*
X123045256Y-124107205D01*
X123205700Y-124000000D01*
X151114300Y-124000000D01*
X151274744Y-124107205D01*
X151463102Y-124185226D01*
X151663061Y-124225000D01*
X151866939Y-124225000D01*
X152066898Y-124185226D01*
X152255256Y-124107205D01*
X152424774Y-123993937D01*
X152568937Y-123849774D01*
X152682205Y-123680256D01*
X152760226Y-123491898D01*
X152767138Y-123457149D01*
X152999608Y-123689619D01*
X153024975Y-123720529D01*
X153079806Y-123765527D01*
X153148313Y-123821750D01*
X153223527Y-123861952D01*
X153289030Y-123896964D01*
X153441715Y-123943281D01*
X153560712Y-123955001D01*
X153560714Y-123955001D01*
X153594564Y-123958335D01*
X153560147Y-124041426D01*
X153505000Y-124318665D01*
X153505000Y-124601335D01*
X153560147Y-124878574D01*
X153668320Y-125139727D01*
X153825363Y-125374759D01*
X154025241Y-125574637D01*
X154260273Y-125731680D01*
X154521426Y-125839853D01*
X154798665Y-125895000D01*
X155081335Y-125895000D01*
X155358574Y-125839853D01*
X155619727Y-125731680D01*
X155854759Y-125574637D01*
X156054637Y-125374759D01*
X156211680Y-125139727D01*
X156319853Y-124878574D01*
X156347890Y-124737625D01*
X156354744Y-124742205D01*
X156543102Y-124820226D01*
X156743061Y-124860000D01*
X156946939Y-124860000D01*
X157146898Y-124820226D01*
X157335256Y-124742205D01*
X157504774Y-124628937D01*
X157648937Y-124484774D01*
X157762205Y-124315256D01*
X157840226Y-124126898D01*
X157865467Y-124000000D01*
X158499483Y-124000000D01*
X158539271Y-124003919D01*
X158579059Y-124000000D01*
X158579062Y-124000000D01*
X158660634Y-123991966D01*
X158640147Y-124041426D01*
X158585000Y-124318665D01*
X158585000Y-124601335D01*
X158640147Y-124878574D01*
X158748320Y-125139727D01*
X158905363Y-125374759D01*
X159105241Y-125574637D01*
X159340273Y-125731680D01*
X159601426Y-125839853D01*
X159878665Y-125895000D01*
X160161335Y-125895000D01*
X160438574Y-125839853D01*
X160699727Y-125731680D01*
X160934759Y-125574637D01*
X161134637Y-125374759D01*
X161291680Y-125139727D01*
X161296357Y-125128435D01*
X161328963Y-125197420D01*
X161496481Y-125423414D01*
X161704869Y-125612385D01*
X161946119Y-125757070D01*
X162210960Y-125851909D01*
X162433000Y-125730624D01*
X162433000Y-124587000D01*
X162413000Y-124587000D01*
X162413000Y-124333000D01*
X162433000Y-124333000D01*
X162433000Y-124313000D01*
X162687000Y-124313000D01*
X162687000Y-124333000D01*
X162707000Y-124333000D01*
X162707000Y-124587000D01*
X162687000Y-124587000D01*
X162687000Y-125730624D01*
X162909040Y-125851909D01*
X163173881Y-125757070D01*
X163415131Y-125612385D01*
X163623519Y-125423414D01*
X163791037Y-125197420D01*
X163823643Y-125128435D01*
X163828320Y-125139727D01*
X163985363Y-125374759D01*
X164185241Y-125574637D01*
X164420273Y-125731680D01*
X164681426Y-125839853D01*
X164958665Y-125895000D01*
X165241335Y-125895000D01*
X165518574Y-125839853D01*
X165779727Y-125731680D01*
X166014759Y-125574637D01*
X166214637Y-125374759D01*
X166371680Y-125139727D01*
X166479853Y-124878574D01*
X166535000Y-124601335D01*
X166535000Y-124318665D01*
X166479853Y-124041426D01*
X166371680Y-123780273D01*
X166214637Y-123545241D01*
X166034396Y-123365000D01*
X167939488Y-123365000D01*
X168769580Y-124195093D01*
X168745000Y-124318665D01*
X168745000Y-124601335D01*
X168800147Y-124878574D01*
X168908320Y-125139727D01*
X169065363Y-125374759D01*
X169265241Y-125574637D01*
X169500273Y-125731680D01*
X169761426Y-125839853D01*
X170038665Y-125895000D01*
X170321335Y-125895000D01*
X170598574Y-125839853D01*
X170859727Y-125731680D01*
X171094759Y-125574637D01*
X171294637Y-125374759D01*
X171451680Y-125139727D01*
X171559853Y-124878574D01*
X171615000Y-124601335D01*
X171615000Y-124318665D01*
X171559853Y-124041426D01*
X171451680Y-123780273D01*
X171294637Y-123545241D01*
X171094759Y-123345363D01*
X170862241Y-123190000D01*
X171094759Y-123034637D01*
X171294637Y-122834759D01*
X171451680Y-122599727D01*
X171559853Y-122338574D01*
X171615000Y-122061335D01*
X171615000Y-121778665D01*
X171559853Y-121501426D01*
X171451680Y-121240273D01*
X171294637Y-121005241D01*
X171094759Y-120805363D01*
X170862241Y-120650000D01*
X171094759Y-120494637D01*
X171294637Y-120294759D01*
X171451680Y-120059727D01*
X171559853Y-119798574D01*
X171615000Y-119521335D01*
X171615000Y-119238665D01*
X171559853Y-118961426D01*
X171451680Y-118700273D01*
X171294637Y-118465241D01*
X171094759Y-118265363D01*
X170862241Y-118110000D01*
X171094759Y-117954637D01*
X171294637Y-117754759D01*
X171451680Y-117519727D01*
X171559853Y-117258574D01*
X171615000Y-116981335D01*
X171615000Y-116698665D01*
X171559853Y-116421426D01*
X171451680Y-116160273D01*
X171294637Y-115925241D01*
X171094759Y-115725363D01*
X170862241Y-115570000D01*
X171094759Y-115414637D01*
X171294637Y-115214759D01*
X171451680Y-114979727D01*
X171559853Y-114718574D01*
X171615000Y-114441335D01*
X171615000Y-114158665D01*
X171559853Y-113881426D01*
X171451680Y-113620273D01*
X171294637Y-113385241D01*
X171094759Y-113185363D01*
X170862241Y-113030000D01*
X171094759Y-112874637D01*
X171294637Y-112674759D01*
X171451680Y-112439727D01*
X171559853Y-112178574D01*
X171615000Y-111901335D01*
X171615000Y-111618665D01*
X171559853Y-111341426D01*
X171451680Y-111080273D01*
X171294637Y-110845241D01*
X171094759Y-110645363D01*
X170862241Y-110490000D01*
X171094759Y-110334637D01*
X171294637Y-110134759D01*
X171451680Y-109899727D01*
X171559853Y-109638574D01*
X171615000Y-109361335D01*
X171615000Y-109078665D01*
X171559853Y-108801426D01*
X171451680Y-108540273D01*
X171294637Y-108305241D01*
X171094759Y-108105363D01*
X170862241Y-107950000D01*
X171094759Y-107794637D01*
X171294637Y-107594759D01*
X171451680Y-107359727D01*
X171559853Y-107098574D01*
X171615000Y-106821335D01*
X171615000Y-106538665D01*
X171559853Y-106261426D01*
X171451680Y-106000273D01*
X171294637Y-105765241D01*
X171094759Y-105565363D01*
X170862241Y-105410000D01*
X171094759Y-105254637D01*
X171294637Y-105054759D01*
X171451680Y-104819727D01*
X171559853Y-104558574D01*
X171615000Y-104281335D01*
X171615000Y-103998665D01*
X171559853Y-103721426D01*
X171451680Y-103460273D01*
X171294637Y-103225241D01*
X171094759Y-103025363D01*
X170859727Y-102868320D01*
X170849135Y-102863933D01*
X171035131Y-102752385D01*
X171243519Y-102563414D01*
X171411037Y-102337420D01*
X171531246Y-102083087D01*
X171571904Y-101949039D01*
X171449915Y-101727000D01*
X170307000Y-101727000D01*
X170307000Y-101747000D01*
X170053000Y-101747000D01*
X170053000Y-101727000D01*
X170033000Y-101727000D01*
X170033000Y-101473000D01*
X170053000Y-101473000D01*
X170053000Y-101453000D01*
X170307000Y-101453000D01*
X170307000Y-101473000D01*
X171449915Y-101473000D01*
X171571904Y-101250961D01*
X171531246Y-101116913D01*
X171411037Y-100862580D01*
X171243519Y-100636586D01*
X171035131Y-100447615D01*
X170849135Y-100336067D01*
X170859727Y-100331680D01*
X171094759Y-100174637D01*
X171294637Y-99974759D01*
X171451680Y-99739727D01*
X171559853Y-99478574D01*
X171615000Y-99201335D01*
X171615000Y-98918665D01*
X171559853Y-98641426D01*
X171451680Y-98380273D01*
X171294637Y-98145241D01*
X171094759Y-97945363D01*
X170862241Y-97790000D01*
X171094759Y-97634637D01*
X171294637Y-97434759D01*
X171451680Y-97199727D01*
X171559853Y-96938574D01*
X171615000Y-96661335D01*
X171615000Y-96378665D01*
X171559853Y-96101426D01*
X171451680Y-95840273D01*
X171294637Y-95605241D01*
X171094759Y-95405363D01*
X170862241Y-95250000D01*
X171094759Y-95094637D01*
X171294637Y-94894759D01*
X171451680Y-94659727D01*
X171559853Y-94398574D01*
X171615000Y-94121335D01*
X171615000Y-93838665D01*
X171559853Y-93561426D01*
X171451680Y-93300273D01*
X171294637Y-93065241D01*
X171094759Y-92865363D01*
X170862241Y-92710000D01*
X171094759Y-92554637D01*
X171294637Y-92354759D01*
X171451680Y-92119727D01*
X171559853Y-91858574D01*
X171615000Y-91581335D01*
X171615000Y-91298665D01*
X171559853Y-91021426D01*
X171451680Y-90760273D01*
X171294637Y-90525241D01*
X171094759Y-90325363D01*
X170862241Y-90170000D01*
X171094759Y-90014637D01*
X171294637Y-89814759D01*
X171451680Y-89579727D01*
X171559853Y-89318574D01*
X171615000Y-89041335D01*
X171615000Y-88758665D01*
X171559853Y-88481426D01*
X171451680Y-88220273D01*
X171294637Y-87985241D01*
X171094759Y-87785363D01*
X170862241Y-87630000D01*
X171094759Y-87474637D01*
X171294637Y-87274759D01*
X171451680Y-87039727D01*
X171559853Y-86778574D01*
X171615000Y-86501335D01*
X171615000Y-86218665D01*
X171559853Y-85941426D01*
X171451680Y-85680273D01*
X171294637Y-85445241D01*
X171094759Y-85245363D01*
X170862241Y-85090000D01*
X171094759Y-84934637D01*
X171294637Y-84734759D01*
X171451680Y-84499727D01*
X171559853Y-84238574D01*
X171615000Y-83961335D01*
X171615000Y-83678665D01*
X171559853Y-83401426D01*
X171451680Y-83140273D01*
X171294637Y-82905241D01*
X171094759Y-82705363D01*
X170862241Y-82550000D01*
X171094759Y-82394637D01*
X171294637Y-82194759D01*
X171451680Y-81959727D01*
X171559853Y-81698574D01*
X171615000Y-81421335D01*
X171615000Y-81138665D01*
X171559853Y-80861426D01*
X171451680Y-80600273D01*
X171294637Y-80365241D01*
X171094759Y-80165363D01*
X170862241Y-80010000D01*
X171094759Y-79854637D01*
X171294637Y-79654759D01*
X171451680Y-79419727D01*
X171559853Y-79158574D01*
X171615000Y-78881335D01*
X171615000Y-78598665D01*
X171559853Y-78321426D01*
X171451680Y-78060273D01*
X171294637Y-77825241D01*
X171094759Y-77625363D01*
X170862241Y-77470000D01*
X171094759Y-77314637D01*
X171294637Y-77114759D01*
X171451680Y-76879727D01*
X171559853Y-76618574D01*
X171615000Y-76341335D01*
X171615000Y-76058665D01*
X171559853Y-75781426D01*
X171451680Y-75520273D01*
X171294637Y-75285241D01*
X171094759Y-75085363D01*
X170859727Y-74928320D01*
X170598574Y-74820147D01*
X170321335Y-74765000D01*
X170038665Y-74765000D01*
X169761426Y-74820147D01*
X169500273Y-74928320D01*
X169265241Y-75085363D01*
X169065363Y-75285241D01*
X169045479Y-75315000D01*
X168953469Y-75315000D01*
X168910000Y-75310719D01*
X168866531Y-75315000D01*
X168866523Y-75315000D01*
X168736510Y-75327805D01*
X168569686Y-75378411D01*
X168415941Y-75460589D01*
X168314953Y-75543468D01*
X168314951Y-75543470D01*
X168281183Y-75571183D01*
X168253470Y-75604951D01*
X167679956Y-76178466D01*
X167646183Y-76206183D01*
X167535589Y-76340942D01*
X167453411Y-76494688D01*
X167438086Y-76545208D01*
X167402805Y-76661510D01*
X167401975Y-76669934D01*
X167394551Y-76745317D01*
X160184869Y-83955000D01*
X156375000Y-83955000D01*
X156375000Y-83678665D01*
X156319853Y-83401426D01*
X156211680Y-83140273D01*
X156054637Y-82905241D01*
X155854759Y-82705363D01*
X155622241Y-82550000D01*
X155854759Y-82394637D01*
X156054637Y-82194759D01*
X156211680Y-81959727D01*
X156319853Y-81698574D01*
X156375000Y-81421335D01*
X156375000Y-81138665D01*
X156319853Y-80861426D01*
X156211680Y-80600273D01*
X156054637Y-80365241D01*
X155854759Y-80165363D01*
X155622241Y-80010000D01*
X155854759Y-79854637D01*
X156054637Y-79654759D01*
X156211680Y-79419727D01*
X156319853Y-79158574D01*
X156375000Y-78881335D01*
X156375000Y-78598665D01*
X156319853Y-78321426D01*
X156211680Y-78060273D01*
X156054637Y-77825241D01*
X155854759Y-77625363D01*
X155619727Y-77468320D01*
X155609135Y-77463933D01*
X155795131Y-77352385D01*
X156003519Y-77163414D01*
X156171037Y-76937420D01*
X156291246Y-76683087D01*
X156331904Y-76549039D01*
X156209915Y-76327000D01*
X155067000Y-76327000D01*
X155067000Y-76347000D01*
X154813000Y-76347000D01*
X154813000Y-76327000D01*
X153670085Y-76327000D01*
X153548096Y-76549039D01*
X153588754Y-76683087D01*
X153708963Y-76937420D01*
X153876481Y-77163414D01*
X154084869Y-77352385D01*
X154270865Y-77463933D01*
X154260273Y-77468320D01*
X154025241Y-77625363D01*
X153825363Y-77825241D01*
X153668320Y-78060273D01*
X153560147Y-78321426D01*
X153505000Y-78598665D01*
X153505000Y-78881335D01*
X153560147Y-79158574D01*
X153668320Y-79419727D01*
X153825363Y-79654759D01*
X154025241Y-79854637D01*
X154257759Y-80010000D01*
X154025241Y-80165363D01*
X153825363Y-80365241D01*
X153668320Y-80600273D01*
X153560147Y-80861426D01*
X153505000Y-81138665D01*
X153505000Y-81421335D01*
X153560147Y-81698574D01*
X153668320Y-81959727D01*
X153825363Y-82194759D01*
X154025241Y-82394637D01*
X154257759Y-82550000D01*
X154025241Y-82705363D01*
X153825363Y-82905241D01*
X153668320Y-83140273D01*
X153560147Y-83401426D01*
X153505000Y-83678665D01*
X153505000Y-83955000D01*
X135834248Y-83955000D01*
X135667501Y-83971423D01*
X135453553Y-84036324D01*
X135256377Y-84141716D01*
X135179265Y-84205000D01*
X134028469Y-84205000D01*
X133985000Y-84200719D01*
X133941531Y-84205000D01*
X133941523Y-84205000D01*
X133811510Y-84217805D01*
X133644686Y-84268411D01*
X133490941Y-84350589D01*
X133389953Y-84433468D01*
X133389951Y-84433470D01*
X133356183Y-84461183D01*
X133328470Y-84494951D01*
X132754951Y-85068471D01*
X132721184Y-85096183D01*
X132693471Y-85129951D01*
X132693468Y-85129954D01*
X132610590Y-85230941D01*
X132528412Y-85384687D01*
X132477805Y-85551510D01*
X132460719Y-85725000D01*
X132465001Y-85768479D01*
X132465001Y-86416961D01*
X132313560Y-86497908D01*
X132107235Y-86667235D01*
X131937908Y-86873560D01*
X131812086Y-87108955D01*
X131734606Y-87364374D01*
X131708444Y-87630000D01*
X131734606Y-87895626D01*
X131812086Y-88151045D01*
X131937908Y-88386440D01*
X132107235Y-88592765D01*
X132313560Y-88762092D01*
X132548955Y-88887914D01*
X132588797Y-88900000D01*
X132548955Y-88912086D01*
X132313560Y-89037908D01*
X132107235Y-89207235D01*
X131937908Y-89413560D01*
X131812086Y-89648955D01*
X131734606Y-89904374D01*
X131708444Y-90170000D01*
X131734606Y-90435626D01*
X131812086Y-90691045D01*
X131937908Y-90926440D01*
X132107235Y-91132765D01*
X132313560Y-91302092D01*
X132548955Y-91427914D01*
X132588797Y-91440000D01*
X132548955Y-91452086D01*
X132313560Y-91577908D01*
X132107235Y-91747235D01*
X131937908Y-91953560D01*
X131812086Y-92188955D01*
X131734606Y-92444374D01*
X131708444Y-92710000D01*
X131734606Y-92975626D01*
X131812086Y-93231045D01*
X131937908Y-93466440D01*
X132107235Y-93672765D01*
X132313560Y-93842092D01*
X132548955Y-93967914D01*
X132588797Y-93980000D01*
X132548955Y-93992086D01*
X132313560Y-94117908D01*
X132107235Y-94287235D01*
X131937908Y-94493560D01*
X131812086Y-94728955D01*
X131734606Y-94984374D01*
X131708444Y-95250000D01*
X131734606Y-95515626D01*
X131812086Y-95771045D01*
X131937908Y-96006440D01*
X132107235Y-96212765D01*
X132313560Y-96382092D01*
X132548955Y-96507914D01*
X132588797Y-96520000D01*
X132548955Y-96532086D01*
X132313560Y-96657908D01*
X132107235Y-96827235D01*
X131937908Y-97033560D01*
X131812086Y-97268955D01*
X131734606Y-97524374D01*
X131708444Y-97790000D01*
X131734606Y-98055626D01*
X131812086Y-98311045D01*
X131937908Y-98546440D01*
X132107235Y-98752765D01*
X132313560Y-98922092D01*
X132548955Y-99047914D01*
X132588797Y-99060000D01*
X132548955Y-99072086D01*
X132313560Y-99197908D01*
X132107235Y-99367235D01*
X131937908Y-99573560D01*
X131812086Y-99808955D01*
X131734606Y-100064374D01*
X131708444Y-100330000D01*
X131734606Y-100595626D01*
X131812086Y-100851045D01*
X131937908Y-101086440D01*
X132107235Y-101292765D01*
X132313560Y-101462092D01*
X132548955Y-101587914D01*
X132588797Y-101600000D01*
X132548955Y-101612086D01*
X132313560Y-101737908D01*
X132107235Y-101907235D01*
X131937908Y-102113560D01*
X131812086Y-102348955D01*
X131734606Y-102604374D01*
X131708444Y-102870000D01*
X131734606Y-103135626D01*
X131812086Y-103391045D01*
X131937908Y-103626440D01*
X132107235Y-103832765D01*
X132313560Y-104002092D01*
X132548955Y-104127914D01*
X132588797Y-104140000D01*
X132548955Y-104152086D01*
X132313560Y-104277908D01*
X132107235Y-104447235D01*
X131937908Y-104653560D01*
X131812086Y-104888955D01*
X131734606Y-105144374D01*
X131708444Y-105410000D01*
X131734606Y-105675626D01*
X131812086Y-105931045D01*
X131937908Y-106166440D01*
X132107235Y-106372765D01*
X132313560Y-106542092D01*
X132548955Y-106667914D01*
X132588797Y-106680000D01*
X132548955Y-106692086D01*
X132313560Y-106817908D01*
X132107235Y-106987235D01*
X131937908Y-107193560D01*
X131812086Y-107428955D01*
X131734606Y-107684374D01*
X131708444Y-107950000D01*
X131734606Y-108215626D01*
X131812086Y-108471045D01*
X131937908Y-108706440D01*
X132107235Y-108912765D01*
X132313560Y-109082092D01*
X132548955Y-109207914D01*
X132588797Y-109220000D01*
X132548955Y-109232086D01*
X132313560Y-109357908D01*
X132107235Y-109527235D01*
X131937908Y-109733560D01*
X131812086Y-109968955D01*
X131734606Y-110224374D01*
X131708444Y-110490000D01*
X131734606Y-110755626D01*
X131812086Y-111011045D01*
X131937908Y-111246440D01*
X132107235Y-111452765D01*
X132313560Y-111622092D01*
X132548955Y-111747914D01*
X132588797Y-111760000D01*
X132548955Y-111772086D01*
X132313560Y-111897908D01*
X132107235Y-112067235D01*
X131937908Y-112273560D01*
X131812086Y-112508955D01*
X131734606Y-112764374D01*
X131708444Y-113030000D01*
X131734606Y-113295626D01*
X131812086Y-113551045D01*
X131937908Y-113786440D01*
X132107235Y-113992765D01*
X132313560Y-114162092D01*
X132548955Y-114287914D01*
X132588797Y-114300000D01*
X132548955Y-114312086D01*
X132313560Y-114437908D01*
X132107235Y-114607235D01*
X131937908Y-114813560D01*
X131812086Y-115048955D01*
X131734606Y-115304374D01*
X131708444Y-115570000D01*
X131734606Y-115835626D01*
X131812086Y-116091045D01*
X131937908Y-116326440D01*
X132107235Y-116532765D01*
X132313560Y-116702092D01*
X132548955Y-116827914D01*
X132804374Y-116905394D01*
X133003436Y-116925000D01*
X133696564Y-116925000D01*
X133895626Y-116905394D01*
X134151045Y-116827914D01*
X134386440Y-116702092D01*
X134592765Y-116532765D01*
X134762092Y-116326440D01*
X134887914Y-116091045D01*
X134965394Y-115835626D01*
X134991556Y-115570000D01*
X134965394Y-115304374D01*
X134887914Y-115048955D01*
X134762092Y-114813560D01*
X134592765Y-114607235D01*
X134386440Y-114437908D01*
X134151045Y-114312086D01*
X134111203Y-114300000D01*
X134151045Y-114287914D01*
X134386440Y-114162092D01*
X134592765Y-113992765D01*
X134762092Y-113786440D01*
X134887914Y-113551045D01*
X134965394Y-113295626D01*
X134991556Y-113030000D01*
X134965394Y-112764374D01*
X134887914Y-112508955D01*
X134762092Y-112273560D01*
X134592765Y-112067235D01*
X134386440Y-111897908D01*
X134151045Y-111772086D01*
X134111203Y-111760000D01*
X134151045Y-111747914D01*
X134386440Y-111622092D01*
X134592765Y-111452765D01*
X134762092Y-111246440D01*
X134887914Y-111011045D01*
X134965394Y-110755626D01*
X134991556Y-110490000D01*
X134965394Y-110224374D01*
X134887914Y-109968955D01*
X134762092Y-109733560D01*
X134592765Y-109527235D01*
X134386440Y-109357908D01*
X134151045Y-109232086D01*
X134111203Y-109220000D01*
X134151045Y-109207914D01*
X134386440Y-109082092D01*
X134592765Y-108912765D01*
X134762092Y-108706440D01*
X134887914Y-108471045D01*
X134965394Y-108215626D01*
X134991556Y-107950000D01*
X134965394Y-107684374D01*
X134887914Y-107428955D01*
X134762092Y-107193560D01*
X134592765Y-106987235D01*
X134386440Y-106817908D01*
X134151045Y-106692086D01*
X134111203Y-106680000D01*
X134151045Y-106667914D01*
X134386440Y-106542092D01*
X134592765Y-106372765D01*
X134762092Y-106166440D01*
X134887914Y-105931045D01*
X134965394Y-105675626D01*
X134991556Y-105410000D01*
X134965394Y-105144374D01*
X134887914Y-104888955D01*
X134762092Y-104653560D01*
X134592765Y-104447235D01*
X134386440Y-104277908D01*
X134151045Y-104152086D01*
X134111203Y-104140000D01*
X134151045Y-104127914D01*
X134386440Y-104002092D01*
X134592765Y-103832765D01*
X134762092Y-103626440D01*
X134887914Y-103391045D01*
X134965394Y-103135626D01*
X134991556Y-102870000D01*
X134965394Y-102604374D01*
X134887914Y-102348955D01*
X134762092Y-102113560D01*
X134592765Y-101907235D01*
X134386440Y-101737908D01*
X134151045Y-101612086D01*
X134111203Y-101600000D01*
X134151045Y-101587914D01*
X134386440Y-101462092D01*
X134592765Y-101292765D01*
X134762092Y-101086440D01*
X134887914Y-100851045D01*
X134965394Y-100595626D01*
X134991556Y-100330000D01*
X134965394Y-100064374D01*
X134887914Y-99808955D01*
X134762092Y-99573560D01*
X134592765Y-99367235D01*
X134386440Y-99197908D01*
X134151045Y-99072086D01*
X134111203Y-99060000D01*
X134151045Y-99047914D01*
X134386440Y-98922092D01*
X134592765Y-98752765D01*
X134762092Y-98546440D01*
X134887914Y-98311045D01*
X134965394Y-98055626D01*
X134991556Y-97790000D01*
X134965394Y-97524374D01*
X134887914Y-97268955D01*
X134762092Y-97033560D01*
X134592765Y-96827235D01*
X134386440Y-96657908D01*
X134151045Y-96532086D01*
X134111203Y-96520000D01*
X134151045Y-96507914D01*
X134386440Y-96382092D01*
X134592765Y-96212765D01*
X134762092Y-96006440D01*
X134887914Y-95771045D01*
X134965394Y-95515626D01*
X134991556Y-95250000D01*
X134965394Y-94984374D01*
X134887914Y-94728955D01*
X134762092Y-94493560D01*
X134592765Y-94287235D01*
X134386440Y-94117908D01*
X134151045Y-93992086D01*
X134111203Y-93980000D01*
X134151045Y-93967914D01*
X134386440Y-93842092D01*
X134592765Y-93672765D01*
X134762092Y-93466440D01*
X134887914Y-93231045D01*
X134965394Y-92975626D01*
X134991556Y-92710000D01*
X134965394Y-92444374D01*
X134887914Y-92188955D01*
X134762092Y-91953560D01*
X134592765Y-91747235D01*
X134386440Y-91577908D01*
X134151045Y-91452086D01*
X134111203Y-91440000D01*
X134151045Y-91427914D01*
X134386440Y-91302092D01*
X134592765Y-91132765D01*
X134762092Y-90926440D01*
X134887914Y-90691045D01*
X134965394Y-90435626D01*
X134991556Y-90170000D01*
X134965394Y-89904374D01*
X134887914Y-89648955D01*
X134762092Y-89413560D01*
X134592765Y-89207235D01*
X134386440Y-89037908D01*
X134151045Y-88912086D01*
X134111203Y-88900000D01*
X134151045Y-88887914D01*
X134386440Y-88762092D01*
X134592765Y-88592765D01*
X134656585Y-88515000D01*
X135211531Y-88515000D01*
X135255000Y-88519281D01*
X135298469Y-88515000D01*
X135298477Y-88515000D01*
X135428490Y-88502195D01*
X135595313Y-88451589D01*
X135749059Y-88369411D01*
X135883817Y-88258817D01*
X135911534Y-88225044D01*
X136485049Y-87651530D01*
X136518817Y-87623817D01*
X136629411Y-87489059D01*
X136646809Y-87456510D01*
X136711589Y-87335314D01*
X136762195Y-87168490D01*
X136765709Y-87132812D01*
X136775000Y-87038477D01*
X136775000Y-87038469D01*
X136779281Y-86995000D01*
X136775000Y-86951531D01*
X136775000Y-86225000D01*
X153505000Y-86225000D01*
X153505000Y-86501335D01*
X153559436Y-86775001D01*
X143594786Y-86775001D01*
X143554998Y-86771082D01*
X143515210Y-86775001D01*
X143515208Y-86775001D01*
X143396211Y-86786721D01*
X143243526Y-86833038D01*
X143102810Y-86908252D01*
X142979471Y-87009473D01*
X142954106Y-87040381D01*
X142127359Y-87867129D01*
X141938102Y-87904774D01*
X141749744Y-87982795D01*
X141580226Y-88096063D01*
X141436063Y-88240226D01*
X141322795Y-88409744D01*
X141244774Y-88598102D01*
X141205000Y-88798061D01*
X141205000Y-89001939D01*
X141244774Y-89201898D01*
X141322795Y-89390256D01*
X141436063Y-89559774D01*
X141580226Y-89703937D01*
X141749744Y-89817205D01*
X141938102Y-89895226D01*
X142138061Y-89935000D01*
X142341939Y-89935000D01*
X142541898Y-89895226D01*
X142708108Y-89826379D01*
X142127359Y-90407129D01*
X141938102Y-90444774D01*
X141749744Y-90522795D01*
X141580226Y-90636063D01*
X141436063Y-90780226D01*
X141322795Y-90949744D01*
X141244774Y-91138102D01*
X141205000Y-91338061D01*
X141205000Y-91541939D01*
X141244774Y-91741898D01*
X141322795Y-91930256D01*
X141436063Y-92099774D01*
X141580226Y-92243937D01*
X141749744Y-92357205D01*
X141938102Y-92435226D01*
X142138061Y-92475000D01*
X142341939Y-92475000D01*
X142541898Y-92435226D01*
X142730256Y-92357205D01*
X142899774Y-92243937D01*
X143043937Y-92099774D01*
X143157205Y-91930256D01*
X143235226Y-91741898D01*
X143272871Y-91552641D01*
X143845513Y-90980000D01*
X153577306Y-90980000D01*
X153560147Y-91021426D01*
X153505000Y-91298665D01*
X153505000Y-91581335D01*
X153560147Y-91858574D01*
X153668320Y-92119727D01*
X153825363Y-92354759D01*
X154025241Y-92554637D01*
X154257759Y-92710000D01*
X154025241Y-92865363D01*
X153825363Y-93065241D01*
X153668320Y-93300273D01*
X153560147Y-93561426D01*
X153505000Y-93838665D01*
X153505000Y-94121335D01*
X153560147Y-94398574D01*
X153577306Y-94440000D01*
X143845513Y-94440000D01*
X143272871Y-93867359D01*
X143235226Y-93678102D01*
X143157205Y-93489744D01*
X143043937Y-93320226D01*
X142899774Y-93176063D01*
X142730256Y-93062795D01*
X142541898Y-92984774D01*
X142341939Y-92945000D01*
X142138061Y-92945000D01*
X141938102Y-92984774D01*
X141749744Y-93062795D01*
X141580226Y-93176063D01*
X141436063Y-93320226D01*
X141322795Y-93489744D01*
X141244774Y-93678102D01*
X141205000Y-93878061D01*
X141205000Y-94081939D01*
X141244774Y-94281898D01*
X141322795Y-94470256D01*
X141436063Y-94639774D01*
X141580226Y-94783937D01*
X141749744Y-94897205D01*
X141938102Y-94975226D01*
X142127359Y-95012871D01*
X142708108Y-95593621D01*
X142541898Y-95524774D01*
X142341939Y-95485000D01*
X142138061Y-95485000D01*
X141938102Y-95524774D01*
X141749744Y-95602795D01*
X141580226Y-95716063D01*
X141436063Y-95860226D01*
X141322795Y-96029744D01*
X141244774Y-96218102D01*
X141205000Y-96418061D01*
X141205000Y-96621939D01*
X141244774Y-96821898D01*
X141322795Y-97010256D01*
X141436063Y-97179774D01*
X141580226Y-97323937D01*
X141749744Y-97437205D01*
X141938102Y-97515226D01*
X142127359Y-97552871D01*
X142708108Y-98133621D01*
X142541898Y-98064774D01*
X142341939Y-98025000D01*
X142138061Y-98025000D01*
X141938102Y-98064774D01*
X141749744Y-98142795D01*
X141580226Y-98256063D01*
X141436063Y-98400226D01*
X141322795Y-98569744D01*
X141244774Y-98758102D01*
X141205000Y-98958061D01*
X141205000Y-99161939D01*
X141244774Y-99361898D01*
X141322795Y-99550256D01*
X141436063Y-99719774D01*
X141580226Y-99863937D01*
X141749744Y-99977205D01*
X141938102Y-100055226D01*
X142127359Y-100092871D01*
X142708108Y-100673621D01*
X142541898Y-100604774D01*
X142341939Y-100565000D01*
X142138061Y-100565000D01*
X141938102Y-100604774D01*
X141749744Y-100682795D01*
X141580226Y-100796063D01*
X141436063Y-100940226D01*
X141322795Y-101109744D01*
X141244774Y-101298102D01*
X141205000Y-101498061D01*
X141205000Y-101701939D01*
X141244774Y-101901898D01*
X141322795Y-102090256D01*
X141436063Y-102259774D01*
X141580226Y-102403937D01*
X141749744Y-102517205D01*
X141938102Y-102595226D01*
X142127359Y-102632871D01*
X142708108Y-103213621D01*
X142541898Y-103144774D01*
X142341939Y-103105000D01*
X142138061Y-103105000D01*
X141938102Y-103144774D01*
X141749744Y-103222795D01*
X141580226Y-103336063D01*
X141436063Y-103480226D01*
X141322795Y-103649744D01*
X141244774Y-103838102D01*
X141205000Y-104038061D01*
X141205000Y-104241939D01*
X141244774Y-104441898D01*
X141322795Y-104630256D01*
X141436063Y-104799774D01*
X141580226Y-104943937D01*
X141749744Y-105057205D01*
X141938102Y-105135226D01*
X142127359Y-105172871D01*
X142708108Y-105753621D01*
X142541898Y-105684774D01*
X142341939Y-105645000D01*
X142138061Y-105645000D01*
X141938102Y-105684774D01*
X141749744Y-105762795D01*
X141580226Y-105876063D01*
X141436063Y-106020226D01*
X141322795Y-106189744D01*
X141244774Y-106378102D01*
X141205000Y-106578061D01*
X141205000Y-106781939D01*
X141244774Y-106981898D01*
X141322795Y-107170256D01*
X141436063Y-107339774D01*
X141580226Y-107483937D01*
X141749744Y-107597205D01*
X141938102Y-107675226D01*
X142127359Y-107712871D01*
X142708108Y-108293621D01*
X142541898Y-108224774D01*
X142341939Y-108185000D01*
X142138061Y-108185000D01*
X141938102Y-108224774D01*
X141749744Y-108302795D01*
X141580226Y-108416063D01*
X141436063Y-108560226D01*
X141322795Y-108729744D01*
X141244774Y-108918102D01*
X141205000Y-109118061D01*
X141205000Y-109321939D01*
X141244774Y-109521898D01*
X141322795Y-109710256D01*
X141436063Y-109879774D01*
X141580226Y-110023937D01*
X141749744Y-110137205D01*
X141938102Y-110215226D01*
X142127359Y-110252871D01*
X142708109Y-110833621D01*
X142541898Y-110764774D01*
X142341939Y-110725000D01*
X142138061Y-110725000D01*
X141938102Y-110764774D01*
X141749744Y-110842795D01*
X141580226Y-110956063D01*
X141436063Y-111100226D01*
X141322795Y-111269744D01*
X141244774Y-111458102D01*
X141205000Y-111658061D01*
X141205000Y-111861939D01*
X141244774Y-112061898D01*
X141322795Y-112250256D01*
X141436063Y-112419774D01*
X141580226Y-112563937D01*
X141749744Y-112677205D01*
X141938102Y-112755226D01*
X142127359Y-112792871D01*
X142423492Y-113089005D01*
X142423492Y-113281222D01*
X142341939Y-113265000D01*
X142138061Y-113265000D01*
X141938102Y-113304774D01*
X141749744Y-113382795D01*
X141580226Y-113496063D01*
X141436063Y-113640226D01*
X141322795Y-113809744D01*
X141244774Y-113998102D01*
X141205000Y-114198061D01*
X141205000Y-114401939D01*
X141244774Y-114601898D01*
X141322795Y-114790256D01*
X141430000Y-114950700D01*
X141430001Y-116189293D01*
X141322795Y-116349738D01*
X141244774Y-116538096D01*
X141205000Y-116738055D01*
X141205000Y-116941933D01*
X141244774Y-117141892D01*
X141322795Y-117330250D01*
X141436063Y-117499768D01*
X141580226Y-117643931D01*
X141749744Y-117757199D01*
X141938102Y-117835220D01*
X142138061Y-117874994D01*
X142278899Y-117874994D01*
X142303754Y-117935000D01*
X127970513Y-117935000D01*
X126747649Y-116712136D01*
X126766440Y-116702092D01*
X126972765Y-116532765D01*
X127142092Y-116326440D01*
X127267914Y-116091045D01*
X127345394Y-115835626D01*
X127371556Y-115570000D01*
X127345394Y-115304374D01*
X127267914Y-115048955D01*
X127142092Y-114813560D01*
X126972765Y-114607235D01*
X126766440Y-114437908D01*
X126531045Y-114312086D01*
X126491203Y-114300000D01*
X126531045Y-114287914D01*
X126766440Y-114162092D01*
X126972765Y-113992765D01*
X127142092Y-113786440D01*
X127267914Y-113551045D01*
X127345394Y-113295626D01*
X127371556Y-113030000D01*
X127345394Y-112764374D01*
X127267914Y-112508955D01*
X127142092Y-112273560D01*
X126972765Y-112067235D01*
X126766440Y-111897908D01*
X126531045Y-111772086D01*
X126491203Y-111760000D01*
X126531045Y-111747914D01*
X126766440Y-111622092D01*
X126972765Y-111452765D01*
X127142092Y-111246440D01*
X127267914Y-111011045D01*
X127345394Y-110755626D01*
X127371556Y-110490000D01*
X127345394Y-110224374D01*
X127267914Y-109968955D01*
X127142092Y-109733560D01*
X126972765Y-109527235D01*
X126766440Y-109357908D01*
X126531045Y-109232086D01*
X126491203Y-109220000D01*
X126531045Y-109207914D01*
X126766440Y-109082092D01*
X126972765Y-108912765D01*
X127142092Y-108706440D01*
X127267914Y-108471045D01*
X127345394Y-108215626D01*
X127371556Y-107950000D01*
X127345394Y-107684374D01*
X127267914Y-107428955D01*
X127142092Y-107193560D01*
X126972765Y-106987235D01*
X126766440Y-106817908D01*
X126531045Y-106692086D01*
X126491203Y-106680000D01*
X126531045Y-106667914D01*
X126766440Y-106542092D01*
X126972765Y-106372765D01*
X127142092Y-106166440D01*
X127267914Y-105931045D01*
X127345394Y-105675626D01*
X127371556Y-105410000D01*
X127345394Y-105144374D01*
X127267914Y-104888955D01*
X127142092Y-104653560D01*
X126972765Y-104447235D01*
X126766440Y-104277908D01*
X126531045Y-104152086D01*
X126491203Y-104140000D01*
X126531045Y-104127914D01*
X126766440Y-104002092D01*
X126972765Y-103832765D01*
X127142092Y-103626440D01*
X127267914Y-103391045D01*
X127345394Y-103135626D01*
X127371556Y-102870000D01*
X127345394Y-102604374D01*
X127267914Y-102348955D01*
X127142092Y-102113560D01*
X126972765Y-101907235D01*
X126766440Y-101737908D01*
X126531045Y-101612086D01*
X126491203Y-101600000D01*
X126531045Y-101587914D01*
X126766440Y-101462092D01*
X126972765Y-101292765D01*
X127142092Y-101086440D01*
X127267914Y-100851045D01*
X127345394Y-100595626D01*
X127371556Y-100330000D01*
X127345394Y-100064374D01*
X127267914Y-99808955D01*
X127142092Y-99573560D01*
X126972765Y-99367235D01*
X126766440Y-99197908D01*
X126531045Y-99072086D01*
X126491203Y-99060000D01*
X126531045Y-99047914D01*
X126766440Y-98922092D01*
X126972765Y-98752765D01*
X127142092Y-98546440D01*
X127267914Y-98311045D01*
X127345394Y-98055626D01*
X127371556Y-97790000D01*
X127345394Y-97524374D01*
X127267914Y-97268955D01*
X127142092Y-97033560D01*
X126972765Y-96827235D01*
X126766440Y-96657908D01*
X126531045Y-96532086D01*
X126491203Y-96520000D01*
X126531045Y-96507914D01*
X126766440Y-96382092D01*
X126972765Y-96212765D01*
X127142092Y-96006440D01*
X127267914Y-95771045D01*
X127345394Y-95515626D01*
X127371556Y-95250000D01*
X127345394Y-94984374D01*
X127267914Y-94728955D01*
X127142092Y-94493560D01*
X126972765Y-94287235D01*
X126766440Y-94117908D01*
X126531045Y-93992086D01*
X126491203Y-93980000D01*
X126531045Y-93967914D01*
X126766440Y-93842092D01*
X126972765Y-93672765D01*
X127142092Y-93466440D01*
X127267914Y-93231045D01*
X127345394Y-92975626D01*
X127371556Y-92710000D01*
X127345394Y-92444374D01*
X127267914Y-92188955D01*
X127142092Y-91953560D01*
X126972765Y-91747235D01*
X126766440Y-91577908D01*
X126531045Y-91452086D01*
X126491203Y-91440000D01*
X126531045Y-91427914D01*
X126766440Y-91302092D01*
X126972765Y-91132765D01*
X127142092Y-90926440D01*
X127267914Y-90691045D01*
X127345394Y-90435626D01*
X127371556Y-90170000D01*
X127345394Y-89904374D01*
X127267914Y-89648955D01*
X127142092Y-89413560D01*
X126972765Y-89207235D01*
X126766440Y-89037908D01*
X126673204Y-88988072D01*
X126730000Y-88988072D01*
X126854482Y-88975812D01*
X126974180Y-88939502D01*
X127084494Y-88880537D01*
X127181185Y-88801185D01*
X127260537Y-88704494D01*
X127319502Y-88594180D01*
X127355812Y-88474482D01*
X127368072Y-88350000D01*
X127368072Y-86910000D01*
X127355812Y-86785518D01*
X127319502Y-86665820D01*
X127260537Y-86555506D01*
X127181185Y-86458815D01*
X127084494Y-86379463D01*
X126974180Y-86320498D01*
X126854482Y-86284188D01*
X126730000Y-86271928D01*
X124730000Y-86271928D01*
X124605518Y-86284188D01*
X124485820Y-86320498D01*
X124375506Y-86379463D01*
X124278815Y-86458815D01*
X124199463Y-86555506D01*
X124140498Y-86665820D01*
X124104188Y-86785518D01*
X124091928Y-86910000D01*
X124091928Y-88350000D01*
X124104188Y-88474482D01*
X124140498Y-88594180D01*
X124199463Y-88704494D01*
X124278815Y-88801185D01*
X124375506Y-88880537D01*
X124485820Y-88939502D01*
X124605518Y-88975812D01*
X124730000Y-88988072D01*
X124786796Y-88988072D01*
X124693560Y-89037908D01*
X124487235Y-89207235D01*
X124317908Y-89413560D01*
X124192086Y-89648955D01*
X124114606Y-89904374D01*
X124088444Y-90170000D01*
X124114606Y-90435626D01*
X124192086Y-90691045D01*
X124317908Y-90926440D01*
X124487235Y-91132765D01*
X124693560Y-91302092D01*
X124928955Y-91427914D01*
X124968797Y-91440000D01*
X124928955Y-91452086D01*
X124693560Y-91577908D01*
X124487235Y-91747235D01*
X124317908Y-91953560D01*
X124192086Y-92188955D01*
X124114606Y-92444374D01*
X124088444Y-92710000D01*
X124114606Y-92975626D01*
X124192086Y-93231045D01*
X124317908Y-93466440D01*
X124487235Y-93672765D01*
X124693560Y-93842092D01*
X124928955Y-93967914D01*
X124968797Y-93980000D01*
X124928955Y-93992086D01*
X124693560Y-94117908D01*
X124487235Y-94287235D01*
X124317908Y-94493560D01*
X124192086Y-94728955D01*
X124114606Y-94984374D01*
X124088444Y-95250000D01*
X124114606Y-95515626D01*
X124192086Y-95771045D01*
X124317908Y-96006440D01*
X124487235Y-96212765D01*
X124693560Y-96382092D01*
X124928955Y-96507914D01*
X124968797Y-96520000D01*
X124928955Y-96532086D01*
X124693560Y-96657908D01*
X124487235Y-96827235D01*
X124317908Y-97033560D01*
X124192086Y-97268955D01*
X124114606Y-97524374D01*
X124088444Y-97790000D01*
X124114606Y-98055626D01*
X124192086Y-98311045D01*
X124317908Y-98546440D01*
X124487235Y-98752765D01*
X124693560Y-98922092D01*
X124928955Y-99047914D01*
X124968797Y-99060000D01*
X124928955Y-99072086D01*
X124693560Y-99197908D01*
X124487235Y-99367235D01*
X124363768Y-99517680D01*
X124340211Y-99520000D01*
X124340209Y-99520000D01*
X124221212Y-99531720D01*
X124068527Y-99578037D01*
X124018794Y-99604620D01*
X123927810Y-99653251D01*
X123872210Y-99698881D01*
X123804472Y-99754472D01*
X123779107Y-99785380D01*
X121375383Y-102189105D01*
X121344473Y-102214472D01*
X121319108Y-102245380D01*
X121243251Y-102337811D01*
X121200491Y-102417811D01*
X121168038Y-102478527D01*
X121129863Y-102604374D01*
X121121721Y-102631213D01*
X121106081Y-102790000D01*
X107340000Y-102790000D01*
X107340000Y-76232279D01*
X107377388Y-75850961D01*
X153548096Y-75850961D01*
X153670085Y-76073000D01*
X154633394Y-76073000D01*
X154850197Y-76289803D01*
X154869443Y-76305597D01*
X154891399Y-76317333D01*
X154915224Y-76324560D01*
X154940000Y-76327000D01*
X154964776Y-76324560D01*
X154988601Y-76317333D01*
X155010557Y-76305597D01*
X155029803Y-76289803D01*
X155246606Y-76073000D01*
X156209915Y-76073000D01*
X156331904Y-75850961D01*
X156291246Y-75716913D01*
X156171037Y-75462580D01*
X156003519Y-75236586D01*
X155795131Y-75047615D01*
X155553881Y-74902930D01*
X155289040Y-74808091D01*
X155100619Y-74911013D01*
X155029803Y-74840197D01*
X155010557Y-74824403D01*
X154988601Y-74812667D01*
X154964776Y-74805440D01*
X154940000Y-74803000D01*
X154915224Y-74805440D01*
X154891399Y-74812667D01*
X154869443Y-74824403D01*
X154850197Y-74840197D01*
X154779381Y-74911013D01*
X154590960Y-74808091D01*
X154326119Y-74902930D01*
X154084869Y-75047615D01*
X153876481Y-75236586D01*
X153708963Y-75462580D01*
X153588754Y-75716913D01*
X153548096Y-75850961D01*
X107377388Y-75850961D01*
X107378909Y-75835455D01*
X107484780Y-75484792D01*
X107656744Y-75161375D01*
X107888254Y-74877516D01*
X108170486Y-74644035D01*
X108492695Y-74469817D01*
X108842614Y-74361498D01*
X109237443Y-74320000D01*
X182847721Y-74320000D01*
X183244545Y-74358909D01*
%TA.AperFunction,Conductor*%
D18*
G36*
X183244545Y-74358909D02*
G01*
X183595208Y-74464780D01*
X183918625Y-74636744D01*
X184202484Y-74868254D01*
X184435965Y-75150486D01*
X184610183Y-75472695D01*
X184718502Y-75822614D01*
X184760000Y-76217443D01*
X184760001Y-124427711D01*
X184721091Y-124824545D01*
X184615220Y-125175206D01*
X184443257Y-125498623D01*
X184211748Y-125782482D01*
X183929514Y-126015965D01*
X183607304Y-126190184D01*
X183257385Y-126298502D01*
X182862557Y-126340000D01*
X109252279Y-126340000D01*
X108855455Y-126301091D01*
X108504794Y-126195220D01*
X108181377Y-126023257D01*
X107897518Y-125791748D01*
X107664035Y-125509514D01*
X107489816Y-125187304D01*
X107381498Y-124837385D01*
X107340000Y-124442557D01*
X107340000Y-102790000D01*
X121106081Y-102790000D01*
X121110001Y-102829798D01*
X121110000Y-121245212D01*
X121106081Y-121285000D01*
X121110000Y-121324788D01*
X121110000Y-121324790D01*
X121121720Y-121443787D01*
X121168037Y-121596472D01*
X121203049Y-121661975D01*
X121243251Y-121737189D01*
X121274492Y-121775256D01*
X121344472Y-121860528D01*
X121375387Y-121885899D01*
X121885388Y-122395901D01*
X121751063Y-122530226D01*
X121637795Y-122699744D01*
X121559774Y-122888102D01*
X121520000Y-123088061D01*
X121520000Y-123291939D01*
X121559774Y-123491898D01*
X121637795Y-123680256D01*
X121751063Y-123849774D01*
X121895226Y-123993937D01*
X122064744Y-124107205D01*
X122253102Y-124185226D01*
X122453061Y-124225000D01*
X122656939Y-124225000D01*
X122856898Y-124185226D01*
X123045256Y-124107205D01*
X123205700Y-124000000D01*
X151114300Y-124000000D01*
X151274744Y-124107205D01*
X151463102Y-124185226D01*
X151663061Y-124225000D01*
X151866939Y-124225000D01*
X152066898Y-124185226D01*
X152255256Y-124107205D01*
X152424774Y-123993937D01*
X152568937Y-123849774D01*
X152682205Y-123680256D01*
X152760226Y-123491898D01*
X152767138Y-123457149D01*
X152999608Y-123689619D01*
X153024975Y-123720529D01*
X153079806Y-123765527D01*
X153148313Y-123821750D01*
X153223527Y-123861952D01*
X153289030Y-123896964D01*
X153441715Y-123943281D01*
X153560712Y-123955001D01*
X153560714Y-123955001D01*
X153594564Y-123958335D01*
X153560147Y-124041426D01*
X153505000Y-124318665D01*
X153505000Y-124601335D01*
X153560147Y-124878574D01*
X153668320Y-125139727D01*
X153825363Y-125374759D01*
X154025241Y-125574637D01*
X154260273Y-125731680D01*
X154521426Y-125839853D01*
X154798665Y-125895000D01*
X155081335Y-125895000D01*
X155358574Y-125839853D01*
X155619727Y-125731680D01*
X155854759Y-125574637D01*
X156054637Y-125374759D01*
X156211680Y-125139727D01*
X156319853Y-124878574D01*
X156347890Y-124737625D01*
X156354744Y-124742205D01*
X156543102Y-124820226D01*
X156743061Y-124860000D01*
X156946939Y-124860000D01*
X157146898Y-124820226D01*
X157335256Y-124742205D01*
X157504774Y-124628937D01*
X157648937Y-124484774D01*
X157762205Y-124315256D01*
X157840226Y-124126898D01*
X157865467Y-124000000D01*
X158499483Y-124000000D01*
X158539271Y-124003919D01*
X158579059Y-124000000D01*
X158579062Y-124000000D01*
X158660634Y-123991966D01*
X158640147Y-124041426D01*
X158585000Y-124318665D01*
X158585000Y-124601335D01*
X158640147Y-124878574D01*
X158748320Y-125139727D01*
X158905363Y-125374759D01*
X159105241Y-125574637D01*
X159340273Y-125731680D01*
X159601426Y-125839853D01*
X159878665Y-125895000D01*
X160161335Y-125895000D01*
X160438574Y-125839853D01*
X160699727Y-125731680D01*
X160934759Y-125574637D01*
X161134637Y-125374759D01*
X161291680Y-125139727D01*
X161296357Y-125128435D01*
X161328963Y-125197420D01*
X161496481Y-125423414D01*
X161704869Y-125612385D01*
X161946119Y-125757070D01*
X162210960Y-125851909D01*
X162433000Y-125730624D01*
X162433000Y-124587000D01*
X162413000Y-124587000D01*
X162413000Y-124333000D01*
X162433000Y-124333000D01*
X162433000Y-124313000D01*
X162687000Y-124313000D01*
X162687000Y-124333000D01*
X162707000Y-124333000D01*
X162707000Y-124587000D01*
X162687000Y-124587000D01*
X162687000Y-125730624D01*
X162909040Y-125851909D01*
X163173881Y-125757070D01*
X163415131Y-125612385D01*
X163623519Y-125423414D01*
X163791037Y-125197420D01*
X163823643Y-125128435D01*
X163828320Y-125139727D01*
X163985363Y-125374759D01*
X164185241Y-125574637D01*
X164420273Y-125731680D01*
X164681426Y-125839853D01*
X164958665Y-125895000D01*
X165241335Y-125895000D01*
X165518574Y-125839853D01*
X165779727Y-125731680D01*
X166014759Y-125574637D01*
X166214637Y-125374759D01*
X166371680Y-125139727D01*
X166479853Y-124878574D01*
X166535000Y-124601335D01*
X166535000Y-124318665D01*
X166479853Y-124041426D01*
X166371680Y-123780273D01*
X166214637Y-123545241D01*
X166034396Y-123365000D01*
X167939488Y-123365000D01*
X168769580Y-124195093D01*
X168745000Y-124318665D01*
X168745000Y-124601335D01*
X168800147Y-124878574D01*
X168908320Y-125139727D01*
X169065363Y-125374759D01*
X169265241Y-125574637D01*
X169500273Y-125731680D01*
X169761426Y-125839853D01*
X170038665Y-125895000D01*
X170321335Y-125895000D01*
X170598574Y-125839853D01*
X170859727Y-125731680D01*
X171094759Y-125574637D01*
X171294637Y-125374759D01*
X171451680Y-125139727D01*
X171559853Y-124878574D01*
X171615000Y-124601335D01*
X171615000Y-124318665D01*
X171559853Y-124041426D01*
X171451680Y-123780273D01*
X171294637Y-123545241D01*
X171094759Y-123345363D01*
X170862241Y-123190000D01*
X171094759Y-123034637D01*
X171294637Y-122834759D01*
X171451680Y-122599727D01*
X171559853Y-122338574D01*
X171615000Y-122061335D01*
X171615000Y-121778665D01*
X171559853Y-121501426D01*
X171451680Y-121240273D01*
X171294637Y-121005241D01*
X171094759Y-120805363D01*
X170862241Y-120650000D01*
X171094759Y-120494637D01*
X171294637Y-120294759D01*
X171451680Y-120059727D01*
X171559853Y-119798574D01*
X171615000Y-119521335D01*
X171615000Y-119238665D01*
X171559853Y-118961426D01*
X171451680Y-118700273D01*
X171294637Y-118465241D01*
X171094759Y-118265363D01*
X170862241Y-118110000D01*
X171094759Y-117954637D01*
X171294637Y-117754759D01*
X171451680Y-117519727D01*
X171559853Y-117258574D01*
X171615000Y-116981335D01*
X171615000Y-116698665D01*
X171559853Y-116421426D01*
X171451680Y-116160273D01*
X171294637Y-115925241D01*
X171094759Y-115725363D01*
X170862241Y-115570000D01*
X171094759Y-115414637D01*
X171294637Y-115214759D01*
X171451680Y-114979727D01*
X171559853Y-114718574D01*
X171615000Y-114441335D01*
X171615000Y-114158665D01*
X171559853Y-113881426D01*
X171451680Y-113620273D01*
X171294637Y-113385241D01*
X171094759Y-113185363D01*
X170862241Y-113030000D01*
X171094759Y-112874637D01*
X171294637Y-112674759D01*
X171451680Y-112439727D01*
X171559853Y-112178574D01*
X171615000Y-111901335D01*
X171615000Y-111618665D01*
X171559853Y-111341426D01*
X171451680Y-111080273D01*
X171294637Y-110845241D01*
X171094759Y-110645363D01*
X170862241Y-110490000D01*
X171094759Y-110334637D01*
X171294637Y-110134759D01*
X171451680Y-109899727D01*
X171559853Y-109638574D01*
X171615000Y-109361335D01*
X171615000Y-109078665D01*
X171559853Y-108801426D01*
X171451680Y-108540273D01*
X171294637Y-108305241D01*
X171094759Y-108105363D01*
X170862241Y-107950000D01*
X171094759Y-107794637D01*
X171294637Y-107594759D01*
X171451680Y-107359727D01*
X171559853Y-107098574D01*
X171615000Y-106821335D01*
X171615000Y-106538665D01*
X171559853Y-106261426D01*
X171451680Y-106000273D01*
X171294637Y-105765241D01*
X171094759Y-105565363D01*
X170862241Y-105410000D01*
X171094759Y-105254637D01*
X171294637Y-105054759D01*
X171451680Y-104819727D01*
X171559853Y-104558574D01*
X171615000Y-104281335D01*
X171615000Y-103998665D01*
X171559853Y-103721426D01*
X171451680Y-103460273D01*
X171294637Y-103225241D01*
X171094759Y-103025363D01*
X170859727Y-102868320D01*
X170849135Y-102863933D01*
X171035131Y-102752385D01*
X171243519Y-102563414D01*
X171411037Y-102337420D01*
X171531246Y-102083087D01*
X171571904Y-101949039D01*
X171449915Y-101727000D01*
X170307000Y-101727000D01*
X170307000Y-101747000D01*
X170053000Y-101747000D01*
X170053000Y-101727000D01*
X170033000Y-101727000D01*
X170033000Y-101473000D01*
X170053000Y-101473000D01*
X170053000Y-101453000D01*
X170307000Y-101453000D01*
X170307000Y-101473000D01*
X171449915Y-101473000D01*
X171571904Y-101250961D01*
X171531246Y-101116913D01*
X171411037Y-100862580D01*
X171243519Y-100636586D01*
X171035131Y-100447615D01*
X170849135Y-100336067D01*
X170859727Y-100331680D01*
X171094759Y-100174637D01*
X171294637Y-99974759D01*
X171451680Y-99739727D01*
X171559853Y-99478574D01*
X171615000Y-99201335D01*
X171615000Y-98918665D01*
X171559853Y-98641426D01*
X171451680Y-98380273D01*
X171294637Y-98145241D01*
X171094759Y-97945363D01*
X170862241Y-97790000D01*
X171094759Y-97634637D01*
X171294637Y-97434759D01*
X171451680Y-97199727D01*
X171559853Y-96938574D01*
X171615000Y-96661335D01*
X171615000Y-96378665D01*
X171559853Y-96101426D01*
X171451680Y-95840273D01*
X171294637Y-95605241D01*
X171094759Y-95405363D01*
X170862241Y-95250000D01*
X171094759Y-95094637D01*
X171294637Y-94894759D01*
X171451680Y-94659727D01*
X171559853Y-94398574D01*
X171615000Y-94121335D01*
X171615000Y-93838665D01*
X171559853Y-93561426D01*
X171451680Y-93300273D01*
X171294637Y-93065241D01*
X171094759Y-92865363D01*
X170862241Y-92710000D01*
X171094759Y-92554637D01*
X171294637Y-92354759D01*
X171451680Y-92119727D01*
X171559853Y-91858574D01*
X171615000Y-91581335D01*
X171615000Y-91298665D01*
X171559853Y-91021426D01*
X171451680Y-90760273D01*
X171294637Y-90525241D01*
X171094759Y-90325363D01*
X170862241Y-90170000D01*
X171094759Y-90014637D01*
X171294637Y-89814759D01*
X171451680Y-89579727D01*
X171559853Y-89318574D01*
X171615000Y-89041335D01*
X171615000Y-88758665D01*
X171559853Y-88481426D01*
X171451680Y-88220273D01*
X171294637Y-87985241D01*
X171094759Y-87785363D01*
X170862241Y-87630000D01*
X171094759Y-87474637D01*
X171294637Y-87274759D01*
X171451680Y-87039727D01*
X171559853Y-86778574D01*
X171615000Y-86501335D01*
X171615000Y-86218665D01*
X171559853Y-85941426D01*
X171451680Y-85680273D01*
X171294637Y-85445241D01*
X171094759Y-85245363D01*
X170862241Y-85090000D01*
X171094759Y-84934637D01*
X171294637Y-84734759D01*
X171451680Y-84499727D01*
X171559853Y-84238574D01*
X171615000Y-83961335D01*
X171615000Y-83678665D01*
X171559853Y-83401426D01*
X171451680Y-83140273D01*
X171294637Y-82905241D01*
X171094759Y-82705363D01*
X170862241Y-82550000D01*
X171094759Y-82394637D01*
X171294637Y-82194759D01*
X171451680Y-81959727D01*
X171559853Y-81698574D01*
X171615000Y-81421335D01*
X171615000Y-81138665D01*
X171559853Y-80861426D01*
X171451680Y-80600273D01*
X171294637Y-80365241D01*
X171094759Y-80165363D01*
X170862241Y-80010000D01*
X171094759Y-79854637D01*
X171294637Y-79654759D01*
X171451680Y-79419727D01*
X171559853Y-79158574D01*
X171615000Y-78881335D01*
X171615000Y-78598665D01*
X171559853Y-78321426D01*
X171451680Y-78060273D01*
X171294637Y-77825241D01*
X171094759Y-77625363D01*
X170862241Y-77470000D01*
X171094759Y-77314637D01*
X171294637Y-77114759D01*
X171451680Y-76879727D01*
X171559853Y-76618574D01*
X171615000Y-76341335D01*
X171615000Y-76058665D01*
X171559853Y-75781426D01*
X171451680Y-75520273D01*
X171294637Y-75285241D01*
X171094759Y-75085363D01*
X170859727Y-74928320D01*
X170598574Y-74820147D01*
X170321335Y-74765000D01*
X170038665Y-74765000D01*
X169761426Y-74820147D01*
X169500273Y-74928320D01*
X169265241Y-75085363D01*
X169065363Y-75285241D01*
X169045479Y-75315000D01*
X168953469Y-75315000D01*
X168910000Y-75310719D01*
X168866531Y-75315000D01*
X168866523Y-75315000D01*
X168736510Y-75327805D01*
X168569686Y-75378411D01*
X168415941Y-75460589D01*
X168314953Y-75543468D01*
X168314951Y-75543470D01*
X168281183Y-75571183D01*
X168253470Y-75604951D01*
X167679956Y-76178466D01*
X167646183Y-76206183D01*
X167535589Y-76340942D01*
X167453411Y-76494688D01*
X167438086Y-76545208D01*
X167402805Y-76661510D01*
X167401975Y-76669934D01*
X167394551Y-76745317D01*
X160184869Y-83955000D01*
X156375000Y-83955000D01*
X156375000Y-83678665D01*
X156319853Y-83401426D01*
X156211680Y-83140273D01*
X156054637Y-82905241D01*
X155854759Y-82705363D01*
X155622241Y-82550000D01*
X155854759Y-82394637D01*
X156054637Y-82194759D01*
X156211680Y-81959727D01*
X156319853Y-81698574D01*
X156375000Y-81421335D01*
X156375000Y-81138665D01*
X156319853Y-80861426D01*
X156211680Y-80600273D01*
X156054637Y-80365241D01*
X155854759Y-80165363D01*
X155622241Y-80010000D01*
X155854759Y-79854637D01*
X156054637Y-79654759D01*
X156211680Y-79419727D01*
X156319853Y-79158574D01*
X156375000Y-78881335D01*
X156375000Y-78598665D01*
X156319853Y-78321426D01*
X156211680Y-78060273D01*
X156054637Y-77825241D01*
X155854759Y-77625363D01*
X155619727Y-77468320D01*
X155609135Y-77463933D01*
X155795131Y-77352385D01*
X156003519Y-77163414D01*
X156171037Y-76937420D01*
X156291246Y-76683087D01*
X156331904Y-76549039D01*
X156209915Y-76327000D01*
X155067000Y-76327000D01*
X155067000Y-76347000D01*
X154813000Y-76347000D01*
X154813000Y-76327000D01*
X153670085Y-76327000D01*
X153548096Y-76549039D01*
X153588754Y-76683087D01*
X153708963Y-76937420D01*
X153876481Y-77163414D01*
X154084869Y-77352385D01*
X154270865Y-77463933D01*
X154260273Y-77468320D01*
X154025241Y-77625363D01*
X153825363Y-77825241D01*
X153668320Y-78060273D01*
X153560147Y-78321426D01*
X153505000Y-78598665D01*
X153505000Y-78881335D01*
X153560147Y-79158574D01*
X153668320Y-79419727D01*
X153825363Y-79654759D01*
X154025241Y-79854637D01*
X154257759Y-80010000D01*
X154025241Y-80165363D01*
X153825363Y-80365241D01*
X153668320Y-80600273D01*
X153560147Y-80861426D01*
X153505000Y-81138665D01*
X153505000Y-81421335D01*
X153560147Y-81698574D01*
X153668320Y-81959727D01*
X153825363Y-82194759D01*
X154025241Y-82394637D01*
X154257759Y-82550000D01*
X154025241Y-82705363D01*
X153825363Y-82905241D01*
X153668320Y-83140273D01*
X153560147Y-83401426D01*
X153505000Y-83678665D01*
X153505000Y-83955000D01*
X135834248Y-83955000D01*
X135667501Y-83971423D01*
X135453553Y-84036324D01*
X135256377Y-84141716D01*
X135179265Y-84205000D01*
X134028469Y-84205000D01*
X133985000Y-84200719D01*
X133941531Y-84205000D01*
X133941523Y-84205000D01*
X133811510Y-84217805D01*
X133644686Y-84268411D01*
X133490941Y-84350589D01*
X133389953Y-84433468D01*
X133389951Y-84433470D01*
X133356183Y-84461183D01*
X133328470Y-84494951D01*
X132754951Y-85068471D01*
X132721184Y-85096183D01*
X132693471Y-85129951D01*
X132693468Y-85129954D01*
X132610590Y-85230941D01*
X132528412Y-85384687D01*
X132477805Y-85551510D01*
X132460719Y-85725000D01*
X132465001Y-85768479D01*
X132465001Y-86416961D01*
X132313560Y-86497908D01*
X132107235Y-86667235D01*
X131937908Y-86873560D01*
X131812086Y-87108955D01*
X131734606Y-87364374D01*
X131708444Y-87630000D01*
X131734606Y-87895626D01*
X131812086Y-88151045D01*
X131937908Y-88386440D01*
X132107235Y-88592765D01*
X132313560Y-88762092D01*
X132548955Y-88887914D01*
X132588797Y-88900000D01*
X132548955Y-88912086D01*
X132313560Y-89037908D01*
X132107235Y-89207235D01*
X131937908Y-89413560D01*
X131812086Y-89648955D01*
X131734606Y-89904374D01*
X131708444Y-90170000D01*
X131734606Y-90435626D01*
X131812086Y-90691045D01*
X131937908Y-90926440D01*
X132107235Y-91132765D01*
X132313560Y-91302092D01*
X132548955Y-91427914D01*
X132588797Y-91440000D01*
X132548955Y-91452086D01*
X132313560Y-91577908D01*
X132107235Y-91747235D01*
X131937908Y-91953560D01*
X131812086Y-92188955D01*
X131734606Y-92444374D01*
X131708444Y-92710000D01*
X131734606Y-92975626D01*
X131812086Y-93231045D01*
X131937908Y-93466440D01*
X132107235Y-93672765D01*
X132313560Y-93842092D01*
X132548955Y-93967914D01*
X132588797Y-93980000D01*
X132548955Y-93992086D01*
X132313560Y-94117908D01*
X132107235Y-94287235D01*
X131937908Y-94493560D01*
X131812086Y-94728955D01*
X131734606Y-94984374D01*
X131708444Y-95250000D01*
X131734606Y-95515626D01*
X131812086Y-95771045D01*
X131937908Y-96006440D01*
X132107235Y-96212765D01*
X132313560Y-96382092D01*
X132548955Y-96507914D01*
X132588797Y-96520000D01*
X132548955Y-96532086D01*
X132313560Y-96657908D01*
X132107235Y-96827235D01*
X131937908Y-97033560D01*
X131812086Y-97268955D01*
X131734606Y-97524374D01*
X131708444Y-97790000D01*
X131734606Y-98055626D01*
X131812086Y-98311045D01*
X131937908Y-98546440D01*
X132107235Y-98752765D01*
X132313560Y-98922092D01*
X132548955Y-99047914D01*
X132588797Y-99060000D01*
X132548955Y-99072086D01*
X132313560Y-99197908D01*
X132107235Y-99367235D01*
X131937908Y-99573560D01*
X131812086Y-99808955D01*
X131734606Y-100064374D01*
X131708444Y-100330000D01*
X131734606Y-100595626D01*
X131812086Y-100851045D01*
X131937908Y-101086440D01*
X132107235Y-101292765D01*
X132313560Y-101462092D01*
X132548955Y-101587914D01*
X132588797Y-101600000D01*
X132548955Y-101612086D01*
X132313560Y-101737908D01*
X132107235Y-101907235D01*
X131937908Y-102113560D01*
X131812086Y-102348955D01*
X131734606Y-102604374D01*
X131708444Y-102870000D01*
X131734606Y-103135626D01*
X131812086Y-103391045D01*
X131937908Y-103626440D01*
X132107235Y-103832765D01*
X132313560Y-104002092D01*
X132548955Y-104127914D01*
X132588797Y-104140000D01*
X132548955Y-104152086D01*
X132313560Y-104277908D01*
X132107235Y-104447235D01*
X131937908Y-104653560D01*
X131812086Y-104888955D01*
X131734606Y-105144374D01*
X131708444Y-105410000D01*
X131734606Y-105675626D01*
X131812086Y-105931045D01*
X131937908Y-106166440D01*
X132107235Y-106372765D01*
X132313560Y-106542092D01*
X132548955Y-106667914D01*
X132588797Y-106680000D01*
X132548955Y-106692086D01*
X132313560Y-106817908D01*
X132107235Y-106987235D01*
X131937908Y-107193560D01*
X131812086Y-107428955D01*
X131734606Y-107684374D01*
X131708444Y-107950000D01*
X131734606Y-108215626D01*
X131812086Y-108471045D01*
X131937908Y-108706440D01*
X132107235Y-108912765D01*
X132313560Y-109082092D01*
X132548955Y-109207914D01*
X132588797Y-109220000D01*
X132548955Y-109232086D01*
X132313560Y-109357908D01*
X132107235Y-109527235D01*
X131937908Y-109733560D01*
X131812086Y-109968955D01*
X131734606Y-110224374D01*
X131708444Y-110490000D01*
X131734606Y-110755626D01*
X131812086Y-111011045D01*
X131937908Y-111246440D01*
X132107235Y-111452765D01*
X132313560Y-111622092D01*
X132548955Y-111747914D01*
X132588797Y-111760000D01*
X132548955Y-111772086D01*
X132313560Y-111897908D01*
X132107235Y-112067235D01*
X131937908Y-112273560D01*
X131812086Y-112508955D01*
X131734606Y-112764374D01*
X131708444Y-113030000D01*
X131734606Y-113295626D01*
X131812086Y-113551045D01*
X131937908Y-113786440D01*
X132107235Y-113992765D01*
X132313560Y-114162092D01*
X132548955Y-114287914D01*
X132588797Y-114300000D01*
X132548955Y-114312086D01*
X132313560Y-114437908D01*
X132107235Y-114607235D01*
X131937908Y-114813560D01*
X131812086Y-115048955D01*
X131734606Y-115304374D01*
X131708444Y-115570000D01*
X131734606Y-115835626D01*
X131812086Y-116091045D01*
X131937908Y-116326440D01*
X132107235Y-116532765D01*
X132313560Y-116702092D01*
X132548955Y-116827914D01*
X132804374Y-116905394D01*
X133003436Y-116925000D01*
X133696564Y-116925000D01*
X133895626Y-116905394D01*
X134151045Y-116827914D01*
X134386440Y-116702092D01*
X134592765Y-116532765D01*
X134762092Y-116326440D01*
X134887914Y-116091045D01*
X134965394Y-115835626D01*
X134991556Y-115570000D01*
X134965394Y-115304374D01*
X134887914Y-115048955D01*
X134762092Y-114813560D01*
X134592765Y-114607235D01*
X134386440Y-114437908D01*
X134151045Y-114312086D01*
X134111203Y-114300000D01*
X134151045Y-114287914D01*
X134386440Y-114162092D01*
X134592765Y-113992765D01*
X134762092Y-113786440D01*
X134887914Y-113551045D01*
X134965394Y-113295626D01*
X134991556Y-113030000D01*
X134965394Y-112764374D01*
X134887914Y-112508955D01*
X134762092Y-112273560D01*
X134592765Y-112067235D01*
X134386440Y-111897908D01*
X134151045Y-111772086D01*
X134111203Y-111760000D01*
X134151045Y-111747914D01*
X134386440Y-111622092D01*
X134592765Y-111452765D01*
X134762092Y-111246440D01*
X134887914Y-111011045D01*
X134965394Y-110755626D01*
X134991556Y-110490000D01*
X134965394Y-110224374D01*
X134887914Y-109968955D01*
X134762092Y-109733560D01*
X134592765Y-109527235D01*
X134386440Y-109357908D01*
X134151045Y-109232086D01*
X134111203Y-109220000D01*
X134151045Y-109207914D01*
X134386440Y-109082092D01*
X134592765Y-108912765D01*
X134762092Y-108706440D01*
X134887914Y-108471045D01*
X134965394Y-108215626D01*
X134991556Y-107950000D01*
X134965394Y-107684374D01*
X134887914Y-107428955D01*
X134762092Y-107193560D01*
X134592765Y-106987235D01*
X134386440Y-106817908D01*
X134151045Y-106692086D01*
X134111203Y-106680000D01*
X134151045Y-106667914D01*
X134386440Y-106542092D01*
X134592765Y-106372765D01*
X134762092Y-106166440D01*
X134887914Y-105931045D01*
X134965394Y-105675626D01*
X134991556Y-105410000D01*
X134965394Y-105144374D01*
X134887914Y-104888955D01*
X134762092Y-104653560D01*
X134592765Y-104447235D01*
X134386440Y-104277908D01*
X134151045Y-104152086D01*
X134111203Y-104140000D01*
X134151045Y-104127914D01*
X134386440Y-104002092D01*
X134592765Y-103832765D01*
X134762092Y-103626440D01*
X134887914Y-103391045D01*
X134965394Y-103135626D01*
X134991556Y-102870000D01*
X134965394Y-102604374D01*
X134887914Y-102348955D01*
X134762092Y-102113560D01*
X134592765Y-101907235D01*
X134386440Y-101737908D01*
X134151045Y-101612086D01*
X134111203Y-101600000D01*
X134151045Y-101587914D01*
X134386440Y-101462092D01*
X134592765Y-101292765D01*
X134762092Y-101086440D01*
X134887914Y-100851045D01*
X134965394Y-100595626D01*
X134991556Y-100330000D01*
X134965394Y-100064374D01*
X134887914Y-99808955D01*
X134762092Y-99573560D01*
X134592765Y-99367235D01*
X134386440Y-99197908D01*
X134151045Y-99072086D01*
X134111203Y-99060000D01*
X134151045Y-99047914D01*
X134386440Y-98922092D01*
X134592765Y-98752765D01*
X134762092Y-98546440D01*
X134887914Y-98311045D01*
X134965394Y-98055626D01*
X134991556Y-97790000D01*
X134965394Y-97524374D01*
X134887914Y-97268955D01*
X134762092Y-97033560D01*
X134592765Y-96827235D01*
X134386440Y-96657908D01*
X134151045Y-96532086D01*
X134111203Y-96520000D01*
X134151045Y-96507914D01*
X134386440Y-96382092D01*
X134592765Y-96212765D01*
X134762092Y-96006440D01*
X134887914Y-95771045D01*
X134965394Y-95515626D01*
X134991556Y-95250000D01*
X134965394Y-94984374D01*
X134887914Y-94728955D01*
X134762092Y-94493560D01*
X134592765Y-94287235D01*
X134386440Y-94117908D01*
X134151045Y-93992086D01*
X134111203Y-93980000D01*
X134151045Y-93967914D01*
X134386440Y-93842092D01*
X134592765Y-93672765D01*
X134762092Y-93466440D01*
X134887914Y-93231045D01*
X134965394Y-92975626D01*
X134991556Y-92710000D01*
X134965394Y-92444374D01*
X134887914Y-92188955D01*
X134762092Y-91953560D01*
X134592765Y-91747235D01*
X134386440Y-91577908D01*
X134151045Y-91452086D01*
X134111203Y-91440000D01*
X134151045Y-91427914D01*
X134386440Y-91302092D01*
X134592765Y-91132765D01*
X134762092Y-90926440D01*
X134887914Y-90691045D01*
X134965394Y-90435626D01*
X134991556Y-90170000D01*
X134965394Y-89904374D01*
X134887914Y-89648955D01*
X134762092Y-89413560D01*
X134592765Y-89207235D01*
X134386440Y-89037908D01*
X134151045Y-88912086D01*
X134111203Y-88900000D01*
X134151045Y-88887914D01*
X134386440Y-88762092D01*
X134592765Y-88592765D01*
X134656585Y-88515000D01*
X135211531Y-88515000D01*
X135255000Y-88519281D01*
X135298469Y-88515000D01*
X135298477Y-88515000D01*
X135428490Y-88502195D01*
X135595313Y-88451589D01*
X135749059Y-88369411D01*
X135883817Y-88258817D01*
X135911534Y-88225044D01*
X136485049Y-87651530D01*
X136518817Y-87623817D01*
X136629411Y-87489059D01*
X136646809Y-87456510D01*
X136711589Y-87335314D01*
X136762195Y-87168490D01*
X136765709Y-87132812D01*
X136775000Y-87038477D01*
X136775000Y-87038469D01*
X136779281Y-86995000D01*
X136775000Y-86951531D01*
X136775000Y-86225000D01*
X153505000Y-86225000D01*
X153505000Y-86501335D01*
X153559436Y-86775001D01*
X143594786Y-86775001D01*
X143554998Y-86771082D01*
X143515210Y-86775001D01*
X143515208Y-86775001D01*
X143396211Y-86786721D01*
X143243526Y-86833038D01*
X143102810Y-86908252D01*
X142979471Y-87009473D01*
X142954106Y-87040381D01*
X142127359Y-87867129D01*
X141938102Y-87904774D01*
X141749744Y-87982795D01*
X141580226Y-88096063D01*
X141436063Y-88240226D01*
X141322795Y-88409744D01*
X141244774Y-88598102D01*
X141205000Y-88798061D01*
X141205000Y-89001939D01*
X141244774Y-89201898D01*
X141322795Y-89390256D01*
X141436063Y-89559774D01*
X141580226Y-89703937D01*
X141749744Y-89817205D01*
X141938102Y-89895226D01*
X142138061Y-89935000D01*
X142341939Y-89935000D01*
X142541898Y-89895226D01*
X142708108Y-89826379D01*
X142127359Y-90407129D01*
X141938102Y-90444774D01*
X141749744Y-90522795D01*
X141580226Y-90636063D01*
X141436063Y-90780226D01*
X141322795Y-90949744D01*
X141244774Y-91138102D01*
X141205000Y-91338061D01*
X141205000Y-91541939D01*
X141244774Y-91741898D01*
X141322795Y-91930256D01*
X141436063Y-92099774D01*
X141580226Y-92243937D01*
X141749744Y-92357205D01*
X141938102Y-92435226D01*
X142138061Y-92475000D01*
X142341939Y-92475000D01*
X142541898Y-92435226D01*
X142730256Y-92357205D01*
X142899774Y-92243937D01*
X143043937Y-92099774D01*
X143157205Y-91930256D01*
X143235226Y-91741898D01*
X143272871Y-91552641D01*
X143845513Y-90980000D01*
X153577306Y-90980000D01*
X153560147Y-91021426D01*
X153505000Y-91298665D01*
X153505000Y-91581335D01*
X153560147Y-91858574D01*
X153668320Y-92119727D01*
X153825363Y-92354759D01*
X154025241Y-92554637D01*
X154257759Y-92710000D01*
X154025241Y-92865363D01*
X153825363Y-93065241D01*
X153668320Y-93300273D01*
X153560147Y-93561426D01*
X153505000Y-93838665D01*
X153505000Y-94121335D01*
X153560147Y-94398574D01*
X153577306Y-94440000D01*
X143845513Y-94440000D01*
X143272871Y-93867359D01*
X143235226Y-93678102D01*
X143157205Y-93489744D01*
X143043937Y-93320226D01*
X142899774Y-93176063D01*
X142730256Y-93062795D01*
X142541898Y-92984774D01*
X142341939Y-92945000D01*
X142138061Y-92945000D01*
X141938102Y-92984774D01*
X141749744Y-93062795D01*
X141580226Y-93176063D01*
X141436063Y-93320226D01*
X141322795Y-93489744D01*
X141244774Y-93678102D01*
X141205000Y-93878061D01*
X141205000Y-94081939D01*
X141244774Y-94281898D01*
X141322795Y-94470256D01*
X141436063Y-94639774D01*
X141580226Y-94783937D01*
X141749744Y-94897205D01*
X141938102Y-94975226D01*
X142127359Y-95012871D01*
X142708108Y-95593621D01*
X142541898Y-95524774D01*
X142341939Y-95485000D01*
X142138061Y-95485000D01*
X141938102Y-95524774D01*
X141749744Y-95602795D01*
X141580226Y-95716063D01*
X141436063Y-95860226D01*
X141322795Y-96029744D01*
X141244774Y-96218102D01*
X141205000Y-96418061D01*
X141205000Y-96621939D01*
X141244774Y-96821898D01*
X141322795Y-97010256D01*
X141436063Y-97179774D01*
X141580226Y-97323937D01*
X141749744Y-97437205D01*
X141938102Y-97515226D01*
X142127359Y-97552871D01*
X142708108Y-98133621D01*
X142541898Y-98064774D01*
X142341939Y-98025000D01*
X142138061Y-98025000D01*
X141938102Y-98064774D01*
X141749744Y-98142795D01*
X141580226Y-98256063D01*
X141436063Y-98400226D01*
X141322795Y-98569744D01*
X141244774Y-98758102D01*
X141205000Y-98958061D01*
X141205000Y-99161939D01*
X141244774Y-99361898D01*
X141322795Y-99550256D01*
X141436063Y-99719774D01*
X141580226Y-99863937D01*
X141749744Y-99977205D01*
X141938102Y-100055226D01*
X142127359Y-100092871D01*
X142708108Y-100673621D01*
X142541898Y-100604774D01*
X142341939Y-100565000D01*
X142138061Y-100565000D01*
X141938102Y-100604774D01*
X141749744Y-100682795D01*
X141580226Y-100796063D01*
X141436063Y-100940226D01*
X141322795Y-101109744D01*
X141244774Y-101298102D01*
X141205000Y-101498061D01*
X141205000Y-101701939D01*
X141244774Y-101901898D01*
X141322795Y-102090256D01*
X141436063Y-102259774D01*
X141580226Y-102403937D01*
X141749744Y-102517205D01*
X141938102Y-102595226D01*
X142127359Y-102632871D01*
X142708108Y-103213621D01*
X142541898Y-103144774D01*
X142341939Y-103105000D01*
X142138061Y-103105000D01*
X141938102Y-103144774D01*
X141749744Y-103222795D01*
X141580226Y-103336063D01*
X141436063Y-103480226D01*
X141322795Y-103649744D01*
X141244774Y-103838102D01*
X141205000Y-104038061D01*
X141205000Y-104241939D01*
X141244774Y-104441898D01*
X141322795Y-104630256D01*
X141436063Y-104799774D01*
X141580226Y-104943937D01*
X141749744Y-105057205D01*
X141938102Y-105135226D01*
X142127359Y-105172871D01*
X142708108Y-105753621D01*
X142541898Y-105684774D01*
X142341939Y-105645000D01*
X142138061Y-105645000D01*
X141938102Y-105684774D01*
X141749744Y-105762795D01*
X141580226Y-105876063D01*
X141436063Y-106020226D01*
X141322795Y-106189744D01*
X141244774Y-106378102D01*
X141205000Y-106578061D01*
X141205000Y-106781939D01*
X141244774Y-106981898D01*
X141322795Y-107170256D01*
X141436063Y-107339774D01*
X141580226Y-107483937D01*
X141749744Y-107597205D01*
X141938102Y-107675226D01*
X142127359Y-107712871D01*
X142708108Y-108293621D01*
X142541898Y-108224774D01*
X142341939Y-108185000D01*
X142138061Y-108185000D01*
X141938102Y-108224774D01*
X141749744Y-108302795D01*
X141580226Y-108416063D01*
X141436063Y-108560226D01*
X141322795Y-108729744D01*
X141244774Y-108918102D01*
X141205000Y-109118061D01*
X141205000Y-109321939D01*
X141244774Y-109521898D01*
X141322795Y-109710256D01*
X141436063Y-109879774D01*
X141580226Y-110023937D01*
X141749744Y-110137205D01*
X141938102Y-110215226D01*
X142127359Y-110252871D01*
X142708109Y-110833621D01*
X142541898Y-110764774D01*
X142341939Y-110725000D01*
X142138061Y-110725000D01*
X141938102Y-110764774D01*
X141749744Y-110842795D01*
X141580226Y-110956063D01*
X141436063Y-111100226D01*
X141322795Y-111269744D01*
X141244774Y-111458102D01*
X141205000Y-111658061D01*
X141205000Y-111861939D01*
X141244774Y-112061898D01*
X141322795Y-112250256D01*
X141436063Y-112419774D01*
X141580226Y-112563937D01*
X141749744Y-112677205D01*
X141938102Y-112755226D01*
X142127359Y-112792871D01*
X142423492Y-113089005D01*
X142423492Y-113281222D01*
X142341939Y-113265000D01*
X142138061Y-113265000D01*
X141938102Y-113304774D01*
X141749744Y-113382795D01*
X141580226Y-113496063D01*
X141436063Y-113640226D01*
X141322795Y-113809744D01*
X141244774Y-113998102D01*
X141205000Y-114198061D01*
X141205000Y-114401939D01*
X141244774Y-114601898D01*
X141322795Y-114790256D01*
X141430000Y-114950700D01*
X141430001Y-116189293D01*
X141322795Y-116349738D01*
X141244774Y-116538096D01*
X141205000Y-116738055D01*
X141205000Y-116941933D01*
X141244774Y-117141892D01*
X141322795Y-117330250D01*
X141436063Y-117499768D01*
X141580226Y-117643931D01*
X141749744Y-117757199D01*
X141938102Y-117835220D01*
X142138061Y-117874994D01*
X142278899Y-117874994D01*
X142303754Y-117935000D01*
X127970513Y-117935000D01*
X126747649Y-116712136D01*
X126766440Y-116702092D01*
X126972765Y-116532765D01*
X127142092Y-116326440D01*
X127267914Y-116091045D01*
X127345394Y-115835626D01*
X127371556Y-115570000D01*
X127345394Y-115304374D01*
X127267914Y-115048955D01*
X127142092Y-114813560D01*
X126972765Y-114607235D01*
X126766440Y-114437908D01*
X126531045Y-114312086D01*
X126491203Y-114300000D01*
X126531045Y-114287914D01*
X126766440Y-114162092D01*
X126972765Y-113992765D01*
X127142092Y-113786440D01*
X127267914Y-113551045D01*
X127345394Y-113295626D01*
X127371556Y-113030000D01*
X127345394Y-112764374D01*
X127267914Y-112508955D01*
X127142092Y-112273560D01*
X126972765Y-112067235D01*
X126766440Y-111897908D01*
X126531045Y-111772086D01*
X126491203Y-111760000D01*
X126531045Y-111747914D01*
X126766440Y-111622092D01*
X126972765Y-111452765D01*
X127142092Y-111246440D01*
X127267914Y-111011045D01*
X127345394Y-110755626D01*
X127371556Y-110490000D01*
X127345394Y-110224374D01*
X127267914Y-109968955D01*
X127142092Y-109733560D01*
X126972765Y-109527235D01*
X126766440Y-109357908D01*
X126531045Y-109232086D01*
X126491203Y-109220000D01*
X126531045Y-109207914D01*
X126766440Y-109082092D01*
X126972765Y-108912765D01*
X127142092Y-108706440D01*
X127267914Y-108471045D01*
X127345394Y-108215626D01*
X127371556Y-107950000D01*
X127345394Y-107684374D01*
X127267914Y-107428955D01*
X127142092Y-107193560D01*
X126972765Y-106987235D01*
X126766440Y-106817908D01*
X126531045Y-106692086D01*
X126491203Y-106680000D01*
X126531045Y-106667914D01*
X126766440Y-106542092D01*
X126972765Y-106372765D01*
X127142092Y-106166440D01*
X127267914Y-105931045D01*
X127345394Y-105675626D01*
X127371556Y-105410000D01*
X127345394Y-105144374D01*
X127267914Y-104888955D01*
X127142092Y-104653560D01*
X126972765Y-104447235D01*
X126766440Y-104277908D01*
X126531045Y-104152086D01*
X126491203Y-104140000D01*
X126531045Y-104127914D01*
X126766440Y-104002092D01*
X126972765Y-103832765D01*
X127142092Y-103626440D01*
X127267914Y-103391045D01*
X127345394Y-103135626D01*
X127371556Y-102870000D01*
X127345394Y-102604374D01*
X127267914Y-102348955D01*
X127142092Y-102113560D01*
X126972765Y-101907235D01*
X126766440Y-101737908D01*
X126531045Y-101612086D01*
X126491203Y-101600000D01*
X126531045Y-101587914D01*
X126766440Y-101462092D01*
X126972765Y-101292765D01*
X127142092Y-101086440D01*
X127267914Y-100851045D01*
X127345394Y-100595626D01*
X127371556Y-100330000D01*
X127345394Y-100064374D01*
X127267914Y-99808955D01*
X127142092Y-99573560D01*
X126972765Y-99367235D01*
X126766440Y-99197908D01*
X126531045Y-99072086D01*
X126491203Y-99060000D01*
X126531045Y-99047914D01*
X126766440Y-98922092D01*
X126972765Y-98752765D01*
X127142092Y-98546440D01*
X127267914Y-98311045D01*
X127345394Y-98055626D01*
X127371556Y-97790000D01*
X127345394Y-97524374D01*
X127267914Y-97268955D01*
X127142092Y-97033560D01*
X126972765Y-96827235D01*
X126766440Y-96657908D01*
X126531045Y-96532086D01*
X126491203Y-96520000D01*
X126531045Y-96507914D01*
X126766440Y-96382092D01*
X126972765Y-96212765D01*
X127142092Y-96006440D01*
X127267914Y-95771045D01*
X127345394Y-95515626D01*
X127371556Y-95250000D01*
X127345394Y-94984374D01*
X127267914Y-94728955D01*
X127142092Y-94493560D01*
X126972765Y-94287235D01*
X126766440Y-94117908D01*
X126531045Y-93992086D01*
X126491203Y-93980000D01*
X126531045Y-93967914D01*
X126766440Y-93842092D01*
X126972765Y-93672765D01*
X127142092Y-93466440D01*
X127267914Y-93231045D01*
X127345394Y-92975626D01*
X127371556Y-92710000D01*
X127345394Y-92444374D01*
X127267914Y-92188955D01*
X127142092Y-91953560D01*
X126972765Y-91747235D01*
X126766440Y-91577908D01*
X126531045Y-91452086D01*
X126491203Y-91440000D01*
X126531045Y-91427914D01*
X126766440Y-91302092D01*
X126972765Y-91132765D01*
X127142092Y-90926440D01*
X127267914Y-90691045D01*
X127345394Y-90435626D01*
X127371556Y-90170000D01*
X127345394Y-89904374D01*
X127267914Y-89648955D01*
X127142092Y-89413560D01*
X126972765Y-89207235D01*
X126766440Y-89037908D01*
X126673204Y-88988072D01*
X126730000Y-88988072D01*
X126854482Y-88975812D01*
X126974180Y-88939502D01*
X127084494Y-88880537D01*
X127181185Y-88801185D01*
X127260537Y-88704494D01*
X127319502Y-88594180D01*
X127355812Y-88474482D01*
X127368072Y-88350000D01*
X127368072Y-86910000D01*
X127355812Y-86785518D01*
X127319502Y-86665820D01*
X127260537Y-86555506D01*
X127181185Y-86458815D01*
X127084494Y-86379463D01*
X126974180Y-86320498D01*
X126854482Y-86284188D01*
X126730000Y-86271928D01*
X124730000Y-86271928D01*
X124605518Y-86284188D01*
X124485820Y-86320498D01*
X124375506Y-86379463D01*
X124278815Y-86458815D01*
X124199463Y-86555506D01*
X124140498Y-86665820D01*
X124104188Y-86785518D01*
X124091928Y-86910000D01*
X124091928Y-88350000D01*
X124104188Y-88474482D01*
X124140498Y-88594180D01*
X124199463Y-88704494D01*
X124278815Y-88801185D01*
X124375506Y-88880537D01*
X124485820Y-88939502D01*
X124605518Y-88975812D01*
X124730000Y-88988072D01*
X124786796Y-88988072D01*
X124693560Y-89037908D01*
X124487235Y-89207235D01*
X124317908Y-89413560D01*
X124192086Y-89648955D01*
X124114606Y-89904374D01*
X124088444Y-90170000D01*
X124114606Y-90435626D01*
X124192086Y-90691045D01*
X124317908Y-90926440D01*
X124487235Y-91132765D01*
X124693560Y-91302092D01*
X124928955Y-91427914D01*
X124968797Y-91440000D01*
X124928955Y-91452086D01*
X124693560Y-91577908D01*
X124487235Y-91747235D01*
X124317908Y-91953560D01*
X124192086Y-92188955D01*
X124114606Y-92444374D01*
X124088444Y-92710000D01*
X124114606Y-92975626D01*
X124192086Y-93231045D01*
X124317908Y-93466440D01*
X124487235Y-93672765D01*
X124693560Y-93842092D01*
X124928955Y-93967914D01*
X124968797Y-93980000D01*
X124928955Y-93992086D01*
X124693560Y-94117908D01*
X124487235Y-94287235D01*
X124317908Y-94493560D01*
X124192086Y-94728955D01*
X124114606Y-94984374D01*
X124088444Y-95250000D01*
X124114606Y-95515626D01*
X124192086Y-95771045D01*
X124317908Y-96006440D01*
X124487235Y-96212765D01*
X124693560Y-96382092D01*
X124928955Y-96507914D01*
X124968797Y-96520000D01*
X124928955Y-96532086D01*
X124693560Y-96657908D01*
X124487235Y-96827235D01*
X124317908Y-97033560D01*
X124192086Y-97268955D01*
X124114606Y-97524374D01*
X124088444Y-97790000D01*
X124114606Y-98055626D01*
X124192086Y-98311045D01*
X124317908Y-98546440D01*
X124487235Y-98752765D01*
X124693560Y-98922092D01*
X124928955Y-99047914D01*
X124968797Y-99060000D01*
X124928955Y-99072086D01*
X124693560Y-99197908D01*
X124487235Y-99367235D01*
X124363768Y-99517680D01*
X124340211Y-99520000D01*
X124340209Y-99520000D01*
X124221212Y-99531720D01*
X124068527Y-99578037D01*
X124018794Y-99604620D01*
X123927810Y-99653251D01*
X123872210Y-99698881D01*
X123804472Y-99754472D01*
X123779107Y-99785380D01*
X121375383Y-102189105D01*
X121344473Y-102214472D01*
X121319108Y-102245380D01*
X121243251Y-102337811D01*
X121200491Y-102417811D01*
X121168038Y-102478527D01*
X121129863Y-102604374D01*
X121121721Y-102631213D01*
X121106081Y-102790000D01*
X107340000Y-102790000D01*
X107340000Y-76232279D01*
X107377388Y-75850961D01*
X153548096Y-75850961D01*
X153670085Y-76073000D01*
X154633394Y-76073000D01*
X154850197Y-76289803D01*
X154869443Y-76305597D01*
X154891399Y-76317333D01*
X154915224Y-76324560D01*
X154940000Y-76327000D01*
X154964776Y-76324560D01*
X154988601Y-76317333D01*
X155010557Y-76305597D01*
X155029803Y-76289803D01*
X155246606Y-76073000D01*
X156209915Y-76073000D01*
X156331904Y-75850961D01*
X156291246Y-75716913D01*
X156171037Y-75462580D01*
X156003519Y-75236586D01*
X155795131Y-75047615D01*
X155553881Y-74902930D01*
X155289040Y-74808091D01*
X155100619Y-74911013D01*
X155029803Y-74840197D01*
X155010557Y-74824403D01*
X154988601Y-74812667D01*
X154964776Y-74805440D01*
X154940000Y-74803000D01*
X154915224Y-74805440D01*
X154891399Y-74812667D01*
X154869443Y-74824403D01*
X154850197Y-74840197D01*
X154779381Y-74911013D01*
X154590960Y-74808091D01*
X154326119Y-74902930D01*
X154084869Y-75047615D01*
X153876481Y-75236586D01*
X153708963Y-75462580D01*
X153588754Y-75716913D01*
X153548096Y-75850961D01*
X107377388Y-75850961D01*
X107378909Y-75835455D01*
X107484780Y-75484792D01*
X107656744Y-75161375D01*
X107888254Y-74877516D01*
X108170486Y-74644035D01*
X108492695Y-74469817D01*
X108842614Y-74361498D01*
X109237443Y-74320000D01*
X182847721Y-74320000D01*
X183244545Y-74358909D01*
G37*
%TD.AperFunction*%
D17*
X168745000Y-101727002D02*
X168910084Y-101727002D01*
X168788096Y-101949039D01*
X168828754Y-102083087D01*
X168948963Y-102337420D01*
X169116481Y-102563414D01*
X169324869Y-102752385D01*
X169510865Y-102863933D01*
X169500273Y-102868320D01*
X169265241Y-103025363D01*
X169065363Y-103225241D01*
X168908320Y-103460273D01*
X168800147Y-103721426D01*
X168745000Y-103998665D01*
X168745000Y-104281335D01*
X168800147Y-104558574D01*
X168908320Y-104819727D01*
X169065363Y-105054759D01*
X169265241Y-105254637D01*
X169497759Y-105410000D01*
X169265241Y-105565363D01*
X169065363Y-105765241D01*
X168908320Y-106000273D01*
X168800147Y-106261426D01*
X168745000Y-106538665D01*
X168745000Y-106821335D01*
X168769580Y-106944907D01*
X166535000Y-109179488D01*
X166535000Y-109078665D01*
X166479853Y-108801426D01*
X166371680Y-108540273D01*
X166214637Y-108305241D01*
X166014759Y-108105363D01*
X165779727Y-107948320D01*
X165518574Y-107840147D01*
X165241335Y-107785000D01*
X164958665Y-107785000D01*
X164835093Y-107809580D01*
X161975512Y-104950000D01*
X165060212Y-104950000D01*
X165100000Y-104953919D01*
X165139788Y-104950000D01*
X165139791Y-104950000D01*
X165258788Y-104938280D01*
X165411473Y-104891963D01*
X165552189Y-104816749D01*
X165675528Y-104715528D01*
X165700900Y-104684612D01*
X168745000Y-101640513D01*
X168745000Y-101727002D01*
%TA.AperFunction,Conductor*%
D18*
G36*
X168745000Y-101727002D02*
G01*
X168910084Y-101727002D01*
X168788096Y-101949039D01*
X168828754Y-102083087D01*
X168948963Y-102337420D01*
X169116481Y-102563414D01*
X169324869Y-102752385D01*
X169510865Y-102863933D01*
X169500273Y-102868320D01*
X169265241Y-103025363D01*
X169065363Y-103225241D01*
X168908320Y-103460273D01*
X168800147Y-103721426D01*
X168745000Y-103998665D01*
X168745000Y-104281335D01*
X168800147Y-104558574D01*
X168908320Y-104819727D01*
X169065363Y-105054759D01*
X169265241Y-105254637D01*
X169497759Y-105410000D01*
X169265241Y-105565363D01*
X169065363Y-105765241D01*
X168908320Y-106000273D01*
X168800147Y-106261426D01*
X168745000Y-106538665D01*
X168745000Y-106821335D01*
X168769580Y-106944907D01*
X166535000Y-109179488D01*
X166535000Y-109078665D01*
X166479853Y-108801426D01*
X166371680Y-108540273D01*
X166214637Y-108305241D01*
X166014759Y-108105363D01*
X165779727Y-107948320D01*
X165518574Y-107840147D01*
X165241335Y-107785000D01*
X164958665Y-107785000D01*
X164835093Y-107809580D01*
X161975512Y-104950000D01*
X165060212Y-104950000D01*
X165100000Y-104953919D01*
X165139788Y-104950000D01*
X165139791Y-104950000D01*
X165258788Y-104938280D01*
X165411473Y-104891963D01*
X165552189Y-104816749D01*
X165675528Y-104715528D01*
X165700900Y-104684612D01*
X168745000Y-101640513D01*
X168745000Y-101727002D01*
G37*
%TD.AperFunction*%
%TD*%
M02*
