%TF.GenerationSoftware,KiCad,Pcbnew,(5.1.9)-1*%
%TF.CreationDate,2021-02-16T23:53:01+08:00*%
%TF.ProjectId,ChipInspector24,43686970-496e-4737-9065-63746f723234,rev?*%
%TF.SameCoordinates,Original*%
%TF.FileFunction,Copper,L1,Top*%
%TF.FilePolarity,Positive*%
%FSLAX46Y46*%
G04 Gerber Fmt 4.6, Leading zero omitted, Abs format (unit mm)*
G04 Created by KiCad (PCBNEW (5.1.9)-1) date 2021-02-16 23:53:01*
%MOMM*%
%LPD*%
G01*
G04 APERTURE LIST*
%TA.AperFunction,ComponentPad*%
%ADD10O,2.000000X1.440000*%
%TD*%
%TA.AperFunction,ComponentPad*%
%ADD11R,2.000000X1.440000*%
%TD*%
%TA.AperFunction,ComponentPad*%
%ADD12O,1.600000X1.600000*%
%TD*%
%TA.AperFunction,ViaPad*%
%ADD13C,0.800000*%
%TD*%
%TA.AperFunction,Conductor*%
%ADD14C,0.500000*%
%TD*%
%TA.AperFunction,Conductor*%
%ADD15C,0.350000*%
%TD*%
%TA.AperFunction,Conductor*%
%ADD16C,1.000000*%
%TD*%
%TA.AperFunction,Conductor*%
%ADD17C,0.254000*%
%TD*%
%TA.AperFunction,Conductor*%
%ADD18C,0.100000*%
%TD*%
G04 APERTURE END LIST*
D10*
%TO.P,J1,13*%
%TO.N,P13*%
X133350000Y-115570000D03*
%TO.P,J1,12*%
%TO.N,P12*%
X125730000Y-115570000D03*
%TO.P,J1,14*%
%TO.N,P14*%
X133350000Y-113030000D03*
%TO.P,J1,11*%
%TO.N,P11*%
X125730000Y-113030000D03*
%TO.P,J1,15*%
%TO.N,P15*%
X133350000Y-110490000D03*
%TO.P,J1,10*%
%TO.N,P10*%
X125730000Y-110490000D03*
%TO.P,J1,16*%
%TO.N,P16*%
X133350000Y-107950000D03*
%TO.P,J1,9*%
%TO.N,P09*%
X125730000Y-107950000D03*
%TO.P,J1,17*%
%TO.N,P17*%
X133350000Y-105410000D03*
%TO.P,J1,8*%
%TO.N,P08*%
X125730000Y-105410000D03*
%TO.P,J1,18*%
%TO.N,P18*%
X133350000Y-102870000D03*
%TO.P,J1,7*%
%TO.N,P07*%
X125730000Y-102870000D03*
%TO.P,J1,19*%
%TO.N,P19*%
X133350000Y-100330000D03*
%TO.P,J1,6*%
%TO.N,P06*%
X125730000Y-100330000D03*
%TO.P,J1,20*%
%TO.N,P20*%
X133350000Y-97790000D03*
%TO.P,J1,5*%
%TO.N,P05*%
X125730000Y-97790000D03*
%TO.P,J1,21*%
%TO.N,P21*%
X133350000Y-95250000D03*
%TO.P,J1,4*%
%TO.N,P04*%
X125730000Y-95250000D03*
%TO.P,J1,22*%
%TO.N,P22*%
X133350000Y-92710000D03*
%TO.P,J1,3*%
%TO.N,P03*%
X125730000Y-92710000D03*
%TO.P,J1,23*%
%TO.N,P23*%
X133350000Y-90170000D03*
%TO.P,J1,2*%
%TO.N,P02*%
X125730000Y-90170000D03*
%TO.P,J1,24*%
%TO.N,VCC*%
X133350000Y-87630000D03*
D11*
%TO.P,J1,1*%
%TO.N,P01*%
X125730000Y-87630000D03*
%TD*%
D12*
%TO.P,M1,53*%
%TO.N,P21R*%
X163830000Y-91440000D03*
%TO.P,M1,54*%
%TO.N,P22R*%
X161290000Y-91440000D03*
%TO.P,M1,40*%
%TO.N,VCC*%
X170180000Y-76200000D03*
%TO.P,M1,39*%
%TO.N,P01R*%
X170180000Y-78740000D03*
%TO.P,M1,38*%
%TO.N,P02R*%
X170180000Y-81280000D03*
%TO.P,M1,37*%
%TO.N,P03R*%
X170180000Y-83820000D03*
%TO.P,M1,36*%
%TO.N,P20R*%
X170180000Y-86360000D03*
%TO.P,M1,35*%
%TO.N,P04R*%
X170180000Y-88900000D03*
%TO.P,M1,34*%
%TO.N,P19R*%
X170180000Y-91440000D03*
%TO.P,M1,33*%
%TO.N,P05R*%
X170180000Y-93980000D03*
%TO.P,M1,32*%
%TO.N,P18R*%
X170180000Y-96520000D03*
%TO.P,M1,31*%
%TO.N,P06R*%
X170180000Y-99060000D03*
%TO.P,M1,30*%
%TO.N,GND*%
X170180000Y-101600000D03*
%TO.P,M1,29*%
%TO.N,Net-(M1-Pad29)*%
X170180000Y-104140000D03*
%TO.P,M1,28*%
%TO.N,P12*%
X170180000Y-106680000D03*
%TO.P,M1,27*%
%TO.N,P11*%
X170180000Y-109220000D03*
%TO.P,M1,26*%
%TO.N,P10*%
X170180000Y-111760000D03*
%TO.P,M1,25*%
%TO.N,P09*%
X170180000Y-114300000D03*
%TO.P,M1,24*%
%TO.N,P08*%
X170180000Y-116840000D03*
%TO.P,M1,23*%
%TO.N,P07*%
X170180000Y-119380000D03*
%TO.P,M1,22*%
%TO.N,P06*%
X170180000Y-121920000D03*
%TO.P,M1,21*%
%TO.N,P05*%
X170180000Y-124460000D03*
%TO.P,M1,20*%
%TO.N,P12R*%
X154940000Y-124460000D03*
%TO.P,M1,19*%
%TO.N,P11R*%
X154940000Y-121920000D03*
%TO.P,M1,18*%
%TO.N,P10R*%
X154940000Y-119380000D03*
%TO.P,M1,17*%
%TO.N,P09R*%
X154940000Y-116840000D03*
%TO.P,M1,16*%
%TO.N,P13*%
X154940000Y-114300000D03*
%TO.P,M1,15*%
%TO.N,P14R*%
X154940000Y-111760000D03*
%TO.P,M1,14*%
%TO.N,P16*%
X154940000Y-109220000D03*
%TO.P,M1,13*%
%TO.N,P17*%
X154940000Y-106680000D03*
%TO.P,M1,12*%
%TO.N,P18*%
X154940000Y-104140000D03*
%TO.P,M1,11*%
%TO.N,P19*%
X154940000Y-101600000D03*
%TO.P,M1,10*%
%TO.N,P20*%
X154940000Y-99060000D03*
%TO.P,M1,9*%
%TO.N,P21*%
X154940000Y-96520000D03*
%TO.P,M1,8*%
%TO.N,P22*%
X154940000Y-93980000D03*
%TO.P,M1,7*%
%TO.N,P23*%
X154940000Y-91440000D03*
%TO.P,M1,6*%
%TO.N,P23R*%
X154940000Y-88900000D03*
%TO.P,M1,5*%
%TO.N,P01*%
X154940000Y-86360000D03*
%TO.P,M1,4*%
%TO.N,P02*%
X154940000Y-83820000D03*
%TO.P,M1,3*%
%TO.N,P03*%
X154940000Y-81280000D03*
%TO.P,M1,2*%
%TO.N,P04*%
X154940000Y-78740000D03*
%TO.P,M1,1*%
%TO.N,GND*%
X154940000Y-76200000D03*
%TO.P,M1,41*%
%TO.N,VCC*%
X160020000Y-124460000D03*
%TO.P,M1,42*%
%TO.N,GND*%
X162560000Y-124460000D03*
%TO.P,M1,43*%
%TO.N,Net-(M1-Pad43)*%
X165100000Y-124460000D03*
%TO.P,M1,44*%
%TO.N,Net-(M1-Pad44)*%
X160020000Y-116840000D03*
%TO.P,M1,48*%
%TO.N,P14*%
X162560000Y-116840000D03*
%TO.P,M1,47*%
%TO.N,P15R*%
X162560000Y-114300000D03*
%TO.P,M1,46*%
%TO.N,P08R*%
X162560000Y-111760000D03*
%TO.P,M1,45*%
%TO.N,P07R*%
X162560000Y-109220000D03*
%TO.P,M1,52*%
%TO.N,P17R*%
X165100000Y-109220000D03*
%TO.P,M1,51*%
%TO.N,P16R*%
X165100000Y-111760000D03*
%TO.P,M1,50*%
%TO.N,P15*%
X165100000Y-114300000D03*
%TO.P,M1,49*%
%TO.N,P13R*%
X165100000Y-116840000D03*
%TD*%
%TO.P,R23,2*%
%TO.N,P23R*%
%TA.AperFunction,SMDPad,CuDef*%
G36*
G01*
X148077500Y-90620002D02*
X148077500Y-89719998D01*
G75*
G02*
X148327498Y-89470000I249998J0D01*
G01*
X148852502Y-89470000D01*
G75*
G02*
X149102500Y-89719998I0J-249998D01*
G01*
X149102500Y-90620002D01*
G75*
G02*
X148852502Y-90870000I-249998J0D01*
G01*
X148327498Y-90870000D01*
G75*
G02*
X148077500Y-90620002I0J249998D01*
G01*
G37*
%TD.AperFunction*%
%TO.P,R23,1*%
%TO.N,P23*%
%TA.AperFunction,SMDPad,CuDef*%
G36*
G01*
X146252500Y-90620002D02*
X146252500Y-89719998D01*
G75*
G02*
X146502498Y-89470000I249998J0D01*
G01*
X147027502Y-89470000D01*
G75*
G02*
X147277500Y-89719998I0J-249998D01*
G01*
X147277500Y-90620002D01*
G75*
G02*
X147027502Y-90870000I-249998J0D01*
G01*
X146502498Y-90870000D01*
G75*
G02*
X146252500Y-90620002I0J249998D01*
G01*
G37*
%TD.AperFunction*%
%TD*%
%TO.P,R22,2*%
%TO.N,P22R*%
%TA.AperFunction,SMDPad,CuDef*%
G36*
G01*
X148077500Y-93160002D02*
X148077500Y-92259998D01*
G75*
G02*
X148327498Y-92010000I249998J0D01*
G01*
X148852502Y-92010000D01*
G75*
G02*
X149102500Y-92259998I0J-249998D01*
G01*
X149102500Y-93160002D01*
G75*
G02*
X148852502Y-93410000I-249998J0D01*
G01*
X148327498Y-93410000D01*
G75*
G02*
X148077500Y-93160002I0J249998D01*
G01*
G37*
%TD.AperFunction*%
%TO.P,R22,1*%
%TO.N,P22*%
%TA.AperFunction,SMDPad,CuDef*%
G36*
G01*
X146252500Y-93160002D02*
X146252500Y-92259998D01*
G75*
G02*
X146502498Y-92010000I249998J0D01*
G01*
X147027502Y-92010000D01*
G75*
G02*
X147277500Y-92259998I0J-249998D01*
G01*
X147277500Y-93160002D01*
G75*
G02*
X147027502Y-93410000I-249998J0D01*
G01*
X146502498Y-93410000D01*
G75*
G02*
X146252500Y-93160002I0J249998D01*
G01*
G37*
%TD.AperFunction*%
%TD*%
%TO.P,R21,2*%
%TO.N,P21R*%
%TA.AperFunction,SMDPad,CuDef*%
G36*
G01*
X148077500Y-95700002D02*
X148077500Y-94799998D01*
G75*
G02*
X148327498Y-94550000I249998J0D01*
G01*
X148852502Y-94550000D01*
G75*
G02*
X149102500Y-94799998I0J-249998D01*
G01*
X149102500Y-95700002D01*
G75*
G02*
X148852502Y-95950000I-249998J0D01*
G01*
X148327498Y-95950000D01*
G75*
G02*
X148077500Y-95700002I0J249998D01*
G01*
G37*
%TD.AperFunction*%
%TO.P,R21,1*%
%TO.N,P21*%
%TA.AperFunction,SMDPad,CuDef*%
G36*
G01*
X146252500Y-95700002D02*
X146252500Y-94799998D01*
G75*
G02*
X146502498Y-94550000I249998J0D01*
G01*
X147027502Y-94550000D01*
G75*
G02*
X147277500Y-94799998I0J-249998D01*
G01*
X147277500Y-95700002D01*
G75*
G02*
X147027502Y-95950000I-249998J0D01*
G01*
X146502498Y-95950000D01*
G75*
G02*
X146252500Y-95700002I0J249998D01*
G01*
G37*
%TD.AperFunction*%
%TD*%
%TO.P,R20,2*%
%TO.N,P20R*%
%TA.AperFunction,SMDPad,CuDef*%
G36*
G01*
X148077500Y-98240002D02*
X148077500Y-97339998D01*
G75*
G02*
X148327498Y-97090000I249998J0D01*
G01*
X148852502Y-97090000D01*
G75*
G02*
X149102500Y-97339998I0J-249998D01*
G01*
X149102500Y-98240002D01*
G75*
G02*
X148852502Y-98490000I-249998J0D01*
G01*
X148327498Y-98490000D01*
G75*
G02*
X148077500Y-98240002I0J249998D01*
G01*
G37*
%TD.AperFunction*%
%TO.P,R20,1*%
%TO.N,P20*%
%TA.AperFunction,SMDPad,CuDef*%
G36*
G01*
X146252500Y-98240002D02*
X146252500Y-97339998D01*
G75*
G02*
X146502498Y-97090000I249998J0D01*
G01*
X147027502Y-97090000D01*
G75*
G02*
X147277500Y-97339998I0J-249998D01*
G01*
X147277500Y-98240002D01*
G75*
G02*
X147027502Y-98490000I-249998J0D01*
G01*
X146502498Y-98490000D01*
G75*
G02*
X146252500Y-98240002I0J249998D01*
G01*
G37*
%TD.AperFunction*%
%TD*%
%TO.P,R19,2*%
%TO.N,P19R*%
%TA.AperFunction,SMDPad,CuDef*%
G36*
G01*
X148077500Y-100780002D02*
X148077500Y-99879998D01*
G75*
G02*
X148327498Y-99630000I249998J0D01*
G01*
X148852502Y-99630000D01*
G75*
G02*
X149102500Y-99879998I0J-249998D01*
G01*
X149102500Y-100780002D01*
G75*
G02*
X148852502Y-101030000I-249998J0D01*
G01*
X148327498Y-101030000D01*
G75*
G02*
X148077500Y-100780002I0J249998D01*
G01*
G37*
%TD.AperFunction*%
%TO.P,R19,1*%
%TO.N,P19*%
%TA.AperFunction,SMDPad,CuDef*%
G36*
G01*
X146252500Y-100780002D02*
X146252500Y-99879998D01*
G75*
G02*
X146502498Y-99630000I249998J0D01*
G01*
X147027502Y-99630000D01*
G75*
G02*
X147277500Y-99879998I0J-249998D01*
G01*
X147277500Y-100780002D01*
G75*
G02*
X147027502Y-101030000I-249998J0D01*
G01*
X146502498Y-101030000D01*
G75*
G02*
X146252500Y-100780002I0J249998D01*
G01*
G37*
%TD.AperFunction*%
%TD*%
%TO.P,R18,2*%
%TO.N,P18R*%
%TA.AperFunction,SMDPad,CuDef*%
G36*
G01*
X148077500Y-103320002D02*
X148077500Y-102419998D01*
G75*
G02*
X148327498Y-102170000I249998J0D01*
G01*
X148852502Y-102170000D01*
G75*
G02*
X149102500Y-102419998I0J-249998D01*
G01*
X149102500Y-103320002D01*
G75*
G02*
X148852502Y-103570000I-249998J0D01*
G01*
X148327498Y-103570000D01*
G75*
G02*
X148077500Y-103320002I0J249998D01*
G01*
G37*
%TD.AperFunction*%
%TO.P,R18,1*%
%TO.N,P18*%
%TA.AperFunction,SMDPad,CuDef*%
G36*
G01*
X146252500Y-103320002D02*
X146252500Y-102419998D01*
G75*
G02*
X146502498Y-102170000I249998J0D01*
G01*
X147027502Y-102170000D01*
G75*
G02*
X147277500Y-102419998I0J-249998D01*
G01*
X147277500Y-103320002D01*
G75*
G02*
X147027502Y-103570000I-249998J0D01*
G01*
X146502498Y-103570000D01*
G75*
G02*
X146252500Y-103320002I0J249998D01*
G01*
G37*
%TD.AperFunction*%
%TD*%
%TO.P,R17,2*%
%TO.N,P17R*%
%TA.AperFunction,SMDPad,CuDef*%
G36*
G01*
X148077500Y-105860002D02*
X148077500Y-104959998D01*
G75*
G02*
X148327498Y-104710000I249998J0D01*
G01*
X148852502Y-104710000D01*
G75*
G02*
X149102500Y-104959998I0J-249998D01*
G01*
X149102500Y-105860002D01*
G75*
G02*
X148852502Y-106110000I-249998J0D01*
G01*
X148327498Y-106110000D01*
G75*
G02*
X148077500Y-105860002I0J249998D01*
G01*
G37*
%TD.AperFunction*%
%TO.P,R17,1*%
%TO.N,P17*%
%TA.AperFunction,SMDPad,CuDef*%
G36*
G01*
X146252500Y-105860002D02*
X146252500Y-104959998D01*
G75*
G02*
X146502498Y-104710000I249998J0D01*
G01*
X147027502Y-104710000D01*
G75*
G02*
X147277500Y-104959998I0J-249998D01*
G01*
X147277500Y-105860002D01*
G75*
G02*
X147027502Y-106110000I-249998J0D01*
G01*
X146502498Y-106110000D01*
G75*
G02*
X146252500Y-105860002I0J249998D01*
G01*
G37*
%TD.AperFunction*%
%TD*%
%TO.P,R16,1*%
%TO.N,P16*%
%TA.AperFunction,SMDPad,CuDef*%
G36*
G01*
X146252500Y-108400002D02*
X146252500Y-107499998D01*
G75*
G02*
X146502498Y-107250000I249998J0D01*
G01*
X147027502Y-107250000D01*
G75*
G02*
X147277500Y-107499998I0J-249998D01*
G01*
X147277500Y-108400002D01*
G75*
G02*
X147027502Y-108650000I-249998J0D01*
G01*
X146502498Y-108650000D01*
G75*
G02*
X146252500Y-108400002I0J249998D01*
G01*
G37*
%TD.AperFunction*%
%TO.P,R16,2*%
%TO.N,P16R*%
%TA.AperFunction,SMDPad,CuDef*%
G36*
G01*
X148077500Y-108400002D02*
X148077500Y-107499998D01*
G75*
G02*
X148327498Y-107250000I249998J0D01*
G01*
X148852502Y-107250000D01*
G75*
G02*
X149102500Y-107499998I0J-249998D01*
G01*
X149102500Y-108400002D01*
G75*
G02*
X148852502Y-108650000I-249998J0D01*
G01*
X148327498Y-108650000D01*
G75*
G02*
X148077500Y-108400002I0J249998D01*
G01*
G37*
%TD.AperFunction*%
%TD*%
%TO.P,R15,2*%
%TO.N,P15R*%
%TA.AperFunction,SMDPad,CuDef*%
G36*
G01*
X148077500Y-110940002D02*
X148077500Y-110039998D01*
G75*
G02*
X148327498Y-109790000I249998J0D01*
G01*
X148852502Y-109790000D01*
G75*
G02*
X149102500Y-110039998I0J-249998D01*
G01*
X149102500Y-110940002D01*
G75*
G02*
X148852502Y-111190000I-249998J0D01*
G01*
X148327498Y-111190000D01*
G75*
G02*
X148077500Y-110940002I0J249998D01*
G01*
G37*
%TD.AperFunction*%
%TO.P,R15,1*%
%TO.N,P15*%
%TA.AperFunction,SMDPad,CuDef*%
G36*
G01*
X146252500Y-110940002D02*
X146252500Y-110039998D01*
G75*
G02*
X146502498Y-109790000I249998J0D01*
G01*
X147027502Y-109790000D01*
G75*
G02*
X147277500Y-110039998I0J-249998D01*
G01*
X147277500Y-110940002D01*
G75*
G02*
X147027502Y-111190000I-249998J0D01*
G01*
X146502498Y-111190000D01*
G75*
G02*
X146252500Y-110940002I0J249998D01*
G01*
G37*
%TD.AperFunction*%
%TD*%
%TO.P,R14,2*%
%TO.N,P14R*%
%TA.AperFunction,SMDPad,CuDef*%
G36*
G01*
X148077500Y-113480002D02*
X148077500Y-112579998D01*
G75*
G02*
X148327498Y-112330000I249998J0D01*
G01*
X148852502Y-112330000D01*
G75*
G02*
X149102500Y-112579998I0J-249998D01*
G01*
X149102500Y-113480002D01*
G75*
G02*
X148852502Y-113730000I-249998J0D01*
G01*
X148327498Y-113730000D01*
G75*
G02*
X148077500Y-113480002I0J249998D01*
G01*
G37*
%TD.AperFunction*%
%TO.P,R14,1*%
%TO.N,P14*%
%TA.AperFunction,SMDPad,CuDef*%
G36*
G01*
X146252500Y-113480002D02*
X146252500Y-112579998D01*
G75*
G02*
X146502498Y-112330000I249998J0D01*
G01*
X147027502Y-112330000D01*
G75*
G02*
X147277500Y-112579998I0J-249998D01*
G01*
X147277500Y-113480002D01*
G75*
G02*
X147027502Y-113730000I-249998J0D01*
G01*
X146502498Y-113730000D01*
G75*
G02*
X146252500Y-113480002I0J249998D01*
G01*
G37*
%TD.AperFunction*%
%TD*%
%TO.P,R13,2*%
%TO.N,P13R*%
%TA.AperFunction,SMDPad,CuDef*%
G36*
G01*
X148077500Y-116020002D02*
X148077500Y-115119998D01*
G75*
G02*
X148327498Y-114870000I249998J0D01*
G01*
X148852502Y-114870000D01*
G75*
G02*
X149102500Y-115119998I0J-249998D01*
G01*
X149102500Y-116020002D01*
G75*
G02*
X148852502Y-116270000I-249998J0D01*
G01*
X148327498Y-116270000D01*
G75*
G02*
X148077500Y-116020002I0J249998D01*
G01*
G37*
%TD.AperFunction*%
%TO.P,R13,1*%
%TO.N,P13*%
%TA.AperFunction,SMDPad,CuDef*%
G36*
G01*
X146252500Y-116020002D02*
X146252500Y-115119998D01*
G75*
G02*
X146502498Y-114870000I249998J0D01*
G01*
X147027502Y-114870000D01*
G75*
G02*
X147277500Y-115119998I0J-249998D01*
G01*
X147277500Y-116020002D01*
G75*
G02*
X147027502Y-116270000I-249998J0D01*
G01*
X146502498Y-116270000D01*
G75*
G02*
X146252500Y-116020002I0J249998D01*
G01*
G37*
%TD.AperFunction*%
%TD*%
%TO.P,R12,2*%
%TO.N,P12R*%
%TA.AperFunction,SMDPad,CuDef*%
G36*
G01*
X140457500Y-117290002D02*
X140457500Y-116389998D01*
G75*
G02*
X140707498Y-116140000I249998J0D01*
G01*
X141232502Y-116140000D01*
G75*
G02*
X141482500Y-116389998I0J-249998D01*
G01*
X141482500Y-117290002D01*
G75*
G02*
X141232502Y-117540000I-249998J0D01*
G01*
X140707498Y-117540000D01*
G75*
G02*
X140457500Y-117290002I0J249998D01*
G01*
G37*
%TD.AperFunction*%
%TO.P,R12,1*%
%TO.N,P12*%
%TA.AperFunction,SMDPad,CuDef*%
G36*
G01*
X138632500Y-117290002D02*
X138632500Y-116389998D01*
G75*
G02*
X138882498Y-116140000I249998J0D01*
G01*
X139407502Y-116140000D01*
G75*
G02*
X139657500Y-116389998I0J-249998D01*
G01*
X139657500Y-117290002D01*
G75*
G02*
X139407502Y-117540000I-249998J0D01*
G01*
X138882498Y-117540000D01*
G75*
G02*
X138632500Y-117290002I0J249998D01*
G01*
G37*
%TD.AperFunction*%
%TD*%
%TO.P,R11,2*%
%TO.N,P11R*%
%TA.AperFunction,SMDPad,CuDef*%
G36*
G01*
X140457500Y-114750002D02*
X140457500Y-113849998D01*
G75*
G02*
X140707498Y-113600000I249998J0D01*
G01*
X141232502Y-113600000D01*
G75*
G02*
X141482500Y-113849998I0J-249998D01*
G01*
X141482500Y-114750002D01*
G75*
G02*
X141232502Y-115000000I-249998J0D01*
G01*
X140707498Y-115000000D01*
G75*
G02*
X140457500Y-114750002I0J249998D01*
G01*
G37*
%TD.AperFunction*%
%TO.P,R11,1*%
%TO.N,P11*%
%TA.AperFunction,SMDPad,CuDef*%
G36*
G01*
X138632500Y-114750002D02*
X138632500Y-113849998D01*
G75*
G02*
X138882498Y-113600000I249998J0D01*
G01*
X139407502Y-113600000D01*
G75*
G02*
X139657500Y-113849998I0J-249998D01*
G01*
X139657500Y-114750002D01*
G75*
G02*
X139407502Y-115000000I-249998J0D01*
G01*
X138882498Y-115000000D01*
G75*
G02*
X138632500Y-114750002I0J249998D01*
G01*
G37*
%TD.AperFunction*%
%TD*%
%TO.P,R10,2*%
%TO.N,P10R*%
%TA.AperFunction,SMDPad,CuDef*%
G36*
G01*
X140457500Y-112210002D02*
X140457500Y-111309998D01*
G75*
G02*
X140707498Y-111060000I249998J0D01*
G01*
X141232502Y-111060000D01*
G75*
G02*
X141482500Y-111309998I0J-249998D01*
G01*
X141482500Y-112210002D01*
G75*
G02*
X141232502Y-112460000I-249998J0D01*
G01*
X140707498Y-112460000D01*
G75*
G02*
X140457500Y-112210002I0J249998D01*
G01*
G37*
%TD.AperFunction*%
%TO.P,R10,1*%
%TO.N,P10*%
%TA.AperFunction,SMDPad,CuDef*%
G36*
G01*
X138632500Y-112210002D02*
X138632500Y-111309998D01*
G75*
G02*
X138882498Y-111060000I249998J0D01*
G01*
X139407502Y-111060000D01*
G75*
G02*
X139657500Y-111309998I0J-249998D01*
G01*
X139657500Y-112210002D01*
G75*
G02*
X139407502Y-112460000I-249998J0D01*
G01*
X138882498Y-112460000D01*
G75*
G02*
X138632500Y-112210002I0J249998D01*
G01*
G37*
%TD.AperFunction*%
%TD*%
%TO.P,R9,2*%
%TO.N,P09R*%
%TA.AperFunction,SMDPad,CuDef*%
G36*
G01*
X140457500Y-109670002D02*
X140457500Y-108769998D01*
G75*
G02*
X140707498Y-108520000I249998J0D01*
G01*
X141232502Y-108520000D01*
G75*
G02*
X141482500Y-108769998I0J-249998D01*
G01*
X141482500Y-109670002D01*
G75*
G02*
X141232502Y-109920000I-249998J0D01*
G01*
X140707498Y-109920000D01*
G75*
G02*
X140457500Y-109670002I0J249998D01*
G01*
G37*
%TD.AperFunction*%
%TO.P,R9,1*%
%TO.N,P09*%
%TA.AperFunction,SMDPad,CuDef*%
G36*
G01*
X138632500Y-109670002D02*
X138632500Y-108769998D01*
G75*
G02*
X138882498Y-108520000I249998J0D01*
G01*
X139407502Y-108520000D01*
G75*
G02*
X139657500Y-108769998I0J-249998D01*
G01*
X139657500Y-109670002D01*
G75*
G02*
X139407502Y-109920000I-249998J0D01*
G01*
X138882498Y-109920000D01*
G75*
G02*
X138632500Y-109670002I0J249998D01*
G01*
G37*
%TD.AperFunction*%
%TD*%
%TO.P,R8,2*%
%TO.N,P08R*%
%TA.AperFunction,SMDPad,CuDef*%
G36*
G01*
X140457500Y-107130002D02*
X140457500Y-106229998D01*
G75*
G02*
X140707498Y-105980000I249998J0D01*
G01*
X141232502Y-105980000D01*
G75*
G02*
X141482500Y-106229998I0J-249998D01*
G01*
X141482500Y-107130002D01*
G75*
G02*
X141232502Y-107380000I-249998J0D01*
G01*
X140707498Y-107380000D01*
G75*
G02*
X140457500Y-107130002I0J249998D01*
G01*
G37*
%TD.AperFunction*%
%TO.P,R8,1*%
%TO.N,P08*%
%TA.AperFunction,SMDPad,CuDef*%
G36*
G01*
X138632500Y-107130002D02*
X138632500Y-106229998D01*
G75*
G02*
X138882498Y-105980000I249998J0D01*
G01*
X139407502Y-105980000D01*
G75*
G02*
X139657500Y-106229998I0J-249998D01*
G01*
X139657500Y-107130002D01*
G75*
G02*
X139407502Y-107380000I-249998J0D01*
G01*
X138882498Y-107380000D01*
G75*
G02*
X138632500Y-107130002I0J249998D01*
G01*
G37*
%TD.AperFunction*%
%TD*%
%TO.P,R7,2*%
%TO.N,P07R*%
%TA.AperFunction,SMDPad,CuDef*%
G36*
G01*
X140457500Y-104590002D02*
X140457500Y-103689998D01*
G75*
G02*
X140707498Y-103440000I249998J0D01*
G01*
X141232502Y-103440000D01*
G75*
G02*
X141482500Y-103689998I0J-249998D01*
G01*
X141482500Y-104590002D01*
G75*
G02*
X141232502Y-104840000I-249998J0D01*
G01*
X140707498Y-104840000D01*
G75*
G02*
X140457500Y-104590002I0J249998D01*
G01*
G37*
%TD.AperFunction*%
%TO.P,R7,1*%
%TO.N,P07*%
%TA.AperFunction,SMDPad,CuDef*%
G36*
G01*
X138632500Y-104590002D02*
X138632500Y-103689998D01*
G75*
G02*
X138882498Y-103440000I249998J0D01*
G01*
X139407502Y-103440000D01*
G75*
G02*
X139657500Y-103689998I0J-249998D01*
G01*
X139657500Y-104590002D01*
G75*
G02*
X139407502Y-104840000I-249998J0D01*
G01*
X138882498Y-104840000D01*
G75*
G02*
X138632500Y-104590002I0J249998D01*
G01*
G37*
%TD.AperFunction*%
%TD*%
%TO.P,R6,2*%
%TO.N,P06R*%
%TA.AperFunction,SMDPad,CuDef*%
G36*
G01*
X140457500Y-102050002D02*
X140457500Y-101149998D01*
G75*
G02*
X140707498Y-100900000I249998J0D01*
G01*
X141232502Y-100900000D01*
G75*
G02*
X141482500Y-101149998I0J-249998D01*
G01*
X141482500Y-102050002D01*
G75*
G02*
X141232502Y-102300000I-249998J0D01*
G01*
X140707498Y-102300000D01*
G75*
G02*
X140457500Y-102050002I0J249998D01*
G01*
G37*
%TD.AperFunction*%
%TO.P,R6,1*%
%TO.N,P06*%
%TA.AperFunction,SMDPad,CuDef*%
G36*
G01*
X138632500Y-102050002D02*
X138632500Y-101149998D01*
G75*
G02*
X138882498Y-100900000I249998J0D01*
G01*
X139407502Y-100900000D01*
G75*
G02*
X139657500Y-101149998I0J-249998D01*
G01*
X139657500Y-102050002D01*
G75*
G02*
X139407502Y-102300000I-249998J0D01*
G01*
X138882498Y-102300000D01*
G75*
G02*
X138632500Y-102050002I0J249998D01*
G01*
G37*
%TD.AperFunction*%
%TD*%
%TO.P,R5,2*%
%TO.N,P05R*%
%TA.AperFunction,SMDPad,CuDef*%
G36*
G01*
X140457500Y-99510002D02*
X140457500Y-98609998D01*
G75*
G02*
X140707498Y-98360000I249998J0D01*
G01*
X141232502Y-98360000D01*
G75*
G02*
X141482500Y-98609998I0J-249998D01*
G01*
X141482500Y-99510002D01*
G75*
G02*
X141232502Y-99760000I-249998J0D01*
G01*
X140707498Y-99760000D01*
G75*
G02*
X140457500Y-99510002I0J249998D01*
G01*
G37*
%TD.AperFunction*%
%TO.P,R5,1*%
%TO.N,P05*%
%TA.AperFunction,SMDPad,CuDef*%
G36*
G01*
X138632500Y-99510002D02*
X138632500Y-98609998D01*
G75*
G02*
X138882498Y-98360000I249998J0D01*
G01*
X139407502Y-98360000D01*
G75*
G02*
X139657500Y-98609998I0J-249998D01*
G01*
X139657500Y-99510002D01*
G75*
G02*
X139407502Y-99760000I-249998J0D01*
G01*
X138882498Y-99760000D01*
G75*
G02*
X138632500Y-99510002I0J249998D01*
G01*
G37*
%TD.AperFunction*%
%TD*%
%TO.P,R4,2*%
%TO.N,P04R*%
%TA.AperFunction,SMDPad,CuDef*%
G36*
G01*
X140457500Y-96970002D02*
X140457500Y-96069998D01*
G75*
G02*
X140707498Y-95820000I249998J0D01*
G01*
X141232502Y-95820000D01*
G75*
G02*
X141482500Y-96069998I0J-249998D01*
G01*
X141482500Y-96970002D01*
G75*
G02*
X141232502Y-97220000I-249998J0D01*
G01*
X140707498Y-97220000D01*
G75*
G02*
X140457500Y-96970002I0J249998D01*
G01*
G37*
%TD.AperFunction*%
%TO.P,R4,1*%
%TO.N,P04*%
%TA.AperFunction,SMDPad,CuDef*%
G36*
G01*
X138632500Y-96970002D02*
X138632500Y-96069998D01*
G75*
G02*
X138882498Y-95820000I249998J0D01*
G01*
X139407502Y-95820000D01*
G75*
G02*
X139657500Y-96069998I0J-249998D01*
G01*
X139657500Y-96970002D01*
G75*
G02*
X139407502Y-97220000I-249998J0D01*
G01*
X138882498Y-97220000D01*
G75*
G02*
X138632500Y-96970002I0J249998D01*
G01*
G37*
%TD.AperFunction*%
%TD*%
%TO.P,R3,2*%
%TO.N,P03R*%
%TA.AperFunction,SMDPad,CuDef*%
G36*
G01*
X140457500Y-94430002D02*
X140457500Y-93529998D01*
G75*
G02*
X140707498Y-93280000I249998J0D01*
G01*
X141232502Y-93280000D01*
G75*
G02*
X141482500Y-93529998I0J-249998D01*
G01*
X141482500Y-94430002D01*
G75*
G02*
X141232502Y-94680000I-249998J0D01*
G01*
X140707498Y-94680000D01*
G75*
G02*
X140457500Y-94430002I0J249998D01*
G01*
G37*
%TD.AperFunction*%
%TO.P,R3,1*%
%TO.N,P03*%
%TA.AperFunction,SMDPad,CuDef*%
G36*
G01*
X138632500Y-94430002D02*
X138632500Y-93529998D01*
G75*
G02*
X138882498Y-93280000I249998J0D01*
G01*
X139407502Y-93280000D01*
G75*
G02*
X139657500Y-93529998I0J-249998D01*
G01*
X139657500Y-94430002D01*
G75*
G02*
X139407502Y-94680000I-249998J0D01*
G01*
X138882498Y-94680000D01*
G75*
G02*
X138632500Y-94430002I0J249998D01*
G01*
G37*
%TD.AperFunction*%
%TD*%
%TO.P,R2,2*%
%TO.N,P02R*%
%TA.AperFunction,SMDPad,CuDef*%
G36*
G01*
X140457500Y-91890002D02*
X140457500Y-90989998D01*
G75*
G02*
X140707498Y-90740000I249998J0D01*
G01*
X141232502Y-90740000D01*
G75*
G02*
X141482500Y-90989998I0J-249998D01*
G01*
X141482500Y-91890002D01*
G75*
G02*
X141232502Y-92140000I-249998J0D01*
G01*
X140707498Y-92140000D01*
G75*
G02*
X140457500Y-91890002I0J249998D01*
G01*
G37*
%TD.AperFunction*%
%TO.P,R2,1*%
%TO.N,P02*%
%TA.AperFunction,SMDPad,CuDef*%
G36*
G01*
X138632500Y-91890002D02*
X138632500Y-90989998D01*
G75*
G02*
X138882498Y-90740000I249998J0D01*
G01*
X139407502Y-90740000D01*
G75*
G02*
X139657500Y-90989998I0J-249998D01*
G01*
X139657500Y-91890002D01*
G75*
G02*
X139407502Y-92140000I-249998J0D01*
G01*
X138882498Y-92140000D01*
G75*
G02*
X138632500Y-91890002I0J249998D01*
G01*
G37*
%TD.AperFunction*%
%TD*%
%TO.P,R1,2*%
%TO.N,P01R*%
%TA.AperFunction,SMDPad,CuDef*%
G36*
G01*
X140457500Y-89350002D02*
X140457500Y-88449998D01*
G75*
G02*
X140707498Y-88200000I249998J0D01*
G01*
X141232502Y-88200000D01*
G75*
G02*
X141482500Y-88449998I0J-249998D01*
G01*
X141482500Y-89350002D01*
G75*
G02*
X141232502Y-89600000I-249998J0D01*
G01*
X140707498Y-89600000D01*
G75*
G02*
X140457500Y-89350002I0J249998D01*
G01*
G37*
%TD.AperFunction*%
%TO.P,R1,1*%
%TO.N,P01*%
%TA.AperFunction,SMDPad,CuDef*%
G36*
G01*
X138632500Y-89350002D02*
X138632500Y-88449998D01*
G75*
G02*
X138882498Y-88200000I249998J0D01*
G01*
X139407502Y-88200000D01*
G75*
G02*
X139657500Y-88449998I0J-249998D01*
G01*
X139657500Y-89350002D01*
G75*
G02*
X139407502Y-89600000I-249998J0D01*
G01*
X138882498Y-89600000D01*
G75*
G02*
X138632500Y-89350002I0J249998D01*
G01*
G37*
%TD.AperFunction*%
%TD*%
D13*
%TO.N,VCC*%
X156210000Y-85090000D03*
X153670000Y-85090000D03*
X158115000Y-85090000D03*
X135890000Y-85090000D03*
%TO.N,GND*%
X167640000Y-104140000D03*
X165100000Y-106680000D03*
X167640000Y-106680000D03*
%TO.N,P11*%
X124460000Y-117475000D03*
X152388168Y-116684979D03*
X156835130Y-116849870D03*
%TO.N,P07*%
X123190000Y-121285000D03*
X156845000Y-121729990D03*
X151765000Y-120650000D03*
%TO.N,P05*%
X122555000Y-123190000D03*
X151765000Y-123190000D03*
X156845000Y-123825000D03*
%TO.N,P09*%
X123825014Y-119380000D03*
X149860000Y-119380000D03*
X156845006Y-119449305D03*
%TO.N,P01R*%
X142240000Y-88900000D03*
%TO.N,P02R*%
X142240000Y-91440000D03*
%TO.N,P03R*%
X142240000Y-93980000D03*
%TO.N,P04R*%
X142240000Y-96520000D03*
%TO.N,P05R*%
X142240000Y-99060000D03*
%TO.N,P06R*%
X142240000Y-101600000D03*
%TO.N,P07R*%
X142240000Y-104140000D03*
%TO.N,P08R*%
X142240000Y-106680000D03*
%TO.N,P09R*%
X142240000Y-109220000D03*
X144204473Y-116753685D03*
%TO.N,P10R*%
X142240000Y-111760000D03*
X143233492Y-117475000D03*
%TO.N,P11R*%
X142240000Y-114300000D03*
X142240000Y-116839994D03*
%TO.N,P14*%
X152400000Y-113030000D03*
%TO.N,P15*%
X156845000Y-110490000D03*
%TO.N,P13R*%
X156845000Y-113030000D03*
%TO.N,P15R*%
X151130000Y-110490000D03*
%TO.N,P16R*%
X156845000Y-107950000D03*
%TO.N,P17R*%
X156845000Y-105410000D03*
%TO.N,P18R*%
X156845000Y-102870000D03*
%TO.N,P19R*%
X156845000Y-100330000D03*
%TO.N,P20R*%
X156845000Y-97790000D03*
%TO.N,P21R*%
X156845000Y-95250000D03*
%TO.N,P22R*%
X156845000Y-92710000D03*
%TD*%
D14*
%TO.N,VCC*%
X153670000Y-85090000D02*
X154305000Y-85090000D01*
X156210000Y-85090000D02*
X155575000Y-85090000D01*
D15*
X155575000Y-85090000D02*
X154305000Y-85090000D01*
D14*
X160020000Y-123190000D02*
X158750000Y-121920000D01*
X160020000Y-124460000D02*
X160020000Y-123190000D01*
D16*
X157480000Y-85090000D02*
X158115000Y-85725000D01*
X156845000Y-85090000D02*
X157480000Y-85090000D01*
X158115000Y-85725000D02*
X158115000Y-85090000D01*
X158115000Y-85090000D02*
X156845000Y-85090000D01*
X156845000Y-85090000D02*
X156210000Y-85090000D01*
X158115000Y-121285000D02*
X158115000Y-85725000D01*
X158750000Y-121920000D02*
X158115000Y-121285000D01*
D14*
X158115000Y-122555000D02*
X158750000Y-121920000D01*
X158115000Y-122555000D02*
X158115000Y-121285000D01*
X158115000Y-123825000D02*
X158115000Y-122555000D01*
X158750000Y-124460000D02*
X158115000Y-123825000D01*
X160020000Y-124460000D02*
X158750000Y-124460000D01*
X135255000Y-87630000D02*
X133350000Y-87630000D01*
X135890000Y-86995000D02*
X135255000Y-87630000D01*
X135890000Y-85090000D02*
X135890000Y-86995000D01*
X133350000Y-85725000D02*
X133350000Y-87630000D01*
X133985000Y-85090000D02*
X133350000Y-85725000D01*
X133985000Y-85090000D02*
X135890000Y-85090000D01*
D16*
X135890000Y-85090000D02*
X153670000Y-85090000D01*
D15*
%TO.N,P13*%
X133350000Y-115570000D02*
X146765000Y-115570000D01*
X154940000Y-114300000D02*
X153554617Y-114300000D01*
X153554617Y-114300000D02*
X151014617Y-116840000D01*
X151014617Y-116840000D02*
X147335000Y-116840000D01*
X147335000Y-116840000D02*
X146765000Y-116270000D01*
X146765000Y-116270000D02*
X146765000Y-115570000D01*
%TO.N,P12*%
X127635000Y-115570000D02*
X125730000Y-115570000D01*
X127635000Y-115570000D02*
X128905000Y-116840000D01*
X139145000Y-116840000D02*
X128905000Y-116840000D01*
%TO.N,P11*%
X123825000Y-116840000D02*
X124460000Y-117475000D01*
X123825000Y-114935000D02*
X123825000Y-116840000D01*
X125730000Y-113030000D02*
X123825000Y-114935000D01*
X137160000Y-114300000D02*
X139145000Y-114300000D01*
X128905000Y-114300000D02*
X137160000Y-114300000D01*
X127635000Y-113030000D02*
X128905000Y-114300000D01*
X125730000Y-113030000D02*
X127635000Y-113030000D01*
X152388168Y-116684979D02*
X153503147Y-115570000D01*
X153503147Y-115570000D02*
X155555260Y-115570000D01*
X155555260Y-115570000D02*
X156835130Y-116849870D01*
%TO.N,P10*%
X127635000Y-110490000D02*
X125730000Y-110490000D01*
X128905000Y-111760000D02*
X127635000Y-110490000D01*
X139700000Y-111760000D02*
X128905000Y-111760000D01*
%TO.N,P08*%
X127635000Y-105410000D02*
X125730000Y-105410000D01*
X128905000Y-106680000D02*
X127635000Y-105410000D01*
X139145000Y-106680000D02*
X128905000Y-106680000D01*
%TO.N,P07*%
X122555000Y-120650000D02*
X123190000Y-121285000D01*
X122555000Y-106045000D02*
X122555000Y-120650000D01*
X125730000Y-102870000D02*
X122555000Y-106045000D01*
X128905000Y-104140000D02*
X139145000Y-104140000D01*
X127635000Y-102870000D02*
X128905000Y-104140000D01*
X125730000Y-102870000D02*
X127635000Y-102870000D01*
X156845000Y-121729990D02*
X155765010Y-120650000D01*
X155765010Y-120650000D02*
X151765000Y-120650000D01*
%TO.N,P06*%
X127635000Y-100330000D02*
X125730000Y-100330000D01*
X128905000Y-101600000D02*
X127635000Y-100330000D01*
X139145000Y-101600000D02*
X128905000Y-101600000D01*
%TO.N,P05*%
X121920000Y-122555000D02*
X122555000Y-123190000D01*
X121920000Y-101600000D02*
X121920000Y-122555000D01*
X125730000Y-97790000D02*
X121920000Y-101600000D01*
X128905000Y-99060000D02*
X139145000Y-99060000D01*
X127635000Y-97790000D02*
X128905000Y-99060000D01*
X125730000Y-97790000D02*
X127635000Y-97790000D01*
X151765000Y-123190000D02*
X156210000Y-123190000D01*
X156210000Y-123190000D02*
X156845000Y-123825000D01*
%TO.N,P04*%
X127635000Y-95250000D02*
X125730000Y-95250000D01*
X128905000Y-96520000D02*
X127635000Y-95250000D01*
X139145000Y-96520000D02*
X128905000Y-96520000D01*
X129540000Y-78740000D02*
X154940000Y-78740000D01*
X122555000Y-85725000D02*
X129540000Y-78740000D01*
X122555000Y-92075000D02*
X122555000Y-85725000D01*
X125730000Y-95250000D02*
X122555000Y-92075000D01*
%TO.N,P03*%
X128905000Y-93980000D02*
X139145000Y-93980000D01*
X127635000Y-92710000D02*
X128905000Y-93980000D01*
X125730000Y-92710000D02*
X127635000Y-92710000D01*
X123190000Y-90170000D02*
X125730000Y-92710000D01*
X123190000Y-86360000D02*
X123190000Y-90170000D01*
X128270000Y-81280000D02*
X123190000Y-86360000D01*
X154940000Y-81280000D02*
X128270000Y-81280000D01*
%TO.N,P02*%
X127635000Y-90170000D02*
X125730000Y-90170000D01*
X128905000Y-91440000D02*
X127635000Y-90170000D01*
X139145000Y-91440000D02*
X128905000Y-91440000D01*
X127000000Y-83820000D02*
X154940000Y-83820000D01*
X123825000Y-86995000D02*
X127000000Y-83820000D01*
X123825000Y-88900000D02*
X123825000Y-86995000D01*
X125095000Y-90170000D02*
X123825000Y-88900000D01*
X125730000Y-90170000D02*
X125095000Y-90170000D01*
%TO.N,P01*%
X154940000Y-86360000D02*
X140335000Y-86360000D01*
X128905000Y-88900000D02*
X139145000Y-88900000D01*
X127635000Y-87630000D02*
X128905000Y-88900000D01*
X125730000Y-87630000D02*
X127635000Y-87630000D01*
X140335000Y-86360000D02*
X139145000Y-87550000D01*
X139145000Y-87550000D02*
X139145000Y-88900000D01*
%TO.N,P09*%
X123190000Y-118744986D02*
X123825014Y-119380000D01*
X123190000Y-110490000D02*
X123190000Y-118744986D01*
X125730000Y-107950000D02*
X123190000Y-110490000D01*
X128905000Y-109220000D02*
X139145000Y-109220000D01*
X127635000Y-107950000D02*
X128905000Y-109220000D01*
X125730000Y-107950000D02*
X127635000Y-107950000D01*
X149860000Y-119380000D02*
X151130000Y-118110000D01*
X155505701Y-118110000D02*
X156845006Y-119449305D01*
X151130000Y-118110000D02*
X155505701Y-118110000D01*
%TO.N,P01R*%
X140970000Y-88900000D02*
X142240000Y-88900000D01*
%TO.N,P02R*%
X140970000Y-91440000D02*
X142240000Y-91440000D01*
%TO.N,P03R*%
X140970000Y-93980000D02*
X142240000Y-93980000D01*
%TO.N,P04R*%
X140970000Y-96520000D02*
X142240000Y-96520000D01*
%TO.N,P05R*%
X140970000Y-99060000D02*
X142240000Y-99060000D01*
%TO.N,P06R*%
X140970000Y-101600000D02*
X142240000Y-101600000D01*
%TO.N,P07R*%
X140970000Y-104140000D02*
X142240000Y-104140000D01*
%TO.N,P08R*%
X140970000Y-106680000D02*
X142240000Y-106680000D01*
%TO.N,P09R*%
X140970000Y-109220000D02*
X142240000Y-109220000D01*
X154940000Y-116840000D02*
X154270011Y-117509989D01*
X144960777Y-117509989D02*
X144604472Y-117153684D01*
X144604472Y-117153684D02*
X144204473Y-116753685D01*
X154270011Y-117509989D02*
X144960777Y-117509989D01*
%TO.N,P10R*%
X140970000Y-111760000D02*
X142240000Y-111760000D01*
X146408492Y-120650000D02*
X143233492Y-117475000D01*
X149860000Y-120650000D02*
X146408492Y-120650000D01*
X151320001Y-119189999D02*
X149860000Y-120650000D01*
X154749999Y-119189999D02*
X151320001Y-119189999D01*
X154940000Y-119380000D02*
X154749999Y-119189999D01*
%TO.N,P11R*%
X140970000Y-114300000D02*
X142240000Y-114300000D01*
X146054496Y-121920000D02*
X142099999Y-117965503D01*
X154940000Y-121920000D02*
X146054496Y-121920000D01*
X142099999Y-117965503D02*
X142099999Y-116979995D01*
X142099999Y-116979995D02*
X142240000Y-116839994D01*
%TO.N,P12R*%
X147320000Y-124460000D02*
X154940000Y-124460000D01*
X140970000Y-118110000D02*
X147320000Y-124460000D01*
X140970000Y-116840000D02*
X140970000Y-118110000D01*
%TO.N,P14*%
X140643600Y-113030000D02*
X133350000Y-113030000D01*
X146765000Y-113030000D02*
X140643600Y-113030000D01*
X146765000Y-113745000D02*
X147320000Y-114300000D01*
X146765000Y-113030000D02*
X146765000Y-113745000D01*
X151130000Y-114300000D02*
X152400000Y-113030000D01*
X147320000Y-114300000D02*
X151130000Y-114300000D01*
%TO.N,P15*%
X133350000Y-110490000D02*
X146765000Y-110490000D01*
X146765000Y-111205000D02*
X146765000Y-110490000D01*
X147320000Y-111760000D02*
X146765000Y-111205000D01*
X149225000Y-111760000D02*
X149860000Y-111760000D01*
X149225000Y-111760000D02*
X147320000Y-111760000D01*
X151130000Y-111760000D02*
X149225000Y-111760000D01*
X152400000Y-110490000D02*
X151130000Y-111760000D01*
X156845000Y-110490000D02*
X152400000Y-110490000D01*
%TO.N,P16*%
X133350000Y-107950000D02*
X146765000Y-107950000D01*
X146765000Y-108665000D02*
X147320000Y-109220000D01*
X146765000Y-107950000D02*
X146765000Y-108665000D01*
X147320000Y-109220000D02*
X154940000Y-109220000D01*
%TO.N,P17*%
X133350000Y-105410000D02*
X146765000Y-105410000D01*
X146765000Y-106110000D02*
X147335000Y-106680000D01*
X146765000Y-105410000D02*
X146765000Y-106110000D01*
X147335000Y-106680000D02*
X154940000Y-106680000D01*
%TO.N,P18*%
X133350000Y-102870000D02*
X146765000Y-102870000D01*
X146765000Y-103585000D02*
X147320000Y-104140000D01*
X146765000Y-102870000D02*
X146765000Y-103585000D01*
X147320000Y-104140000D02*
X154940000Y-104140000D01*
%TO.N,P19*%
X133350000Y-100330000D02*
X146765000Y-100330000D01*
X154940000Y-101600000D02*
X152400000Y-101600000D01*
X146765000Y-100330000D02*
X146765000Y-101045000D01*
X146765000Y-101045000D02*
X147320000Y-101600000D01*
X152400000Y-101600000D02*
X147320000Y-101600000D01*
%TO.N,P20*%
X133350000Y-97790000D02*
X146765000Y-97790000D01*
X154940000Y-99060000D02*
X152400000Y-99060000D01*
X146765000Y-97790000D02*
X146765000Y-98505000D01*
X146765000Y-98505000D02*
X147320000Y-99060000D01*
X147320000Y-99060000D02*
X152400000Y-99060000D01*
%TO.N,P21*%
X133350000Y-95250000D02*
X146765000Y-95250000D01*
X146765000Y-95965000D02*
X146765000Y-95250000D01*
X147320000Y-96520000D02*
X146765000Y-95965000D01*
X154940000Y-96520000D02*
X147320000Y-96520000D01*
%TO.N,P22*%
X133350000Y-92710000D02*
X146765000Y-92710000D01*
X146765000Y-92710000D02*
X146765000Y-93265000D01*
X146765000Y-93425000D02*
X146765000Y-92710000D01*
X147320000Y-93980000D02*
X146765000Y-93425000D01*
X154940000Y-93980000D02*
X147320000Y-93980000D01*
%TO.N,P23*%
X133350000Y-90170000D02*
X146765000Y-90170000D01*
X146765000Y-90885000D02*
X146765000Y-90170000D01*
X147320000Y-91440000D02*
X146765000Y-90885000D01*
X154940000Y-91440000D02*
X147320000Y-91440000D01*
%TO.N,P13R*%
X151130000Y-115570000D02*
X148590000Y-115570000D01*
X153670000Y-113030000D02*
X151130000Y-115570000D01*
X156845000Y-113030000D02*
X153670000Y-113030000D01*
%TO.N,P14R*%
X150708542Y-113030000D02*
X148590000Y-113030000D01*
X151978542Y-111760000D02*
X150708542Y-113030000D01*
X154940000Y-111760000D02*
X151978542Y-111760000D01*
%TO.N,P15R*%
X148590000Y-110490000D02*
X149860000Y-110490000D01*
X151130000Y-110490000D02*
X149860000Y-110490000D01*
%TO.N,P16R*%
X156845000Y-107950000D02*
X154305000Y-107950000D01*
X154305000Y-107950000D02*
X148590000Y-107950000D01*
%TO.N,P17R*%
X153731499Y-105410000D02*
X156845000Y-105410000D01*
X148590000Y-105410000D02*
X153670000Y-105410000D01*
%TO.N,P18R*%
X156845000Y-102870000D02*
X148590000Y-102870000D01*
%TO.N,P19R*%
X156845000Y-100330000D02*
X152400000Y-100330000D01*
X152400000Y-100330000D02*
X148590000Y-100330000D01*
%TO.N,P20R*%
X156845000Y-97790000D02*
X152471415Y-97790000D01*
X152471415Y-97790000D02*
X148590000Y-97790000D01*
%TO.N,P21R*%
X152400000Y-95250000D02*
X156845000Y-95250000D01*
X152400000Y-95250000D02*
X148590000Y-95250000D01*
%TO.N,P22R*%
X148590000Y-92710000D02*
X156845000Y-92710000D01*
%TO.N,P23R*%
X153670000Y-90170000D02*
X154940000Y-88900000D01*
X148590000Y-90170000D02*
X153670000Y-90170000D01*
%TD*%
D17*
%TO.N,GND*%
X183244545Y-74358909D02*
X183595208Y-74464780D01*
X183918625Y-74636744D01*
X184202484Y-74868254D01*
X184435965Y-75150486D01*
X184610183Y-75472695D01*
X184718502Y-75822614D01*
X184760000Y-76217443D01*
X184760001Y-124427711D01*
X184721091Y-124824545D01*
X184615220Y-125175206D01*
X184443257Y-125498623D01*
X184211748Y-125782482D01*
X183929514Y-126015965D01*
X183607304Y-126190184D01*
X183257385Y-126298502D01*
X182862557Y-126340000D01*
X109252279Y-126340000D01*
X108855455Y-126301091D01*
X108504794Y-126195220D01*
X108181377Y-126023257D01*
X107897518Y-125791748D01*
X107664035Y-125509514D01*
X107489816Y-125187304D01*
X107381498Y-124837385D01*
X107340000Y-124442557D01*
X107340000Y-101600000D01*
X121106081Y-101600000D01*
X121110000Y-101639788D01*
X121110001Y-122515202D01*
X121106081Y-122555000D01*
X121119963Y-122695940D01*
X121121721Y-122713788D01*
X121136343Y-122761989D01*
X121168038Y-122866473D01*
X121243251Y-123007189D01*
X121293233Y-123068091D01*
X121344473Y-123130528D01*
X121375383Y-123155895D01*
X121522129Y-123302641D01*
X121559774Y-123491898D01*
X121637795Y-123680256D01*
X121751063Y-123849774D01*
X121895226Y-123993937D01*
X122064744Y-124107205D01*
X122253102Y-124185226D01*
X122453061Y-124225000D01*
X122656939Y-124225000D01*
X122856898Y-124185226D01*
X123045256Y-124107205D01*
X123214774Y-123993937D01*
X123358937Y-123849774D01*
X123472205Y-123680256D01*
X123550226Y-123491898D01*
X123590000Y-123291939D01*
X123590000Y-123088061D01*
X123550226Y-122888102D01*
X123472205Y-122699744D01*
X123358937Y-122530226D01*
X123214774Y-122386063D01*
X123115903Y-122320000D01*
X123291939Y-122320000D01*
X123491898Y-122280226D01*
X123680256Y-122202205D01*
X123849774Y-122088937D01*
X123993937Y-121944774D01*
X124107205Y-121775256D01*
X124185226Y-121586898D01*
X124225000Y-121386939D01*
X124225000Y-121183061D01*
X124185226Y-120983102D01*
X124107205Y-120794744D01*
X123993937Y-120625226D01*
X123849774Y-120481063D01*
X123750903Y-120415000D01*
X123926953Y-120415000D01*
X124126912Y-120375226D01*
X124315270Y-120297205D01*
X124484788Y-120183937D01*
X124628951Y-120039774D01*
X124742219Y-119870256D01*
X124820240Y-119681898D01*
X124860014Y-119481939D01*
X124860014Y-119278061D01*
X124820240Y-119078102D01*
X124742219Y-118889744D01*
X124628951Y-118720226D01*
X124484788Y-118576063D01*
X124385917Y-118510000D01*
X124561939Y-118510000D01*
X124761898Y-118470226D01*
X124950256Y-118392205D01*
X125119774Y-118278937D01*
X125263937Y-118134774D01*
X125377205Y-117965256D01*
X125455226Y-117776898D01*
X125495000Y-117576939D01*
X125495000Y-117373061D01*
X125455226Y-117173102D01*
X125377205Y-116984744D01*
X125334034Y-116920134D01*
X125383436Y-116925000D01*
X126076564Y-116925000D01*
X126275626Y-116905394D01*
X126531045Y-116827914D01*
X126766440Y-116702092D01*
X126972765Y-116532765D01*
X127098136Y-116380000D01*
X127299488Y-116380000D01*
X128304105Y-117384618D01*
X128329472Y-117415528D01*
X128387629Y-117463256D01*
X128452810Y-117516749D01*
X128485970Y-117534473D01*
X128593527Y-117591963D01*
X128746212Y-117638280D01*
X128865209Y-117650000D01*
X128865211Y-117650000D01*
X128904999Y-117653919D01*
X128944787Y-117650000D01*
X138072797Y-117650000D01*
X138144095Y-117783387D01*
X138254538Y-117917962D01*
X138389113Y-118028405D01*
X138542648Y-118110472D01*
X138709244Y-118161008D01*
X138882498Y-118178072D01*
X139407502Y-118178072D01*
X139580756Y-118161008D01*
X139747352Y-118110472D01*
X139900887Y-118028405D01*
X140035462Y-117917962D01*
X140057500Y-117891109D01*
X140079538Y-117917962D01*
X140160001Y-117983996D01*
X140160001Y-118070202D01*
X140156081Y-118110000D01*
X140170305Y-118254410D01*
X140171721Y-118268788D01*
X140174205Y-118276975D01*
X140218038Y-118421473D01*
X140293251Y-118562189D01*
X140336158Y-118614471D01*
X140394473Y-118685528D01*
X140425383Y-118710895D01*
X146719105Y-125004618D01*
X146744472Y-125035528D01*
X146789779Y-125072710D01*
X146867810Y-125136749D01*
X146905855Y-125157084D01*
X147008527Y-125211963D01*
X147161212Y-125258280D01*
X147280209Y-125270000D01*
X147280211Y-125270000D01*
X147319999Y-125273919D01*
X147359787Y-125270000D01*
X153755365Y-125270000D01*
X153825363Y-125374759D01*
X154025241Y-125574637D01*
X154260273Y-125731680D01*
X154521426Y-125839853D01*
X154798665Y-125895000D01*
X155081335Y-125895000D01*
X155358574Y-125839853D01*
X155619727Y-125731680D01*
X155854759Y-125574637D01*
X156054637Y-125374759D01*
X156211680Y-125139727D01*
X156319853Y-124878574D01*
X156347890Y-124737625D01*
X156354744Y-124742205D01*
X156543102Y-124820226D01*
X156743061Y-124860000D01*
X156946939Y-124860000D01*
X157146898Y-124820226D01*
X157335256Y-124742205D01*
X157504774Y-124628937D01*
X157586066Y-124547645D01*
X158093470Y-125055049D01*
X158121183Y-125088817D01*
X158154951Y-125116530D01*
X158154953Y-125116532D01*
X158255941Y-125199411D01*
X158409686Y-125281589D01*
X158576510Y-125332195D01*
X158706523Y-125345000D01*
X158706531Y-125345000D01*
X158750000Y-125349281D01*
X158793469Y-125345000D01*
X158885479Y-125345000D01*
X158905363Y-125374759D01*
X159105241Y-125574637D01*
X159340273Y-125731680D01*
X159601426Y-125839853D01*
X159878665Y-125895000D01*
X160161335Y-125895000D01*
X160438574Y-125839853D01*
X160699727Y-125731680D01*
X160934759Y-125574637D01*
X161134637Y-125374759D01*
X161291680Y-125139727D01*
X161296357Y-125128435D01*
X161328963Y-125197420D01*
X161496481Y-125423414D01*
X161704869Y-125612385D01*
X161946119Y-125757070D01*
X162210960Y-125851909D01*
X162433000Y-125730624D01*
X162433000Y-124587000D01*
X162413000Y-124587000D01*
X162413000Y-124333000D01*
X162433000Y-124333000D01*
X162433000Y-123189376D01*
X162687000Y-123189376D01*
X162687000Y-124333000D01*
X162707000Y-124333000D01*
X162707000Y-124587000D01*
X162687000Y-124587000D01*
X162687000Y-125730624D01*
X162909040Y-125851909D01*
X163173881Y-125757070D01*
X163415131Y-125612385D01*
X163623519Y-125423414D01*
X163791037Y-125197420D01*
X163823643Y-125128435D01*
X163828320Y-125139727D01*
X163985363Y-125374759D01*
X164185241Y-125574637D01*
X164420273Y-125731680D01*
X164681426Y-125839853D01*
X164958665Y-125895000D01*
X165241335Y-125895000D01*
X165518574Y-125839853D01*
X165779727Y-125731680D01*
X166014759Y-125574637D01*
X166214637Y-125374759D01*
X166371680Y-125139727D01*
X166479853Y-124878574D01*
X166535000Y-124601335D01*
X166535000Y-124318665D01*
X166479853Y-124041426D01*
X166371680Y-123780273D01*
X166214637Y-123545241D01*
X166014759Y-123345363D01*
X165779727Y-123188320D01*
X165518574Y-123080147D01*
X165241335Y-123025000D01*
X164958665Y-123025000D01*
X164681426Y-123080147D01*
X164420273Y-123188320D01*
X164185241Y-123345363D01*
X163985363Y-123545241D01*
X163828320Y-123780273D01*
X163823643Y-123791565D01*
X163791037Y-123722580D01*
X163623519Y-123496586D01*
X163415131Y-123307615D01*
X163173881Y-123162930D01*
X162909040Y-123068091D01*
X162687000Y-123189376D01*
X162433000Y-123189376D01*
X162210960Y-123068091D01*
X161946119Y-123162930D01*
X161704869Y-123307615D01*
X161496481Y-123496586D01*
X161328963Y-123722580D01*
X161296357Y-123791565D01*
X161291680Y-123780273D01*
X161134637Y-123545241D01*
X160934759Y-123345363D01*
X160905000Y-123325479D01*
X160905000Y-123233465D01*
X160909281Y-123189999D01*
X160905000Y-123146533D01*
X160905000Y-123146523D01*
X160892195Y-123016510D01*
X160841589Y-122849687D01*
X160759411Y-122695941D01*
X160717916Y-122645380D01*
X160676532Y-122594953D01*
X160676530Y-122594951D01*
X160648817Y-122561183D01*
X160615049Y-122533470D01*
X159878355Y-121796776D01*
X159868577Y-121697501D01*
X159803676Y-121483553D01*
X159698284Y-121286377D01*
X159591989Y-121156857D01*
X159250000Y-120814868D01*
X159250000Y-118051362D01*
X159340273Y-118111680D01*
X159601426Y-118219853D01*
X159878665Y-118275000D01*
X160161335Y-118275000D01*
X160438574Y-118219853D01*
X160699727Y-118111680D01*
X160934759Y-117954637D01*
X161134637Y-117754759D01*
X161290000Y-117522241D01*
X161445363Y-117754759D01*
X161645241Y-117954637D01*
X161880273Y-118111680D01*
X162141426Y-118219853D01*
X162418665Y-118275000D01*
X162701335Y-118275000D01*
X162978574Y-118219853D01*
X163239727Y-118111680D01*
X163474759Y-117954637D01*
X163674637Y-117754759D01*
X163830000Y-117522241D01*
X163985363Y-117754759D01*
X164185241Y-117954637D01*
X164420273Y-118111680D01*
X164681426Y-118219853D01*
X164958665Y-118275000D01*
X165241335Y-118275000D01*
X165518574Y-118219853D01*
X165779727Y-118111680D01*
X166014759Y-117954637D01*
X166214637Y-117754759D01*
X166371680Y-117519727D01*
X166479853Y-117258574D01*
X166535000Y-116981335D01*
X166535000Y-116698665D01*
X166479853Y-116421426D01*
X166371680Y-116160273D01*
X166214637Y-115925241D01*
X166014759Y-115725363D01*
X165782241Y-115570000D01*
X166014759Y-115414637D01*
X166214637Y-115214759D01*
X166371680Y-114979727D01*
X166479853Y-114718574D01*
X166535000Y-114441335D01*
X166535000Y-114158665D01*
X166479853Y-113881426D01*
X166371680Y-113620273D01*
X166214637Y-113385241D01*
X166014759Y-113185363D01*
X165782241Y-113030000D01*
X166014759Y-112874637D01*
X166214637Y-112674759D01*
X166371680Y-112439727D01*
X166479853Y-112178574D01*
X166535000Y-111901335D01*
X166535000Y-111618665D01*
X166479853Y-111341426D01*
X166371680Y-111080273D01*
X166214637Y-110845241D01*
X166014759Y-110645363D01*
X165782241Y-110490000D01*
X166014759Y-110334637D01*
X166214637Y-110134759D01*
X166371680Y-109899727D01*
X166479853Y-109638574D01*
X166535000Y-109361335D01*
X166535000Y-109078665D01*
X166479853Y-108801426D01*
X166371680Y-108540273D01*
X166214637Y-108305241D01*
X166014759Y-108105363D01*
X165779727Y-107948320D01*
X165518574Y-107840147D01*
X165241335Y-107785000D01*
X164958665Y-107785000D01*
X164681426Y-107840147D01*
X164420273Y-107948320D01*
X164185241Y-108105363D01*
X163985363Y-108305241D01*
X163830000Y-108537759D01*
X163674637Y-108305241D01*
X163474759Y-108105363D01*
X163239727Y-107948320D01*
X162978574Y-107840147D01*
X162701335Y-107785000D01*
X162418665Y-107785000D01*
X162141426Y-107840147D01*
X161880273Y-107948320D01*
X161645241Y-108105363D01*
X161445363Y-108305241D01*
X161288320Y-108540273D01*
X161180147Y-108801426D01*
X161125000Y-109078665D01*
X161125000Y-109361335D01*
X161180147Y-109638574D01*
X161288320Y-109899727D01*
X161445363Y-110134759D01*
X161645241Y-110334637D01*
X161877759Y-110490000D01*
X161645241Y-110645363D01*
X161445363Y-110845241D01*
X161288320Y-111080273D01*
X161180147Y-111341426D01*
X161125000Y-111618665D01*
X161125000Y-111901335D01*
X161180147Y-112178574D01*
X161288320Y-112439727D01*
X161445363Y-112674759D01*
X161645241Y-112874637D01*
X161877759Y-113030000D01*
X161645241Y-113185363D01*
X161445363Y-113385241D01*
X161288320Y-113620273D01*
X161180147Y-113881426D01*
X161125000Y-114158665D01*
X161125000Y-114441335D01*
X161180147Y-114718574D01*
X161288320Y-114979727D01*
X161445363Y-115214759D01*
X161645241Y-115414637D01*
X161877759Y-115570000D01*
X161645241Y-115725363D01*
X161445363Y-115925241D01*
X161290000Y-116157759D01*
X161134637Y-115925241D01*
X160934759Y-115725363D01*
X160699727Y-115568320D01*
X160438574Y-115460147D01*
X160161335Y-115405000D01*
X159878665Y-115405000D01*
X159601426Y-115460147D01*
X159340273Y-115568320D01*
X159250000Y-115628638D01*
X159250000Y-103998665D01*
X168745000Y-103998665D01*
X168745000Y-104281335D01*
X168800147Y-104558574D01*
X168908320Y-104819727D01*
X169065363Y-105054759D01*
X169265241Y-105254637D01*
X169497759Y-105410000D01*
X169265241Y-105565363D01*
X169065363Y-105765241D01*
X168908320Y-106000273D01*
X168800147Y-106261426D01*
X168745000Y-106538665D01*
X168745000Y-106821335D01*
X168800147Y-107098574D01*
X168908320Y-107359727D01*
X169065363Y-107594759D01*
X169265241Y-107794637D01*
X169497759Y-107950000D01*
X169265241Y-108105363D01*
X169065363Y-108305241D01*
X168908320Y-108540273D01*
X168800147Y-108801426D01*
X168745000Y-109078665D01*
X168745000Y-109361335D01*
X168800147Y-109638574D01*
X168908320Y-109899727D01*
X169065363Y-110134759D01*
X169265241Y-110334637D01*
X169497759Y-110490000D01*
X169265241Y-110645363D01*
X169065363Y-110845241D01*
X168908320Y-111080273D01*
X168800147Y-111341426D01*
X168745000Y-111618665D01*
X168745000Y-111901335D01*
X168800147Y-112178574D01*
X168908320Y-112439727D01*
X169065363Y-112674759D01*
X169265241Y-112874637D01*
X169497759Y-113030000D01*
X169265241Y-113185363D01*
X169065363Y-113385241D01*
X168908320Y-113620273D01*
X168800147Y-113881426D01*
X168745000Y-114158665D01*
X168745000Y-114441335D01*
X168800147Y-114718574D01*
X168908320Y-114979727D01*
X169065363Y-115214759D01*
X169265241Y-115414637D01*
X169497759Y-115570000D01*
X169265241Y-115725363D01*
X169065363Y-115925241D01*
X168908320Y-116160273D01*
X168800147Y-116421426D01*
X168745000Y-116698665D01*
X168745000Y-116981335D01*
X168800147Y-117258574D01*
X168908320Y-117519727D01*
X169065363Y-117754759D01*
X169265241Y-117954637D01*
X169497759Y-118110000D01*
X169265241Y-118265363D01*
X169065363Y-118465241D01*
X168908320Y-118700273D01*
X168800147Y-118961426D01*
X168745000Y-119238665D01*
X168745000Y-119521335D01*
X168800147Y-119798574D01*
X168908320Y-120059727D01*
X169065363Y-120294759D01*
X169265241Y-120494637D01*
X169497759Y-120650000D01*
X169265241Y-120805363D01*
X169065363Y-121005241D01*
X168908320Y-121240273D01*
X168800147Y-121501426D01*
X168745000Y-121778665D01*
X168745000Y-122061335D01*
X168800147Y-122338574D01*
X168908320Y-122599727D01*
X169065363Y-122834759D01*
X169265241Y-123034637D01*
X169497759Y-123190000D01*
X169265241Y-123345363D01*
X169065363Y-123545241D01*
X168908320Y-123780273D01*
X168800147Y-124041426D01*
X168745000Y-124318665D01*
X168745000Y-124601335D01*
X168800147Y-124878574D01*
X168908320Y-125139727D01*
X169065363Y-125374759D01*
X169265241Y-125574637D01*
X169500273Y-125731680D01*
X169761426Y-125839853D01*
X170038665Y-125895000D01*
X170321335Y-125895000D01*
X170598574Y-125839853D01*
X170859727Y-125731680D01*
X171094759Y-125574637D01*
X171294637Y-125374759D01*
X171451680Y-125139727D01*
X171559853Y-124878574D01*
X171615000Y-124601335D01*
X171615000Y-124318665D01*
X171559853Y-124041426D01*
X171451680Y-123780273D01*
X171294637Y-123545241D01*
X171094759Y-123345363D01*
X170862241Y-123190000D01*
X171094759Y-123034637D01*
X171294637Y-122834759D01*
X171451680Y-122599727D01*
X171559853Y-122338574D01*
X171615000Y-122061335D01*
X171615000Y-121778665D01*
X171559853Y-121501426D01*
X171451680Y-121240273D01*
X171294637Y-121005241D01*
X171094759Y-120805363D01*
X170862241Y-120650000D01*
X171094759Y-120494637D01*
X171294637Y-120294759D01*
X171451680Y-120059727D01*
X171559853Y-119798574D01*
X171615000Y-119521335D01*
X171615000Y-119238665D01*
X171559853Y-118961426D01*
X171451680Y-118700273D01*
X171294637Y-118465241D01*
X171094759Y-118265363D01*
X170862241Y-118110000D01*
X171094759Y-117954637D01*
X171294637Y-117754759D01*
X171451680Y-117519727D01*
X171559853Y-117258574D01*
X171615000Y-116981335D01*
X171615000Y-116698665D01*
X171559853Y-116421426D01*
X171451680Y-116160273D01*
X171294637Y-115925241D01*
X171094759Y-115725363D01*
X170862241Y-115570000D01*
X171094759Y-115414637D01*
X171294637Y-115214759D01*
X171451680Y-114979727D01*
X171559853Y-114718574D01*
X171615000Y-114441335D01*
X171615000Y-114158665D01*
X171559853Y-113881426D01*
X171451680Y-113620273D01*
X171294637Y-113385241D01*
X171094759Y-113185363D01*
X170862241Y-113030000D01*
X171094759Y-112874637D01*
X171294637Y-112674759D01*
X171451680Y-112439727D01*
X171559853Y-112178574D01*
X171615000Y-111901335D01*
X171615000Y-111618665D01*
X171559853Y-111341426D01*
X171451680Y-111080273D01*
X171294637Y-110845241D01*
X171094759Y-110645363D01*
X170862241Y-110490000D01*
X171094759Y-110334637D01*
X171294637Y-110134759D01*
X171451680Y-109899727D01*
X171559853Y-109638574D01*
X171615000Y-109361335D01*
X171615000Y-109078665D01*
X171559853Y-108801426D01*
X171451680Y-108540273D01*
X171294637Y-108305241D01*
X171094759Y-108105363D01*
X170862241Y-107950000D01*
X171094759Y-107794637D01*
X171294637Y-107594759D01*
X171451680Y-107359727D01*
X171559853Y-107098574D01*
X171615000Y-106821335D01*
X171615000Y-106538665D01*
X171559853Y-106261426D01*
X171451680Y-106000273D01*
X171294637Y-105765241D01*
X171094759Y-105565363D01*
X170862241Y-105410000D01*
X171094759Y-105254637D01*
X171294637Y-105054759D01*
X171451680Y-104819727D01*
X171559853Y-104558574D01*
X171615000Y-104281335D01*
X171615000Y-103998665D01*
X171559853Y-103721426D01*
X171451680Y-103460273D01*
X171294637Y-103225241D01*
X171094759Y-103025363D01*
X170859727Y-102868320D01*
X170849135Y-102863933D01*
X171035131Y-102752385D01*
X171243519Y-102563414D01*
X171411037Y-102337420D01*
X171531246Y-102083087D01*
X171571904Y-101949039D01*
X171449915Y-101727000D01*
X170307000Y-101727000D01*
X170307000Y-101747000D01*
X170053000Y-101747000D01*
X170053000Y-101727000D01*
X168910085Y-101727000D01*
X168788096Y-101949039D01*
X168828754Y-102083087D01*
X168948963Y-102337420D01*
X169116481Y-102563414D01*
X169324869Y-102752385D01*
X169510865Y-102863933D01*
X169500273Y-102868320D01*
X169265241Y-103025363D01*
X169065363Y-103225241D01*
X168908320Y-103460273D01*
X168800147Y-103721426D01*
X168745000Y-103998665D01*
X159250000Y-103998665D01*
X159250000Y-91298665D01*
X159855000Y-91298665D01*
X159855000Y-91581335D01*
X159910147Y-91858574D01*
X160018320Y-92119727D01*
X160175363Y-92354759D01*
X160375241Y-92554637D01*
X160610273Y-92711680D01*
X160871426Y-92819853D01*
X161148665Y-92875000D01*
X161431335Y-92875000D01*
X161708574Y-92819853D01*
X161969727Y-92711680D01*
X162204759Y-92554637D01*
X162404637Y-92354759D01*
X162560000Y-92122241D01*
X162715363Y-92354759D01*
X162915241Y-92554637D01*
X163150273Y-92711680D01*
X163411426Y-92819853D01*
X163688665Y-92875000D01*
X163971335Y-92875000D01*
X164248574Y-92819853D01*
X164509727Y-92711680D01*
X164744759Y-92554637D01*
X164944637Y-92354759D01*
X165101680Y-92119727D01*
X165209853Y-91858574D01*
X165265000Y-91581335D01*
X165265000Y-91298665D01*
X165209853Y-91021426D01*
X165101680Y-90760273D01*
X164944637Y-90525241D01*
X164744759Y-90325363D01*
X164509727Y-90168320D01*
X164248574Y-90060147D01*
X163971335Y-90005000D01*
X163688665Y-90005000D01*
X163411426Y-90060147D01*
X163150273Y-90168320D01*
X162915241Y-90325363D01*
X162715363Y-90525241D01*
X162560000Y-90757759D01*
X162404637Y-90525241D01*
X162204759Y-90325363D01*
X161969727Y-90168320D01*
X161708574Y-90060147D01*
X161431335Y-90005000D01*
X161148665Y-90005000D01*
X160871426Y-90060147D01*
X160610273Y-90168320D01*
X160375241Y-90325363D01*
X160175363Y-90525241D01*
X160018320Y-90760273D01*
X159910147Y-91021426D01*
X159855000Y-91298665D01*
X159250000Y-91298665D01*
X159250000Y-85780751D01*
X159255491Y-85725000D01*
X159250000Y-85669248D01*
X159250000Y-85145752D01*
X159255491Y-85090000D01*
X159233577Y-84867501D01*
X159168676Y-84653553D01*
X159063284Y-84456377D01*
X158921449Y-84283551D01*
X158748623Y-84141716D01*
X158551447Y-84036324D01*
X158337499Y-83971423D01*
X158170752Y-83955000D01*
X158115000Y-83949509D01*
X158059249Y-83955000D01*
X157535751Y-83955000D01*
X157480000Y-83949509D01*
X157424249Y-83955000D01*
X156375000Y-83955000D01*
X156375000Y-83678665D01*
X156319853Y-83401426D01*
X156211680Y-83140273D01*
X156054637Y-82905241D01*
X155854759Y-82705363D01*
X155622241Y-82550000D01*
X155854759Y-82394637D01*
X156054637Y-82194759D01*
X156211680Y-81959727D01*
X156319853Y-81698574D01*
X156375000Y-81421335D01*
X156375000Y-81138665D01*
X156319853Y-80861426D01*
X156211680Y-80600273D01*
X156054637Y-80365241D01*
X155854759Y-80165363D01*
X155622241Y-80010000D01*
X155854759Y-79854637D01*
X156054637Y-79654759D01*
X156211680Y-79419727D01*
X156319853Y-79158574D01*
X156375000Y-78881335D01*
X156375000Y-78598665D01*
X156319853Y-78321426D01*
X156211680Y-78060273D01*
X156054637Y-77825241D01*
X155854759Y-77625363D01*
X155619727Y-77468320D01*
X155609135Y-77463933D01*
X155795131Y-77352385D01*
X156003519Y-77163414D01*
X156171037Y-76937420D01*
X156291246Y-76683087D01*
X156331904Y-76549039D01*
X156209915Y-76327000D01*
X155067000Y-76327000D01*
X155067000Y-76347000D01*
X154813000Y-76347000D01*
X154813000Y-76327000D01*
X153670085Y-76327000D01*
X153548096Y-76549039D01*
X153588754Y-76683087D01*
X153708963Y-76937420D01*
X153876481Y-77163414D01*
X154084869Y-77352385D01*
X154270865Y-77463933D01*
X154260273Y-77468320D01*
X154025241Y-77625363D01*
X153825363Y-77825241D01*
X153755365Y-77930000D01*
X129579788Y-77930000D01*
X129540000Y-77926081D01*
X129500212Y-77930000D01*
X129500209Y-77930000D01*
X129381212Y-77941720D01*
X129228527Y-77988037D01*
X129087811Y-78063251D01*
X128964472Y-78164472D01*
X128939105Y-78195382D01*
X122010383Y-85124105D01*
X121979473Y-85149472D01*
X121938127Y-85199853D01*
X121878251Y-85272811D01*
X121857038Y-85312499D01*
X121803038Y-85413527D01*
X121758084Y-85561721D01*
X121756721Y-85566213D01*
X121741081Y-85725000D01*
X121745001Y-85764798D01*
X121745000Y-92035212D01*
X121741081Y-92075000D01*
X121745000Y-92114788D01*
X121745000Y-92114790D01*
X121756720Y-92233787D01*
X121803037Y-92386472D01*
X121833986Y-92444374D01*
X121878251Y-92527189D01*
X121900777Y-92554637D01*
X121979472Y-92650528D01*
X122010388Y-92675900D01*
X124162145Y-94827658D01*
X124114606Y-94984374D01*
X124088444Y-95250000D01*
X124114606Y-95515626D01*
X124192086Y-95771045D01*
X124317908Y-96006440D01*
X124487235Y-96212765D01*
X124693560Y-96382092D01*
X124928955Y-96507914D01*
X124968797Y-96520000D01*
X124928955Y-96532086D01*
X124693560Y-96657908D01*
X124487235Y-96827235D01*
X124317908Y-97033560D01*
X124192086Y-97268955D01*
X124114606Y-97524374D01*
X124088444Y-97790000D01*
X124114606Y-98055626D01*
X124162145Y-98212342D01*
X121375388Y-100999100D01*
X121344472Y-101024472D01*
X121293617Y-101086440D01*
X121243251Y-101147811D01*
X121225284Y-101181426D01*
X121168037Y-101288528D01*
X121121720Y-101441213D01*
X121112522Y-101534606D01*
X121106081Y-101600000D01*
X107340000Y-101600000D01*
X107340000Y-76232279D01*
X107377388Y-75850961D01*
X153548096Y-75850961D01*
X153670085Y-76073000D01*
X154633394Y-76073000D01*
X154850197Y-76289803D01*
X154869443Y-76305597D01*
X154891399Y-76317333D01*
X154915224Y-76324560D01*
X154940000Y-76327000D01*
X154964776Y-76324560D01*
X154988601Y-76317333D01*
X155010557Y-76305597D01*
X155029803Y-76289803D01*
X155246606Y-76073000D01*
X156209915Y-76073000D01*
X156217790Y-76058665D01*
X168745000Y-76058665D01*
X168745000Y-76341335D01*
X168800147Y-76618574D01*
X168908320Y-76879727D01*
X169065363Y-77114759D01*
X169265241Y-77314637D01*
X169497759Y-77470000D01*
X169265241Y-77625363D01*
X169065363Y-77825241D01*
X168908320Y-78060273D01*
X168800147Y-78321426D01*
X168745000Y-78598665D01*
X168745000Y-78881335D01*
X168800147Y-79158574D01*
X168908320Y-79419727D01*
X169065363Y-79654759D01*
X169265241Y-79854637D01*
X169497759Y-80010000D01*
X169265241Y-80165363D01*
X169065363Y-80365241D01*
X168908320Y-80600273D01*
X168800147Y-80861426D01*
X168745000Y-81138665D01*
X168745000Y-81421335D01*
X168800147Y-81698574D01*
X168908320Y-81959727D01*
X169065363Y-82194759D01*
X169265241Y-82394637D01*
X169497759Y-82550000D01*
X169265241Y-82705363D01*
X169065363Y-82905241D01*
X168908320Y-83140273D01*
X168800147Y-83401426D01*
X168745000Y-83678665D01*
X168745000Y-83961335D01*
X168800147Y-84238574D01*
X168908320Y-84499727D01*
X169065363Y-84734759D01*
X169265241Y-84934637D01*
X169497759Y-85090000D01*
X169265241Y-85245363D01*
X169065363Y-85445241D01*
X168908320Y-85680273D01*
X168800147Y-85941426D01*
X168745000Y-86218665D01*
X168745000Y-86501335D01*
X168800147Y-86778574D01*
X168908320Y-87039727D01*
X169065363Y-87274759D01*
X169265241Y-87474637D01*
X169497759Y-87630000D01*
X169265241Y-87785363D01*
X169065363Y-87985241D01*
X168908320Y-88220273D01*
X168800147Y-88481426D01*
X168745000Y-88758665D01*
X168745000Y-89041335D01*
X168800147Y-89318574D01*
X168908320Y-89579727D01*
X169065363Y-89814759D01*
X169265241Y-90014637D01*
X169497759Y-90170000D01*
X169265241Y-90325363D01*
X169065363Y-90525241D01*
X168908320Y-90760273D01*
X168800147Y-91021426D01*
X168745000Y-91298665D01*
X168745000Y-91581335D01*
X168800147Y-91858574D01*
X168908320Y-92119727D01*
X169065363Y-92354759D01*
X169265241Y-92554637D01*
X169497759Y-92710000D01*
X169265241Y-92865363D01*
X169065363Y-93065241D01*
X168908320Y-93300273D01*
X168800147Y-93561426D01*
X168745000Y-93838665D01*
X168745000Y-94121335D01*
X168800147Y-94398574D01*
X168908320Y-94659727D01*
X169065363Y-94894759D01*
X169265241Y-95094637D01*
X169497759Y-95250000D01*
X169265241Y-95405363D01*
X169065363Y-95605241D01*
X168908320Y-95840273D01*
X168800147Y-96101426D01*
X168745000Y-96378665D01*
X168745000Y-96661335D01*
X168800147Y-96938574D01*
X168908320Y-97199727D01*
X169065363Y-97434759D01*
X169265241Y-97634637D01*
X169497759Y-97790000D01*
X169265241Y-97945363D01*
X169065363Y-98145241D01*
X168908320Y-98380273D01*
X168800147Y-98641426D01*
X168745000Y-98918665D01*
X168745000Y-99201335D01*
X168800147Y-99478574D01*
X168908320Y-99739727D01*
X169065363Y-99974759D01*
X169265241Y-100174637D01*
X169500273Y-100331680D01*
X169510865Y-100336067D01*
X169324869Y-100447615D01*
X169116481Y-100636586D01*
X168948963Y-100862580D01*
X168828754Y-101116913D01*
X168788096Y-101250961D01*
X168910085Y-101473000D01*
X170053000Y-101473000D01*
X170053000Y-101453000D01*
X170307000Y-101453000D01*
X170307000Y-101473000D01*
X171449915Y-101473000D01*
X171571904Y-101250961D01*
X171531246Y-101116913D01*
X171411037Y-100862580D01*
X171243519Y-100636586D01*
X171035131Y-100447615D01*
X170849135Y-100336067D01*
X170859727Y-100331680D01*
X171094759Y-100174637D01*
X171294637Y-99974759D01*
X171451680Y-99739727D01*
X171559853Y-99478574D01*
X171615000Y-99201335D01*
X171615000Y-98918665D01*
X171559853Y-98641426D01*
X171451680Y-98380273D01*
X171294637Y-98145241D01*
X171094759Y-97945363D01*
X170862241Y-97790000D01*
X171094759Y-97634637D01*
X171294637Y-97434759D01*
X171451680Y-97199727D01*
X171559853Y-96938574D01*
X171615000Y-96661335D01*
X171615000Y-96378665D01*
X171559853Y-96101426D01*
X171451680Y-95840273D01*
X171294637Y-95605241D01*
X171094759Y-95405363D01*
X170862241Y-95250000D01*
X171094759Y-95094637D01*
X171294637Y-94894759D01*
X171451680Y-94659727D01*
X171559853Y-94398574D01*
X171615000Y-94121335D01*
X171615000Y-93838665D01*
X171559853Y-93561426D01*
X171451680Y-93300273D01*
X171294637Y-93065241D01*
X171094759Y-92865363D01*
X170862241Y-92710000D01*
X171094759Y-92554637D01*
X171294637Y-92354759D01*
X171451680Y-92119727D01*
X171559853Y-91858574D01*
X171615000Y-91581335D01*
X171615000Y-91298665D01*
X171559853Y-91021426D01*
X171451680Y-90760273D01*
X171294637Y-90525241D01*
X171094759Y-90325363D01*
X170862241Y-90170000D01*
X171094759Y-90014637D01*
X171294637Y-89814759D01*
X171451680Y-89579727D01*
X171559853Y-89318574D01*
X171615000Y-89041335D01*
X171615000Y-88758665D01*
X171559853Y-88481426D01*
X171451680Y-88220273D01*
X171294637Y-87985241D01*
X171094759Y-87785363D01*
X170862241Y-87630000D01*
X171094759Y-87474637D01*
X171294637Y-87274759D01*
X171451680Y-87039727D01*
X171559853Y-86778574D01*
X171615000Y-86501335D01*
X171615000Y-86218665D01*
X171559853Y-85941426D01*
X171451680Y-85680273D01*
X171294637Y-85445241D01*
X171094759Y-85245363D01*
X170862241Y-85090000D01*
X171094759Y-84934637D01*
X171294637Y-84734759D01*
X171451680Y-84499727D01*
X171559853Y-84238574D01*
X171615000Y-83961335D01*
X171615000Y-83678665D01*
X171559853Y-83401426D01*
X171451680Y-83140273D01*
X171294637Y-82905241D01*
X171094759Y-82705363D01*
X170862241Y-82550000D01*
X171094759Y-82394637D01*
X171294637Y-82194759D01*
X171451680Y-81959727D01*
X171559853Y-81698574D01*
X171615000Y-81421335D01*
X171615000Y-81138665D01*
X171559853Y-80861426D01*
X171451680Y-80600273D01*
X171294637Y-80365241D01*
X171094759Y-80165363D01*
X170862241Y-80010000D01*
X171094759Y-79854637D01*
X171294637Y-79654759D01*
X171451680Y-79419727D01*
X171559853Y-79158574D01*
X171615000Y-78881335D01*
X171615000Y-78598665D01*
X171559853Y-78321426D01*
X171451680Y-78060273D01*
X171294637Y-77825241D01*
X171094759Y-77625363D01*
X170862241Y-77470000D01*
X171094759Y-77314637D01*
X171294637Y-77114759D01*
X171451680Y-76879727D01*
X171559853Y-76618574D01*
X171615000Y-76341335D01*
X171615000Y-76058665D01*
X171559853Y-75781426D01*
X171451680Y-75520273D01*
X171294637Y-75285241D01*
X171094759Y-75085363D01*
X170859727Y-74928320D01*
X170598574Y-74820147D01*
X170321335Y-74765000D01*
X170038665Y-74765000D01*
X169761426Y-74820147D01*
X169500273Y-74928320D01*
X169265241Y-75085363D01*
X169065363Y-75285241D01*
X168908320Y-75520273D01*
X168800147Y-75781426D01*
X168745000Y-76058665D01*
X156217790Y-76058665D01*
X156331904Y-75850961D01*
X156291246Y-75716913D01*
X156171037Y-75462580D01*
X156003519Y-75236586D01*
X155795131Y-75047615D01*
X155553881Y-74902930D01*
X155289040Y-74808091D01*
X155100619Y-74911013D01*
X155029803Y-74840197D01*
X155010557Y-74824403D01*
X154988601Y-74812667D01*
X154964776Y-74805440D01*
X154940000Y-74803000D01*
X154915224Y-74805440D01*
X154891399Y-74812667D01*
X154869443Y-74824403D01*
X154850197Y-74840197D01*
X154779381Y-74911013D01*
X154590960Y-74808091D01*
X154326119Y-74902930D01*
X154084869Y-75047615D01*
X153876481Y-75236586D01*
X153708963Y-75462580D01*
X153588754Y-75716913D01*
X153548096Y-75850961D01*
X107377388Y-75850961D01*
X107378909Y-75835455D01*
X107484780Y-75484792D01*
X107656744Y-75161375D01*
X107888254Y-74877516D01*
X108170486Y-74644035D01*
X108492695Y-74469817D01*
X108842614Y-74361498D01*
X109237443Y-74320000D01*
X182847721Y-74320000D01*
X183244545Y-74358909D01*
%TA.AperFunction,Conductor*%
D18*
G36*
X183244545Y-74358909D02*
G01*
X183595208Y-74464780D01*
X183918625Y-74636744D01*
X184202484Y-74868254D01*
X184435965Y-75150486D01*
X184610183Y-75472695D01*
X184718502Y-75822614D01*
X184760000Y-76217443D01*
X184760001Y-124427711D01*
X184721091Y-124824545D01*
X184615220Y-125175206D01*
X184443257Y-125498623D01*
X184211748Y-125782482D01*
X183929514Y-126015965D01*
X183607304Y-126190184D01*
X183257385Y-126298502D01*
X182862557Y-126340000D01*
X109252279Y-126340000D01*
X108855455Y-126301091D01*
X108504794Y-126195220D01*
X108181377Y-126023257D01*
X107897518Y-125791748D01*
X107664035Y-125509514D01*
X107489816Y-125187304D01*
X107381498Y-124837385D01*
X107340000Y-124442557D01*
X107340000Y-101600000D01*
X121106081Y-101600000D01*
X121110000Y-101639788D01*
X121110001Y-122515202D01*
X121106081Y-122555000D01*
X121119963Y-122695940D01*
X121121721Y-122713788D01*
X121136343Y-122761989D01*
X121168038Y-122866473D01*
X121243251Y-123007189D01*
X121293233Y-123068091D01*
X121344473Y-123130528D01*
X121375383Y-123155895D01*
X121522129Y-123302641D01*
X121559774Y-123491898D01*
X121637795Y-123680256D01*
X121751063Y-123849774D01*
X121895226Y-123993937D01*
X122064744Y-124107205D01*
X122253102Y-124185226D01*
X122453061Y-124225000D01*
X122656939Y-124225000D01*
X122856898Y-124185226D01*
X123045256Y-124107205D01*
X123214774Y-123993937D01*
X123358937Y-123849774D01*
X123472205Y-123680256D01*
X123550226Y-123491898D01*
X123590000Y-123291939D01*
X123590000Y-123088061D01*
X123550226Y-122888102D01*
X123472205Y-122699744D01*
X123358937Y-122530226D01*
X123214774Y-122386063D01*
X123115903Y-122320000D01*
X123291939Y-122320000D01*
X123491898Y-122280226D01*
X123680256Y-122202205D01*
X123849774Y-122088937D01*
X123993937Y-121944774D01*
X124107205Y-121775256D01*
X124185226Y-121586898D01*
X124225000Y-121386939D01*
X124225000Y-121183061D01*
X124185226Y-120983102D01*
X124107205Y-120794744D01*
X123993937Y-120625226D01*
X123849774Y-120481063D01*
X123750903Y-120415000D01*
X123926953Y-120415000D01*
X124126912Y-120375226D01*
X124315270Y-120297205D01*
X124484788Y-120183937D01*
X124628951Y-120039774D01*
X124742219Y-119870256D01*
X124820240Y-119681898D01*
X124860014Y-119481939D01*
X124860014Y-119278061D01*
X124820240Y-119078102D01*
X124742219Y-118889744D01*
X124628951Y-118720226D01*
X124484788Y-118576063D01*
X124385917Y-118510000D01*
X124561939Y-118510000D01*
X124761898Y-118470226D01*
X124950256Y-118392205D01*
X125119774Y-118278937D01*
X125263937Y-118134774D01*
X125377205Y-117965256D01*
X125455226Y-117776898D01*
X125495000Y-117576939D01*
X125495000Y-117373061D01*
X125455226Y-117173102D01*
X125377205Y-116984744D01*
X125334034Y-116920134D01*
X125383436Y-116925000D01*
X126076564Y-116925000D01*
X126275626Y-116905394D01*
X126531045Y-116827914D01*
X126766440Y-116702092D01*
X126972765Y-116532765D01*
X127098136Y-116380000D01*
X127299488Y-116380000D01*
X128304105Y-117384618D01*
X128329472Y-117415528D01*
X128387629Y-117463256D01*
X128452810Y-117516749D01*
X128485970Y-117534473D01*
X128593527Y-117591963D01*
X128746212Y-117638280D01*
X128865209Y-117650000D01*
X128865211Y-117650000D01*
X128904999Y-117653919D01*
X128944787Y-117650000D01*
X138072797Y-117650000D01*
X138144095Y-117783387D01*
X138254538Y-117917962D01*
X138389113Y-118028405D01*
X138542648Y-118110472D01*
X138709244Y-118161008D01*
X138882498Y-118178072D01*
X139407502Y-118178072D01*
X139580756Y-118161008D01*
X139747352Y-118110472D01*
X139900887Y-118028405D01*
X140035462Y-117917962D01*
X140057500Y-117891109D01*
X140079538Y-117917962D01*
X140160001Y-117983996D01*
X140160001Y-118070202D01*
X140156081Y-118110000D01*
X140170305Y-118254410D01*
X140171721Y-118268788D01*
X140174205Y-118276975D01*
X140218038Y-118421473D01*
X140293251Y-118562189D01*
X140336158Y-118614471D01*
X140394473Y-118685528D01*
X140425383Y-118710895D01*
X146719105Y-125004618D01*
X146744472Y-125035528D01*
X146789779Y-125072710D01*
X146867810Y-125136749D01*
X146905855Y-125157084D01*
X147008527Y-125211963D01*
X147161212Y-125258280D01*
X147280209Y-125270000D01*
X147280211Y-125270000D01*
X147319999Y-125273919D01*
X147359787Y-125270000D01*
X153755365Y-125270000D01*
X153825363Y-125374759D01*
X154025241Y-125574637D01*
X154260273Y-125731680D01*
X154521426Y-125839853D01*
X154798665Y-125895000D01*
X155081335Y-125895000D01*
X155358574Y-125839853D01*
X155619727Y-125731680D01*
X155854759Y-125574637D01*
X156054637Y-125374759D01*
X156211680Y-125139727D01*
X156319853Y-124878574D01*
X156347890Y-124737625D01*
X156354744Y-124742205D01*
X156543102Y-124820226D01*
X156743061Y-124860000D01*
X156946939Y-124860000D01*
X157146898Y-124820226D01*
X157335256Y-124742205D01*
X157504774Y-124628937D01*
X157586066Y-124547645D01*
X158093470Y-125055049D01*
X158121183Y-125088817D01*
X158154951Y-125116530D01*
X158154953Y-125116532D01*
X158255941Y-125199411D01*
X158409686Y-125281589D01*
X158576510Y-125332195D01*
X158706523Y-125345000D01*
X158706531Y-125345000D01*
X158750000Y-125349281D01*
X158793469Y-125345000D01*
X158885479Y-125345000D01*
X158905363Y-125374759D01*
X159105241Y-125574637D01*
X159340273Y-125731680D01*
X159601426Y-125839853D01*
X159878665Y-125895000D01*
X160161335Y-125895000D01*
X160438574Y-125839853D01*
X160699727Y-125731680D01*
X160934759Y-125574637D01*
X161134637Y-125374759D01*
X161291680Y-125139727D01*
X161296357Y-125128435D01*
X161328963Y-125197420D01*
X161496481Y-125423414D01*
X161704869Y-125612385D01*
X161946119Y-125757070D01*
X162210960Y-125851909D01*
X162433000Y-125730624D01*
X162433000Y-124587000D01*
X162413000Y-124587000D01*
X162413000Y-124333000D01*
X162433000Y-124333000D01*
X162433000Y-123189376D01*
X162687000Y-123189376D01*
X162687000Y-124333000D01*
X162707000Y-124333000D01*
X162707000Y-124587000D01*
X162687000Y-124587000D01*
X162687000Y-125730624D01*
X162909040Y-125851909D01*
X163173881Y-125757070D01*
X163415131Y-125612385D01*
X163623519Y-125423414D01*
X163791037Y-125197420D01*
X163823643Y-125128435D01*
X163828320Y-125139727D01*
X163985363Y-125374759D01*
X164185241Y-125574637D01*
X164420273Y-125731680D01*
X164681426Y-125839853D01*
X164958665Y-125895000D01*
X165241335Y-125895000D01*
X165518574Y-125839853D01*
X165779727Y-125731680D01*
X166014759Y-125574637D01*
X166214637Y-125374759D01*
X166371680Y-125139727D01*
X166479853Y-124878574D01*
X166535000Y-124601335D01*
X166535000Y-124318665D01*
X166479853Y-124041426D01*
X166371680Y-123780273D01*
X166214637Y-123545241D01*
X166014759Y-123345363D01*
X165779727Y-123188320D01*
X165518574Y-123080147D01*
X165241335Y-123025000D01*
X164958665Y-123025000D01*
X164681426Y-123080147D01*
X164420273Y-123188320D01*
X164185241Y-123345363D01*
X163985363Y-123545241D01*
X163828320Y-123780273D01*
X163823643Y-123791565D01*
X163791037Y-123722580D01*
X163623519Y-123496586D01*
X163415131Y-123307615D01*
X163173881Y-123162930D01*
X162909040Y-123068091D01*
X162687000Y-123189376D01*
X162433000Y-123189376D01*
X162210960Y-123068091D01*
X161946119Y-123162930D01*
X161704869Y-123307615D01*
X161496481Y-123496586D01*
X161328963Y-123722580D01*
X161296357Y-123791565D01*
X161291680Y-123780273D01*
X161134637Y-123545241D01*
X160934759Y-123345363D01*
X160905000Y-123325479D01*
X160905000Y-123233465D01*
X160909281Y-123189999D01*
X160905000Y-123146533D01*
X160905000Y-123146523D01*
X160892195Y-123016510D01*
X160841589Y-122849687D01*
X160759411Y-122695941D01*
X160717916Y-122645380D01*
X160676532Y-122594953D01*
X160676530Y-122594951D01*
X160648817Y-122561183D01*
X160615049Y-122533470D01*
X159878355Y-121796776D01*
X159868577Y-121697501D01*
X159803676Y-121483553D01*
X159698284Y-121286377D01*
X159591989Y-121156857D01*
X159250000Y-120814868D01*
X159250000Y-118051362D01*
X159340273Y-118111680D01*
X159601426Y-118219853D01*
X159878665Y-118275000D01*
X160161335Y-118275000D01*
X160438574Y-118219853D01*
X160699727Y-118111680D01*
X160934759Y-117954637D01*
X161134637Y-117754759D01*
X161290000Y-117522241D01*
X161445363Y-117754759D01*
X161645241Y-117954637D01*
X161880273Y-118111680D01*
X162141426Y-118219853D01*
X162418665Y-118275000D01*
X162701335Y-118275000D01*
X162978574Y-118219853D01*
X163239727Y-118111680D01*
X163474759Y-117954637D01*
X163674637Y-117754759D01*
X163830000Y-117522241D01*
X163985363Y-117754759D01*
X164185241Y-117954637D01*
X164420273Y-118111680D01*
X164681426Y-118219853D01*
X164958665Y-118275000D01*
X165241335Y-118275000D01*
X165518574Y-118219853D01*
X165779727Y-118111680D01*
X166014759Y-117954637D01*
X166214637Y-117754759D01*
X166371680Y-117519727D01*
X166479853Y-117258574D01*
X166535000Y-116981335D01*
X166535000Y-116698665D01*
X166479853Y-116421426D01*
X166371680Y-116160273D01*
X166214637Y-115925241D01*
X166014759Y-115725363D01*
X165782241Y-115570000D01*
X166014759Y-115414637D01*
X166214637Y-115214759D01*
X166371680Y-114979727D01*
X166479853Y-114718574D01*
X166535000Y-114441335D01*
X166535000Y-114158665D01*
X166479853Y-113881426D01*
X166371680Y-113620273D01*
X166214637Y-113385241D01*
X166014759Y-113185363D01*
X165782241Y-113030000D01*
X166014759Y-112874637D01*
X166214637Y-112674759D01*
X166371680Y-112439727D01*
X166479853Y-112178574D01*
X166535000Y-111901335D01*
X166535000Y-111618665D01*
X166479853Y-111341426D01*
X166371680Y-111080273D01*
X166214637Y-110845241D01*
X166014759Y-110645363D01*
X165782241Y-110490000D01*
X166014759Y-110334637D01*
X166214637Y-110134759D01*
X166371680Y-109899727D01*
X166479853Y-109638574D01*
X166535000Y-109361335D01*
X166535000Y-109078665D01*
X166479853Y-108801426D01*
X166371680Y-108540273D01*
X166214637Y-108305241D01*
X166014759Y-108105363D01*
X165779727Y-107948320D01*
X165518574Y-107840147D01*
X165241335Y-107785000D01*
X164958665Y-107785000D01*
X164681426Y-107840147D01*
X164420273Y-107948320D01*
X164185241Y-108105363D01*
X163985363Y-108305241D01*
X163830000Y-108537759D01*
X163674637Y-108305241D01*
X163474759Y-108105363D01*
X163239727Y-107948320D01*
X162978574Y-107840147D01*
X162701335Y-107785000D01*
X162418665Y-107785000D01*
X162141426Y-107840147D01*
X161880273Y-107948320D01*
X161645241Y-108105363D01*
X161445363Y-108305241D01*
X161288320Y-108540273D01*
X161180147Y-108801426D01*
X161125000Y-109078665D01*
X161125000Y-109361335D01*
X161180147Y-109638574D01*
X161288320Y-109899727D01*
X161445363Y-110134759D01*
X161645241Y-110334637D01*
X161877759Y-110490000D01*
X161645241Y-110645363D01*
X161445363Y-110845241D01*
X161288320Y-111080273D01*
X161180147Y-111341426D01*
X161125000Y-111618665D01*
X161125000Y-111901335D01*
X161180147Y-112178574D01*
X161288320Y-112439727D01*
X161445363Y-112674759D01*
X161645241Y-112874637D01*
X161877759Y-113030000D01*
X161645241Y-113185363D01*
X161445363Y-113385241D01*
X161288320Y-113620273D01*
X161180147Y-113881426D01*
X161125000Y-114158665D01*
X161125000Y-114441335D01*
X161180147Y-114718574D01*
X161288320Y-114979727D01*
X161445363Y-115214759D01*
X161645241Y-115414637D01*
X161877759Y-115570000D01*
X161645241Y-115725363D01*
X161445363Y-115925241D01*
X161290000Y-116157759D01*
X161134637Y-115925241D01*
X160934759Y-115725363D01*
X160699727Y-115568320D01*
X160438574Y-115460147D01*
X160161335Y-115405000D01*
X159878665Y-115405000D01*
X159601426Y-115460147D01*
X159340273Y-115568320D01*
X159250000Y-115628638D01*
X159250000Y-103998665D01*
X168745000Y-103998665D01*
X168745000Y-104281335D01*
X168800147Y-104558574D01*
X168908320Y-104819727D01*
X169065363Y-105054759D01*
X169265241Y-105254637D01*
X169497759Y-105410000D01*
X169265241Y-105565363D01*
X169065363Y-105765241D01*
X168908320Y-106000273D01*
X168800147Y-106261426D01*
X168745000Y-106538665D01*
X168745000Y-106821335D01*
X168800147Y-107098574D01*
X168908320Y-107359727D01*
X169065363Y-107594759D01*
X169265241Y-107794637D01*
X169497759Y-107950000D01*
X169265241Y-108105363D01*
X169065363Y-108305241D01*
X168908320Y-108540273D01*
X168800147Y-108801426D01*
X168745000Y-109078665D01*
X168745000Y-109361335D01*
X168800147Y-109638574D01*
X168908320Y-109899727D01*
X169065363Y-110134759D01*
X169265241Y-110334637D01*
X169497759Y-110490000D01*
X169265241Y-110645363D01*
X169065363Y-110845241D01*
X168908320Y-111080273D01*
X168800147Y-111341426D01*
X168745000Y-111618665D01*
X168745000Y-111901335D01*
X168800147Y-112178574D01*
X168908320Y-112439727D01*
X169065363Y-112674759D01*
X169265241Y-112874637D01*
X169497759Y-113030000D01*
X169265241Y-113185363D01*
X169065363Y-113385241D01*
X168908320Y-113620273D01*
X168800147Y-113881426D01*
X168745000Y-114158665D01*
X168745000Y-114441335D01*
X168800147Y-114718574D01*
X168908320Y-114979727D01*
X169065363Y-115214759D01*
X169265241Y-115414637D01*
X169497759Y-115570000D01*
X169265241Y-115725363D01*
X169065363Y-115925241D01*
X168908320Y-116160273D01*
X168800147Y-116421426D01*
X168745000Y-116698665D01*
X168745000Y-116981335D01*
X168800147Y-117258574D01*
X168908320Y-117519727D01*
X169065363Y-117754759D01*
X169265241Y-117954637D01*
X169497759Y-118110000D01*
X169265241Y-118265363D01*
X169065363Y-118465241D01*
X168908320Y-118700273D01*
X168800147Y-118961426D01*
X168745000Y-119238665D01*
X168745000Y-119521335D01*
X168800147Y-119798574D01*
X168908320Y-120059727D01*
X169065363Y-120294759D01*
X169265241Y-120494637D01*
X169497759Y-120650000D01*
X169265241Y-120805363D01*
X169065363Y-121005241D01*
X168908320Y-121240273D01*
X168800147Y-121501426D01*
X168745000Y-121778665D01*
X168745000Y-122061335D01*
X168800147Y-122338574D01*
X168908320Y-122599727D01*
X169065363Y-122834759D01*
X169265241Y-123034637D01*
X169497759Y-123190000D01*
X169265241Y-123345363D01*
X169065363Y-123545241D01*
X168908320Y-123780273D01*
X168800147Y-124041426D01*
X168745000Y-124318665D01*
X168745000Y-124601335D01*
X168800147Y-124878574D01*
X168908320Y-125139727D01*
X169065363Y-125374759D01*
X169265241Y-125574637D01*
X169500273Y-125731680D01*
X169761426Y-125839853D01*
X170038665Y-125895000D01*
X170321335Y-125895000D01*
X170598574Y-125839853D01*
X170859727Y-125731680D01*
X171094759Y-125574637D01*
X171294637Y-125374759D01*
X171451680Y-125139727D01*
X171559853Y-124878574D01*
X171615000Y-124601335D01*
X171615000Y-124318665D01*
X171559853Y-124041426D01*
X171451680Y-123780273D01*
X171294637Y-123545241D01*
X171094759Y-123345363D01*
X170862241Y-123190000D01*
X171094759Y-123034637D01*
X171294637Y-122834759D01*
X171451680Y-122599727D01*
X171559853Y-122338574D01*
X171615000Y-122061335D01*
X171615000Y-121778665D01*
X171559853Y-121501426D01*
X171451680Y-121240273D01*
X171294637Y-121005241D01*
X171094759Y-120805363D01*
X170862241Y-120650000D01*
X171094759Y-120494637D01*
X171294637Y-120294759D01*
X171451680Y-120059727D01*
X171559853Y-119798574D01*
X171615000Y-119521335D01*
X171615000Y-119238665D01*
X171559853Y-118961426D01*
X171451680Y-118700273D01*
X171294637Y-118465241D01*
X171094759Y-118265363D01*
X170862241Y-118110000D01*
X171094759Y-117954637D01*
X171294637Y-117754759D01*
X171451680Y-117519727D01*
X171559853Y-117258574D01*
X171615000Y-116981335D01*
X171615000Y-116698665D01*
X171559853Y-116421426D01*
X171451680Y-116160273D01*
X171294637Y-115925241D01*
X171094759Y-115725363D01*
X170862241Y-115570000D01*
X171094759Y-115414637D01*
X171294637Y-115214759D01*
X171451680Y-114979727D01*
X171559853Y-114718574D01*
X171615000Y-114441335D01*
X171615000Y-114158665D01*
X171559853Y-113881426D01*
X171451680Y-113620273D01*
X171294637Y-113385241D01*
X171094759Y-113185363D01*
X170862241Y-113030000D01*
X171094759Y-112874637D01*
X171294637Y-112674759D01*
X171451680Y-112439727D01*
X171559853Y-112178574D01*
X171615000Y-111901335D01*
X171615000Y-111618665D01*
X171559853Y-111341426D01*
X171451680Y-111080273D01*
X171294637Y-110845241D01*
X171094759Y-110645363D01*
X170862241Y-110490000D01*
X171094759Y-110334637D01*
X171294637Y-110134759D01*
X171451680Y-109899727D01*
X171559853Y-109638574D01*
X171615000Y-109361335D01*
X171615000Y-109078665D01*
X171559853Y-108801426D01*
X171451680Y-108540273D01*
X171294637Y-108305241D01*
X171094759Y-108105363D01*
X170862241Y-107950000D01*
X171094759Y-107794637D01*
X171294637Y-107594759D01*
X171451680Y-107359727D01*
X171559853Y-107098574D01*
X171615000Y-106821335D01*
X171615000Y-106538665D01*
X171559853Y-106261426D01*
X171451680Y-106000273D01*
X171294637Y-105765241D01*
X171094759Y-105565363D01*
X170862241Y-105410000D01*
X171094759Y-105254637D01*
X171294637Y-105054759D01*
X171451680Y-104819727D01*
X171559853Y-104558574D01*
X171615000Y-104281335D01*
X171615000Y-103998665D01*
X171559853Y-103721426D01*
X171451680Y-103460273D01*
X171294637Y-103225241D01*
X171094759Y-103025363D01*
X170859727Y-102868320D01*
X170849135Y-102863933D01*
X171035131Y-102752385D01*
X171243519Y-102563414D01*
X171411037Y-102337420D01*
X171531246Y-102083087D01*
X171571904Y-101949039D01*
X171449915Y-101727000D01*
X170307000Y-101727000D01*
X170307000Y-101747000D01*
X170053000Y-101747000D01*
X170053000Y-101727000D01*
X168910085Y-101727000D01*
X168788096Y-101949039D01*
X168828754Y-102083087D01*
X168948963Y-102337420D01*
X169116481Y-102563414D01*
X169324869Y-102752385D01*
X169510865Y-102863933D01*
X169500273Y-102868320D01*
X169265241Y-103025363D01*
X169065363Y-103225241D01*
X168908320Y-103460273D01*
X168800147Y-103721426D01*
X168745000Y-103998665D01*
X159250000Y-103998665D01*
X159250000Y-91298665D01*
X159855000Y-91298665D01*
X159855000Y-91581335D01*
X159910147Y-91858574D01*
X160018320Y-92119727D01*
X160175363Y-92354759D01*
X160375241Y-92554637D01*
X160610273Y-92711680D01*
X160871426Y-92819853D01*
X161148665Y-92875000D01*
X161431335Y-92875000D01*
X161708574Y-92819853D01*
X161969727Y-92711680D01*
X162204759Y-92554637D01*
X162404637Y-92354759D01*
X162560000Y-92122241D01*
X162715363Y-92354759D01*
X162915241Y-92554637D01*
X163150273Y-92711680D01*
X163411426Y-92819853D01*
X163688665Y-92875000D01*
X163971335Y-92875000D01*
X164248574Y-92819853D01*
X164509727Y-92711680D01*
X164744759Y-92554637D01*
X164944637Y-92354759D01*
X165101680Y-92119727D01*
X165209853Y-91858574D01*
X165265000Y-91581335D01*
X165265000Y-91298665D01*
X165209853Y-91021426D01*
X165101680Y-90760273D01*
X164944637Y-90525241D01*
X164744759Y-90325363D01*
X164509727Y-90168320D01*
X164248574Y-90060147D01*
X163971335Y-90005000D01*
X163688665Y-90005000D01*
X163411426Y-90060147D01*
X163150273Y-90168320D01*
X162915241Y-90325363D01*
X162715363Y-90525241D01*
X162560000Y-90757759D01*
X162404637Y-90525241D01*
X162204759Y-90325363D01*
X161969727Y-90168320D01*
X161708574Y-90060147D01*
X161431335Y-90005000D01*
X161148665Y-90005000D01*
X160871426Y-90060147D01*
X160610273Y-90168320D01*
X160375241Y-90325363D01*
X160175363Y-90525241D01*
X160018320Y-90760273D01*
X159910147Y-91021426D01*
X159855000Y-91298665D01*
X159250000Y-91298665D01*
X159250000Y-85780751D01*
X159255491Y-85725000D01*
X159250000Y-85669248D01*
X159250000Y-85145752D01*
X159255491Y-85090000D01*
X159233577Y-84867501D01*
X159168676Y-84653553D01*
X159063284Y-84456377D01*
X158921449Y-84283551D01*
X158748623Y-84141716D01*
X158551447Y-84036324D01*
X158337499Y-83971423D01*
X158170752Y-83955000D01*
X158115000Y-83949509D01*
X158059249Y-83955000D01*
X157535751Y-83955000D01*
X157480000Y-83949509D01*
X157424249Y-83955000D01*
X156375000Y-83955000D01*
X156375000Y-83678665D01*
X156319853Y-83401426D01*
X156211680Y-83140273D01*
X156054637Y-82905241D01*
X155854759Y-82705363D01*
X155622241Y-82550000D01*
X155854759Y-82394637D01*
X156054637Y-82194759D01*
X156211680Y-81959727D01*
X156319853Y-81698574D01*
X156375000Y-81421335D01*
X156375000Y-81138665D01*
X156319853Y-80861426D01*
X156211680Y-80600273D01*
X156054637Y-80365241D01*
X155854759Y-80165363D01*
X155622241Y-80010000D01*
X155854759Y-79854637D01*
X156054637Y-79654759D01*
X156211680Y-79419727D01*
X156319853Y-79158574D01*
X156375000Y-78881335D01*
X156375000Y-78598665D01*
X156319853Y-78321426D01*
X156211680Y-78060273D01*
X156054637Y-77825241D01*
X155854759Y-77625363D01*
X155619727Y-77468320D01*
X155609135Y-77463933D01*
X155795131Y-77352385D01*
X156003519Y-77163414D01*
X156171037Y-76937420D01*
X156291246Y-76683087D01*
X156331904Y-76549039D01*
X156209915Y-76327000D01*
X155067000Y-76327000D01*
X155067000Y-76347000D01*
X154813000Y-76347000D01*
X154813000Y-76327000D01*
X153670085Y-76327000D01*
X153548096Y-76549039D01*
X153588754Y-76683087D01*
X153708963Y-76937420D01*
X153876481Y-77163414D01*
X154084869Y-77352385D01*
X154270865Y-77463933D01*
X154260273Y-77468320D01*
X154025241Y-77625363D01*
X153825363Y-77825241D01*
X153755365Y-77930000D01*
X129579788Y-77930000D01*
X129540000Y-77926081D01*
X129500212Y-77930000D01*
X129500209Y-77930000D01*
X129381212Y-77941720D01*
X129228527Y-77988037D01*
X129087811Y-78063251D01*
X128964472Y-78164472D01*
X128939105Y-78195382D01*
X122010383Y-85124105D01*
X121979473Y-85149472D01*
X121938127Y-85199853D01*
X121878251Y-85272811D01*
X121857038Y-85312499D01*
X121803038Y-85413527D01*
X121758084Y-85561721D01*
X121756721Y-85566213D01*
X121741081Y-85725000D01*
X121745001Y-85764798D01*
X121745000Y-92035212D01*
X121741081Y-92075000D01*
X121745000Y-92114788D01*
X121745000Y-92114790D01*
X121756720Y-92233787D01*
X121803037Y-92386472D01*
X121833986Y-92444374D01*
X121878251Y-92527189D01*
X121900777Y-92554637D01*
X121979472Y-92650528D01*
X122010388Y-92675900D01*
X124162145Y-94827658D01*
X124114606Y-94984374D01*
X124088444Y-95250000D01*
X124114606Y-95515626D01*
X124192086Y-95771045D01*
X124317908Y-96006440D01*
X124487235Y-96212765D01*
X124693560Y-96382092D01*
X124928955Y-96507914D01*
X124968797Y-96520000D01*
X124928955Y-96532086D01*
X124693560Y-96657908D01*
X124487235Y-96827235D01*
X124317908Y-97033560D01*
X124192086Y-97268955D01*
X124114606Y-97524374D01*
X124088444Y-97790000D01*
X124114606Y-98055626D01*
X124162145Y-98212342D01*
X121375388Y-100999100D01*
X121344472Y-101024472D01*
X121293617Y-101086440D01*
X121243251Y-101147811D01*
X121225284Y-101181426D01*
X121168037Y-101288528D01*
X121121720Y-101441213D01*
X121112522Y-101534606D01*
X121106081Y-101600000D01*
X107340000Y-101600000D01*
X107340000Y-76232279D01*
X107377388Y-75850961D01*
X153548096Y-75850961D01*
X153670085Y-76073000D01*
X154633394Y-76073000D01*
X154850197Y-76289803D01*
X154869443Y-76305597D01*
X154891399Y-76317333D01*
X154915224Y-76324560D01*
X154940000Y-76327000D01*
X154964776Y-76324560D01*
X154988601Y-76317333D01*
X155010557Y-76305597D01*
X155029803Y-76289803D01*
X155246606Y-76073000D01*
X156209915Y-76073000D01*
X156217790Y-76058665D01*
X168745000Y-76058665D01*
X168745000Y-76341335D01*
X168800147Y-76618574D01*
X168908320Y-76879727D01*
X169065363Y-77114759D01*
X169265241Y-77314637D01*
X169497759Y-77470000D01*
X169265241Y-77625363D01*
X169065363Y-77825241D01*
X168908320Y-78060273D01*
X168800147Y-78321426D01*
X168745000Y-78598665D01*
X168745000Y-78881335D01*
X168800147Y-79158574D01*
X168908320Y-79419727D01*
X169065363Y-79654759D01*
X169265241Y-79854637D01*
X169497759Y-80010000D01*
X169265241Y-80165363D01*
X169065363Y-80365241D01*
X168908320Y-80600273D01*
X168800147Y-80861426D01*
X168745000Y-81138665D01*
X168745000Y-81421335D01*
X168800147Y-81698574D01*
X168908320Y-81959727D01*
X169065363Y-82194759D01*
X169265241Y-82394637D01*
X169497759Y-82550000D01*
X169265241Y-82705363D01*
X169065363Y-82905241D01*
X168908320Y-83140273D01*
X168800147Y-83401426D01*
X168745000Y-83678665D01*
X168745000Y-83961335D01*
X168800147Y-84238574D01*
X168908320Y-84499727D01*
X169065363Y-84734759D01*
X169265241Y-84934637D01*
X169497759Y-85090000D01*
X169265241Y-85245363D01*
X169065363Y-85445241D01*
X168908320Y-85680273D01*
X168800147Y-85941426D01*
X168745000Y-86218665D01*
X168745000Y-86501335D01*
X168800147Y-86778574D01*
X168908320Y-87039727D01*
X169065363Y-87274759D01*
X169265241Y-87474637D01*
X169497759Y-87630000D01*
X169265241Y-87785363D01*
X169065363Y-87985241D01*
X168908320Y-88220273D01*
X168800147Y-88481426D01*
X168745000Y-88758665D01*
X168745000Y-89041335D01*
X168800147Y-89318574D01*
X168908320Y-89579727D01*
X169065363Y-89814759D01*
X169265241Y-90014637D01*
X169497759Y-90170000D01*
X169265241Y-90325363D01*
X169065363Y-90525241D01*
X168908320Y-90760273D01*
X168800147Y-91021426D01*
X168745000Y-91298665D01*
X168745000Y-91581335D01*
X168800147Y-91858574D01*
X168908320Y-92119727D01*
X169065363Y-92354759D01*
X169265241Y-92554637D01*
X169497759Y-92710000D01*
X169265241Y-92865363D01*
X169065363Y-93065241D01*
X168908320Y-93300273D01*
X168800147Y-93561426D01*
X168745000Y-93838665D01*
X168745000Y-94121335D01*
X168800147Y-94398574D01*
X168908320Y-94659727D01*
X169065363Y-94894759D01*
X169265241Y-95094637D01*
X169497759Y-95250000D01*
X169265241Y-95405363D01*
X169065363Y-95605241D01*
X168908320Y-95840273D01*
X168800147Y-96101426D01*
X168745000Y-96378665D01*
X168745000Y-96661335D01*
X168800147Y-96938574D01*
X168908320Y-97199727D01*
X169065363Y-97434759D01*
X169265241Y-97634637D01*
X169497759Y-97790000D01*
X169265241Y-97945363D01*
X169065363Y-98145241D01*
X168908320Y-98380273D01*
X168800147Y-98641426D01*
X168745000Y-98918665D01*
X168745000Y-99201335D01*
X168800147Y-99478574D01*
X168908320Y-99739727D01*
X169065363Y-99974759D01*
X169265241Y-100174637D01*
X169500273Y-100331680D01*
X169510865Y-100336067D01*
X169324869Y-100447615D01*
X169116481Y-100636586D01*
X168948963Y-100862580D01*
X168828754Y-101116913D01*
X168788096Y-101250961D01*
X168910085Y-101473000D01*
X170053000Y-101473000D01*
X170053000Y-101453000D01*
X170307000Y-101453000D01*
X170307000Y-101473000D01*
X171449915Y-101473000D01*
X171571904Y-101250961D01*
X171531246Y-101116913D01*
X171411037Y-100862580D01*
X171243519Y-100636586D01*
X171035131Y-100447615D01*
X170849135Y-100336067D01*
X170859727Y-100331680D01*
X171094759Y-100174637D01*
X171294637Y-99974759D01*
X171451680Y-99739727D01*
X171559853Y-99478574D01*
X171615000Y-99201335D01*
X171615000Y-98918665D01*
X171559853Y-98641426D01*
X171451680Y-98380273D01*
X171294637Y-98145241D01*
X171094759Y-97945363D01*
X170862241Y-97790000D01*
X171094759Y-97634637D01*
X171294637Y-97434759D01*
X171451680Y-97199727D01*
X171559853Y-96938574D01*
X171615000Y-96661335D01*
X171615000Y-96378665D01*
X171559853Y-96101426D01*
X171451680Y-95840273D01*
X171294637Y-95605241D01*
X171094759Y-95405363D01*
X170862241Y-95250000D01*
X171094759Y-95094637D01*
X171294637Y-94894759D01*
X171451680Y-94659727D01*
X171559853Y-94398574D01*
X171615000Y-94121335D01*
X171615000Y-93838665D01*
X171559853Y-93561426D01*
X171451680Y-93300273D01*
X171294637Y-93065241D01*
X171094759Y-92865363D01*
X170862241Y-92710000D01*
X171094759Y-92554637D01*
X171294637Y-92354759D01*
X171451680Y-92119727D01*
X171559853Y-91858574D01*
X171615000Y-91581335D01*
X171615000Y-91298665D01*
X171559853Y-91021426D01*
X171451680Y-90760273D01*
X171294637Y-90525241D01*
X171094759Y-90325363D01*
X170862241Y-90170000D01*
X171094759Y-90014637D01*
X171294637Y-89814759D01*
X171451680Y-89579727D01*
X171559853Y-89318574D01*
X171615000Y-89041335D01*
X171615000Y-88758665D01*
X171559853Y-88481426D01*
X171451680Y-88220273D01*
X171294637Y-87985241D01*
X171094759Y-87785363D01*
X170862241Y-87630000D01*
X171094759Y-87474637D01*
X171294637Y-87274759D01*
X171451680Y-87039727D01*
X171559853Y-86778574D01*
X171615000Y-86501335D01*
X171615000Y-86218665D01*
X171559853Y-85941426D01*
X171451680Y-85680273D01*
X171294637Y-85445241D01*
X171094759Y-85245363D01*
X170862241Y-85090000D01*
X171094759Y-84934637D01*
X171294637Y-84734759D01*
X171451680Y-84499727D01*
X171559853Y-84238574D01*
X171615000Y-83961335D01*
X171615000Y-83678665D01*
X171559853Y-83401426D01*
X171451680Y-83140273D01*
X171294637Y-82905241D01*
X171094759Y-82705363D01*
X170862241Y-82550000D01*
X171094759Y-82394637D01*
X171294637Y-82194759D01*
X171451680Y-81959727D01*
X171559853Y-81698574D01*
X171615000Y-81421335D01*
X171615000Y-81138665D01*
X171559853Y-80861426D01*
X171451680Y-80600273D01*
X171294637Y-80365241D01*
X171094759Y-80165363D01*
X170862241Y-80010000D01*
X171094759Y-79854637D01*
X171294637Y-79654759D01*
X171451680Y-79419727D01*
X171559853Y-79158574D01*
X171615000Y-78881335D01*
X171615000Y-78598665D01*
X171559853Y-78321426D01*
X171451680Y-78060273D01*
X171294637Y-77825241D01*
X171094759Y-77625363D01*
X170862241Y-77470000D01*
X171094759Y-77314637D01*
X171294637Y-77114759D01*
X171451680Y-76879727D01*
X171559853Y-76618574D01*
X171615000Y-76341335D01*
X171615000Y-76058665D01*
X171559853Y-75781426D01*
X171451680Y-75520273D01*
X171294637Y-75285241D01*
X171094759Y-75085363D01*
X170859727Y-74928320D01*
X170598574Y-74820147D01*
X170321335Y-74765000D01*
X170038665Y-74765000D01*
X169761426Y-74820147D01*
X169500273Y-74928320D01*
X169265241Y-75085363D01*
X169065363Y-75285241D01*
X168908320Y-75520273D01*
X168800147Y-75781426D01*
X168745000Y-76058665D01*
X156217790Y-76058665D01*
X156331904Y-75850961D01*
X156291246Y-75716913D01*
X156171037Y-75462580D01*
X156003519Y-75236586D01*
X155795131Y-75047615D01*
X155553881Y-74902930D01*
X155289040Y-74808091D01*
X155100619Y-74911013D01*
X155029803Y-74840197D01*
X155010557Y-74824403D01*
X154988601Y-74812667D01*
X154964776Y-74805440D01*
X154940000Y-74803000D01*
X154915224Y-74805440D01*
X154891399Y-74812667D01*
X154869443Y-74824403D01*
X154850197Y-74840197D01*
X154779381Y-74911013D01*
X154590960Y-74808091D01*
X154326119Y-74902930D01*
X154084869Y-75047615D01*
X153876481Y-75236586D01*
X153708963Y-75462580D01*
X153588754Y-75716913D01*
X153548096Y-75850961D01*
X107377388Y-75850961D01*
X107378909Y-75835455D01*
X107484780Y-75484792D01*
X107656744Y-75161375D01*
X107888254Y-74877516D01*
X108170486Y-74644035D01*
X108492695Y-74469817D01*
X108842614Y-74361498D01*
X109237443Y-74320000D01*
X182847721Y-74320000D01*
X183244545Y-74358909D01*
G37*
%TD.AperFunction*%
%TD*%
M02*
