%TF.GenerationSoftware,KiCad,Pcbnew,(5.1.9)-1*%
%TF.CreationDate,2021-02-16T23:53:01+08:00*%
%TF.ProjectId,ChipInspector24,43686970-496e-4737-9065-63746f723234,rev?*%
%TF.SameCoordinates,Original*%
%TF.FileFunction,Soldermask,Top*%
%TF.FilePolarity,Negative*%
%FSLAX46Y46*%
G04 Gerber Fmt 4.6, Leading zero omitted, Abs format (unit mm)*
G04 Created by KiCad (PCBNEW (5.1.9)-1) date 2021-02-16 23:53:01*
%MOMM*%
%LPD*%
G01*
G04 APERTURE LIST*
%ADD10O,2.000000X1.440000*%
%ADD11R,2.000000X1.440000*%
%ADD12O,1.600000X1.600000*%
G04 APERTURE END LIST*
D10*
%TO.C,J1*%
X133350000Y-115570000D03*
X125730000Y-115570000D03*
X133350000Y-113030000D03*
X125730000Y-113030000D03*
X133350000Y-110490000D03*
X125730000Y-110490000D03*
X133350000Y-107950000D03*
X125730000Y-107950000D03*
X133350000Y-105410000D03*
X125730000Y-105410000D03*
X133350000Y-102870000D03*
X125730000Y-102870000D03*
X133350000Y-100330000D03*
X125730000Y-100330000D03*
X133350000Y-97790000D03*
X125730000Y-97790000D03*
X133350000Y-95250000D03*
X125730000Y-95250000D03*
X133350000Y-92710000D03*
X125730000Y-92710000D03*
X133350000Y-90170000D03*
X125730000Y-90170000D03*
X133350000Y-87630000D03*
D11*
X125730000Y-87630000D03*
%TD*%
D12*
%TO.C,M1*%
X163830000Y-91440000D03*
X161290000Y-91440000D03*
X170180000Y-76200000D03*
X170180000Y-78740000D03*
X170180000Y-81280000D03*
X170180000Y-83820000D03*
X170180000Y-86360000D03*
X170180000Y-88900000D03*
X170180000Y-91440000D03*
X170180000Y-93980000D03*
X170180000Y-96520000D03*
X170180000Y-99060000D03*
X170180000Y-101600000D03*
X170180000Y-104140000D03*
X170180000Y-106680000D03*
X170180000Y-109220000D03*
X170180000Y-111760000D03*
X170180000Y-114300000D03*
X170180000Y-116840000D03*
X170180000Y-119380000D03*
X170180000Y-121920000D03*
X170180000Y-124460000D03*
X154940000Y-124460000D03*
X154940000Y-121920000D03*
X154940000Y-119380000D03*
X154940000Y-116840000D03*
X154940000Y-114300000D03*
X154940000Y-111760000D03*
X154940000Y-109220000D03*
X154940000Y-106680000D03*
X154940000Y-104140000D03*
X154940000Y-101600000D03*
X154940000Y-99060000D03*
X154940000Y-96520000D03*
X154940000Y-93980000D03*
X154940000Y-91440000D03*
X154940000Y-88900000D03*
X154940000Y-86360000D03*
X154940000Y-83820000D03*
X154940000Y-81280000D03*
X154940000Y-78740000D03*
X154940000Y-76200000D03*
X160020000Y-124460000D03*
X162560000Y-124460000D03*
X165100000Y-124460000D03*
X160020000Y-116840000D03*
X162560000Y-116840000D03*
X162560000Y-114300000D03*
X162560000Y-111760000D03*
X162560000Y-109220000D03*
X165100000Y-109220000D03*
X165100000Y-111760000D03*
X165100000Y-114300000D03*
X165100000Y-116840000D03*
%TD*%
%TO.C,R23*%
G36*
G01*
X148077500Y-90620002D02*
X148077500Y-89719998D01*
G75*
G02*
X148327498Y-89470000I249998J0D01*
G01*
X148852502Y-89470000D01*
G75*
G02*
X149102500Y-89719998I0J-249998D01*
G01*
X149102500Y-90620002D01*
G75*
G02*
X148852502Y-90870000I-249998J0D01*
G01*
X148327498Y-90870000D01*
G75*
G02*
X148077500Y-90620002I0J249998D01*
G01*
G37*
G36*
G01*
X146252500Y-90620002D02*
X146252500Y-89719998D01*
G75*
G02*
X146502498Y-89470000I249998J0D01*
G01*
X147027502Y-89470000D01*
G75*
G02*
X147277500Y-89719998I0J-249998D01*
G01*
X147277500Y-90620002D01*
G75*
G02*
X147027502Y-90870000I-249998J0D01*
G01*
X146502498Y-90870000D01*
G75*
G02*
X146252500Y-90620002I0J249998D01*
G01*
G37*
%TD*%
%TO.C,R22*%
G36*
G01*
X148077500Y-93160002D02*
X148077500Y-92259998D01*
G75*
G02*
X148327498Y-92010000I249998J0D01*
G01*
X148852502Y-92010000D01*
G75*
G02*
X149102500Y-92259998I0J-249998D01*
G01*
X149102500Y-93160002D01*
G75*
G02*
X148852502Y-93410000I-249998J0D01*
G01*
X148327498Y-93410000D01*
G75*
G02*
X148077500Y-93160002I0J249998D01*
G01*
G37*
G36*
G01*
X146252500Y-93160002D02*
X146252500Y-92259998D01*
G75*
G02*
X146502498Y-92010000I249998J0D01*
G01*
X147027502Y-92010000D01*
G75*
G02*
X147277500Y-92259998I0J-249998D01*
G01*
X147277500Y-93160002D01*
G75*
G02*
X147027502Y-93410000I-249998J0D01*
G01*
X146502498Y-93410000D01*
G75*
G02*
X146252500Y-93160002I0J249998D01*
G01*
G37*
%TD*%
%TO.C,R21*%
G36*
G01*
X148077500Y-95700002D02*
X148077500Y-94799998D01*
G75*
G02*
X148327498Y-94550000I249998J0D01*
G01*
X148852502Y-94550000D01*
G75*
G02*
X149102500Y-94799998I0J-249998D01*
G01*
X149102500Y-95700002D01*
G75*
G02*
X148852502Y-95950000I-249998J0D01*
G01*
X148327498Y-95950000D01*
G75*
G02*
X148077500Y-95700002I0J249998D01*
G01*
G37*
G36*
G01*
X146252500Y-95700002D02*
X146252500Y-94799998D01*
G75*
G02*
X146502498Y-94550000I249998J0D01*
G01*
X147027502Y-94550000D01*
G75*
G02*
X147277500Y-94799998I0J-249998D01*
G01*
X147277500Y-95700002D01*
G75*
G02*
X147027502Y-95950000I-249998J0D01*
G01*
X146502498Y-95950000D01*
G75*
G02*
X146252500Y-95700002I0J249998D01*
G01*
G37*
%TD*%
%TO.C,R20*%
G36*
G01*
X148077500Y-98240002D02*
X148077500Y-97339998D01*
G75*
G02*
X148327498Y-97090000I249998J0D01*
G01*
X148852502Y-97090000D01*
G75*
G02*
X149102500Y-97339998I0J-249998D01*
G01*
X149102500Y-98240002D01*
G75*
G02*
X148852502Y-98490000I-249998J0D01*
G01*
X148327498Y-98490000D01*
G75*
G02*
X148077500Y-98240002I0J249998D01*
G01*
G37*
G36*
G01*
X146252500Y-98240002D02*
X146252500Y-97339998D01*
G75*
G02*
X146502498Y-97090000I249998J0D01*
G01*
X147027502Y-97090000D01*
G75*
G02*
X147277500Y-97339998I0J-249998D01*
G01*
X147277500Y-98240002D01*
G75*
G02*
X147027502Y-98490000I-249998J0D01*
G01*
X146502498Y-98490000D01*
G75*
G02*
X146252500Y-98240002I0J249998D01*
G01*
G37*
%TD*%
%TO.C,R19*%
G36*
G01*
X148077500Y-100780002D02*
X148077500Y-99879998D01*
G75*
G02*
X148327498Y-99630000I249998J0D01*
G01*
X148852502Y-99630000D01*
G75*
G02*
X149102500Y-99879998I0J-249998D01*
G01*
X149102500Y-100780002D01*
G75*
G02*
X148852502Y-101030000I-249998J0D01*
G01*
X148327498Y-101030000D01*
G75*
G02*
X148077500Y-100780002I0J249998D01*
G01*
G37*
G36*
G01*
X146252500Y-100780002D02*
X146252500Y-99879998D01*
G75*
G02*
X146502498Y-99630000I249998J0D01*
G01*
X147027502Y-99630000D01*
G75*
G02*
X147277500Y-99879998I0J-249998D01*
G01*
X147277500Y-100780002D01*
G75*
G02*
X147027502Y-101030000I-249998J0D01*
G01*
X146502498Y-101030000D01*
G75*
G02*
X146252500Y-100780002I0J249998D01*
G01*
G37*
%TD*%
%TO.C,R18*%
G36*
G01*
X148077500Y-103320002D02*
X148077500Y-102419998D01*
G75*
G02*
X148327498Y-102170000I249998J0D01*
G01*
X148852502Y-102170000D01*
G75*
G02*
X149102500Y-102419998I0J-249998D01*
G01*
X149102500Y-103320002D01*
G75*
G02*
X148852502Y-103570000I-249998J0D01*
G01*
X148327498Y-103570000D01*
G75*
G02*
X148077500Y-103320002I0J249998D01*
G01*
G37*
G36*
G01*
X146252500Y-103320002D02*
X146252500Y-102419998D01*
G75*
G02*
X146502498Y-102170000I249998J0D01*
G01*
X147027502Y-102170000D01*
G75*
G02*
X147277500Y-102419998I0J-249998D01*
G01*
X147277500Y-103320002D01*
G75*
G02*
X147027502Y-103570000I-249998J0D01*
G01*
X146502498Y-103570000D01*
G75*
G02*
X146252500Y-103320002I0J249998D01*
G01*
G37*
%TD*%
%TO.C,R17*%
G36*
G01*
X148077500Y-105860002D02*
X148077500Y-104959998D01*
G75*
G02*
X148327498Y-104710000I249998J0D01*
G01*
X148852502Y-104710000D01*
G75*
G02*
X149102500Y-104959998I0J-249998D01*
G01*
X149102500Y-105860002D01*
G75*
G02*
X148852502Y-106110000I-249998J0D01*
G01*
X148327498Y-106110000D01*
G75*
G02*
X148077500Y-105860002I0J249998D01*
G01*
G37*
G36*
G01*
X146252500Y-105860002D02*
X146252500Y-104959998D01*
G75*
G02*
X146502498Y-104710000I249998J0D01*
G01*
X147027502Y-104710000D01*
G75*
G02*
X147277500Y-104959998I0J-249998D01*
G01*
X147277500Y-105860002D01*
G75*
G02*
X147027502Y-106110000I-249998J0D01*
G01*
X146502498Y-106110000D01*
G75*
G02*
X146252500Y-105860002I0J249998D01*
G01*
G37*
%TD*%
%TO.C,R16*%
G36*
G01*
X146252500Y-108400002D02*
X146252500Y-107499998D01*
G75*
G02*
X146502498Y-107250000I249998J0D01*
G01*
X147027502Y-107250000D01*
G75*
G02*
X147277500Y-107499998I0J-249998D01*
G01*
X147277500Y-108400002D01*
G75*
G02*
X147027502Y-108650000I-249998J0D01*
G01*
X146502498Y-108650000D01*
G75*
G02*
X146252500Y-108400002I0J249998D01*
G01*
G37*
G36*
G01*
X148077500Y-108400002D02*
X148077500Y-107499998D01*
G75*
G02*
X148327498Y-107250000I249998J0D01*
G01*
X148852502Y-107250000D01*
G75*
G02*
X149102500Y-107499998I0J-249998D01*
G01*
X149102500Y-108400002D01*
G75*
G02*
X148852502Y-108650000I-249998J0D01*
G01*
X148327498Y-108650000D01*
G75*
G02*
X148077500Y-108400002I0J249998D01*
G01*
G37*
%TD*%
%TO.C,R15*%
G36*
G01*
X148077500Y-110940002D02*
X148077500Y-110039998D01*
G75*
G02*
X148327498Y-109790000I249998J0D01*
G01*
X148852502Y-109790000D01*
G75*
G02*
X149102500Y-110039998I0J-249998D01*
G01*
X149102500Y-110940002D01*
G75*
G02*
X148852502Y-111190000I-249998J0D01*
G01*
X148327498Y-111190000D01*
G75*
G02*
X148077500Y-110940002I0J249998D01*
G01*
G37*
G36*
G01*
X146252500Y-110940002D02*
X146252500Y-110039998D01*
G75*
G02*
X146502498Y-109790000I249998J0D01*
G01*
X147027502Y-109790000D01*
G75*
G02*
X147277500Y-110039998I0J-249998D01*
G01*
X147277500Y-110940002D01*
G75*
G02*
X147027502Y-111190000I-249998J0D01*
G01*
X146502498Y-111190000D01*
G75*
G02*
X146252500Y-110940002I0J249998D01*
G01*
G37*
%TD*%
%TO.C,R14*%
G36*
G01*
X148077500Y-113480002D02*
X148077500Y-112579998D01*
G75*
G02*
X148327498Y-112330000I249998J0D01*
G01*
X148852502Y-112330000D01*
G75*
G02*
X149102500Y-112579998I0J-249998D01*
G01*
X149102500Y-113480002D01*
G75*
G02*
X148852502Y-113730000I-249998J0D01*
G01*
X148327498Y-113730000D01*
G75*
G02*
X148077500Y-113480002I0J249998D01*
G01*
G37*
G36*
G01*
X146252500Y-113480002D02*
X146252500Y-112579998D01*
G75*
G02*
X146502498Y-112330000I249998J0D01*
G01*
X147027502Y-112330000D01*
G75*
G02*
X147277500Y-112579998I0J-249998D01*
G01*
X147277500Y-113480002D01*
G75*
G02*
X147027502Y-113730000I-249998J0D01*
G01*
X146502498Y-113730000D01*
G75*
G02*
X146252500Y-113480002I0J249998D01*
G01*
G37*
%TD*%
%TO.C,R13*%
G36*
G01*
X148077500Y-116020002D02*
X148077500Y-115119998D01*
G75*
G02*
X148327498Y-114870000I249998J0D01*
G01*
X148852502Y-114870000D01*
G75*
G02*
X149102500Y-115119998I0J-249998D01*
G01*
X149102500Y-116020002D01*
G75*
G02*
X148852502Y-116270000I-249998J0D01*
G01*
X148327498Y-116270000D01*
G75*
G02*
X148077500Y-116020002I0J249998D01*
G01*
G37*
G36*
G01*
X146252500Y-116020002D02*
X146252500Y-115119998D01*
G75*
G02*
X146502498Y-114870000I249998J0D01*
G01*
X147027502Y-114870000D01*
G75*
G02*
X147277500Y-115119998I0J-249998D01*
G01*
X147277500Y-116020002D01*
G75*
G02*
X147027502Y-116270000I-249998J0D01*
G01*
X146502498Y-116270000D01*
G75*
G02*
X146252500Y-116020002I0J249998D01*
G01*
G37*
%TD*%
%TO.C,R12*%
G36*
G01*
X140457500Y-117290002D02*
X140457500Y-116389998D01*
G75*
G02*
X140707498Y-116140000I249998J0D01*
G01*
X141232502Y-116140000D01*
G75*
G02*
X141482500Y-116389998I0J-249998D01*
G01*
X141482500Y-117290002D01*
G75*
G02*
X141232502Y-117540000I-249998J0D01*
G01*
X140707498Y-117540000D01*
G75*
G02*
X140457500Y-117290002I0J249998D01*
G01*
G37*
G36*
G01*
X138632500Y-117290002D02*
X138632500Y-116389998D01*
G75*
G02*
X138882498Y-116140000I249998J0D01*
G01*
X139407502Y-116140000D01*
G75*
G02*
X139657500Y-116389998I0J-249998D01*
G01*
X139657500Y-117290002D01*
G75*
G02*
X139407502Y-117540000I-249998J0D01*
G01*
X138882498Y-117540000D01*
G75*
G02*
X138632500Y-117290002I0J249998D01*
G01*
G37*
%TD*%
%TO.C,R11*%
G36*
G01*
X140457500Y-114750002D02*
X140457500Y-113849998D01*
G75*
G02*
X140707498Y-113600000I249998J0D01*
G01*
X141232502Y-113600000D01*
G75*
G02*
X141482500Y-113849998I0J-249998D01*
G01*
X141482500Y-114750002D01*
G75*
G02*
X141232502Y-115000000I-249998J0D01*
G01*
X140707498Y-115000000D01*
G75*
G02*
X140457500Y-114750002I0J249998D01*
G01*
G37*
G36*
G01*
X138632500Y-114750002D02*
X138632500Y-113849998D01*
G75*
G02*
X138882498Y-113600000I249998J0D01*
G01*
X139407502Y-113600000D01*
G75*
G02*
X139657500Y-113849998I0J-249998D01*
G01*
X139657500Y-114750002D01*
G75*
G02*
X139407502Y-115000000I-249998J0D01*
G01*
X138882498Y-115000000D01*
G75*
G02*
X138632500Y-114750002I0J249998D01*
G01*
G37*
%TD*%
%TO.C,R10*%
G36*
G01*
X140457500Y-112210002D02*
X140457500Y-111309998D01*
G75*
G02*
X140707498Y-111060000I249998J0D01*
G01*
X141232502Y-111060000D01*
G75*
G02*
X141482500Y-111309998I0J-249998D01*
G01*
X141482500Y-112210002D01*
G75*
G02*
X141232502Y-112460000I-249998J0D01*
G01*
X140707498Y-112460000D01*
G75*
G02*
X140457500Y-112210002I0J249998D01*
G01*
G37*
G36*
G01*
X138632500Y-112210002D02*
X138632500Y-111309998D01*
G75*
G02*
X138882498Y-111060000I249998J0D01*
G01*
X139407502Y-111060000D01*
G75*
G02*
X139657500Y-111309998I0J-249998D01*
G01*
X139657500Y-112210002D01*
G75*
G02*
X139407502Y-112460000I-249998J0D01*
G01*
X138882498Y-112460000D01*
G75*
G02*
X138632500Y-112210002I0J249998D01*
G01*
G37*
%TD*%
%TO.C,R9*%
G36*
G01*
X140457500Y-109670002D02*
X140457500Y-108769998D01*
G75*
G02*
X140707498Y-108520000I249998J0D01*
G01*
X141232502Y-108520000D01*
G75*
G02*
X141482500Y-108769998I0J-249998D01*
G01*
X141482500Y-109670002D01*
G75*
G02*
X141232502Y-109920000I-249998J0D01*
G01*
X140707498Y-109920000D01*
G75*
G02*
X140457500Y-109670002I0J249998D01*
G01*
G37*
G36*
G01*
X138632500Y-109670002D02*
X138632500Y-108769998D01*
G75*
G02*
X138882498Y-108520000I249998J0D01*
G01*
X139407502Y-108520000D01*
G75*
G02*
X139657500Y-108769998I0J-249998D01*
G01*
X139657500Y-109670002D01*
G75*
G02*
X139407502Y-109920000I-249998J0D01*
G01*
X138882498Y-109920000D01*
G75*
G02*
X138632500Y-109670002I0J249998D01*
G01*
G37*
%TD*%
%TO.C,R8*%
G36*
G01*
X140457500Y-107130002D02*
X140457500Y-106229998D01*
G75*
G02*
X140707498Y-105980000I249998J0D01*
G01*
X141232502Y-105980000D01*
G75*
G02*
X141482500Y-106229998I0J-249998D01*
G01*
X141482500Y-107130002D01*
G75*
G02*
X141232502Y-107380000I-249998J0D01*
G01*
X140707498Y-107380000D01*
G75*
G02*
X140457500Y-107130002I0J249998D01*
G01*
G37*
G36*
G01*
X138632500Y-107130002D02*
X138632500Y-106229998D01*
G75*
G02*
X138882498Y-105980000I249998J0D01*
G01*
X139407502Y-105980000D01*
G75*
G02*
X139657500Y-106229998I0J-249998D01*
G01*
X139657500Y-107130002D01*
G75*
G02*
X139407502Y-107380000I-249998J0D01*
G01*
X138882498Y-107380000D01*
G75*
G02*
X138632500Y-107130002I0J249998D01*
G01*
G37*
%TD*%
%TO.C,R7*%
G36*
G01*
X140457500Y-104590002D02*
X140457500Y-103689998D01*
G75*
G02*
X140707498Y-103440000I249998J0D01*
G01*
X141232502Y-103440000D01*
G75*
G02*
X141482500Y-103689998I0J-249998D01*
G01*
X141482500Y-104590002D01*
G75*
G02*
X141232502Y-104840000I-249998J0D01*
G01*
X140707498Y-104840000D01*
G75*
G02*
X140457500Y-104590002I0J249998D01*
G01*
G37*
G36*
G01*
X138632500Y-104590002D02*
X138632500Y-103689998D01*
G75*
G02*
X138882498Y-103440000I249998J0D01*
G01*
X139407502Y-103440000D01*
G75*
G02*
X139657500Y-103689998I0J-249998D01*
G01*
X139657500Y-104590002D01*
G75*
G02*
X139407502Y-104840000I-249998J0D01*
G01*
X138882498Y-104840000D01*
G75*
G02*
X138632500Y-104590002I0J249998D01*
G01*
G37*
%TD*%
%TO.C,R6*%
G36*
G01*
X140457500Y-102050002D02*
X140457500Y-101149998D01*
G75*
G02*
X140707498Y-100900000I249998J0D01*
G01*
X141232502Y-100900000D01*
G75*
G02*
X141482500Y-101149998I0J-249998D01*
G01*
X141482500Y-102050002D01*
G75*
G02*
X141232502Y-102300000I-249998J0D01*
G01*
X140707498Y-102300000D01*
G75*
G02*
X140457500Y-102050002I0J249998D01*
G01*
G37*
G36*
G01*
X138632500Y-102050002D02*
X138632500Y-101149998D01*
G75*
G02*
X138882498Y-100900000I249998J0D01*
G01*
X139407502Y-100900000D01*
G75*
G02*
X139657500Y-101149998I0J-249998D01*
G01*
X139657500Y-102050002D01*
G75*
G02*
X139407502Y-102300000I-249998J0D01*
G01*
X138882498Y-102300000D01*
G75*
G02*
X138632500Y-102050002I0J249998D01*
G01*
G37*
%TD*%
%TO.C,R5*%
G36*
G01*
X140457500Y-99510002D02*
X140457500Y-98609998D01*
G75*
G02*
X140707498Y-98360000I249998J0D01*
G01*
X141232502Y-98360000D01*
G75*
G02*
X141482500Y-98609998I0J-249998D01*
G01*
X141482500Y-99510002D01*
G75*
G02*
X141232502Y-99760000I-249998J0D01*
G01*
X140707498Y-99760000D01*
G75*
G02*
X140457500Y-99510002I0J249998D01*
G01*
G37*
G36*
G01*
X138632500Y-99510002D02*
X138632500Y-98609998D01*
G75*
G02*
X138882498Y-98360000I249998J0D01*
G01*
X139407502Y-98360000D01*
G75*
G02*
X139657500Y-98609998I0J-249998D01*
G01*
X139657500Y-99510002D01*
G75*
G02*
X139407502Y-99760000I-249998J0D01*
G01*
X138882498Y-99760000D01*
G75*
G02*
X138632500Y-99510002I0J249998D01*
G01*
G37*
%TD*%
%TO.C,R4*%
G36*
G01*
X140457500Y-96970002D02*
X140457500Y-96069998D01*
G75*
G02*
X140707498Y-95820000I249998J0D01*
G01*
X141232502Y-95820000D01*
G75*
G02*
X141482500Y-96069998I0J-249998D01*
G01*
X141482500Y-96970002D01*
G75*
G02*
X141232502Y-97220000I-249998J0D01*
G01*
X140707498Y-97220000D01*
G75*
G02*
X140457500Y-96970002I0J249998D01*
G01*
G37*
G36*
G01*
X138632500Y-96970002D02*
X138632500Y-96069998D01*
G75*
G02*
X138882498Y-95820000I249998J0D01*
G01*
X139407502Y-95820000D01*
G75*
G02*
X139657500Y-96069998I0J-249998D01*
G01*
X139657500Y-96970002D01*
G75*
G02*
X139407502Y-97220000I-249998J0D01*
G01*
X138882498Y-97220000D01*
G75*
G02*
X138632500Y-96970002I0J249998D01*
G01*
G37*
%TD*%
%TO.C,R3*%
G36*
G01*
X140457500Y-94430002D02*
X140457500Y-93529998D01*
G75*
G02*
X140707498Y-93280000I249998J0D01*
G01*
X141232502Y-93280000D01*
G75*
G02*
X141482500Y-93529998I0J-249998D01*
G01*
X141482500Y-94430002D01*
G75*
G02*
X141232502Y-94680000I-249998J0D01*
G01*
X140707498Y-94680000D01*
G75*
G02*
X140457500Y-94430002I0J249998D01*
G01*
G37*
G36*
G01*
X138632500Y-94430002D02*
X138632500Y-93529998D01*
G75*
G02*
X138882498Y-93280000I249998J0D01*
G01*
X139407502Y-93280000D01*
G75*
G02*
X139657500Y-93529998I0J-249998D01*
G01*
X139657500Y-94430002D01*
G75*
G02*
X139407502Y-94680000I-249998J0D01*
G01*
X138882498Y-94680000D01*
G75*
G02*
X138632500Y-94430002I0J249998D01*
G01*
G37*
%TD*%
%TO.C,R2*%
G36*
G01*
X140457500Y-91890002D02*
X140457500Y-90989998D01*
G75*
G02*
X140707498Y-90740000I249998J0D01*
G01*
X141232502Y-90740000D01*
G75*
G02*
X141482500Y-90989998I0J-249998D01*
G01*
X141482500Y-91890002D01*
G75*
G02*
X141232502Y-92140000I-249998J0D01*
G01*
X140707498Y-92140000D01*
G75*
G02*
X140457500Y-91890002I0J249998D01*
G01*
G37*
G36*
G01*
X138632500Y-91890002D02*
X138632500Y-90989998D01*
G75*
G02*
X138882498Y-90740000I249998J0D01*
G01*
X139407502Y-90740000D01*
G75*
G02*
X139657500Y-90989998I0J-249998D01*
G01*
X139657500Y-91890002D01*
G75*
G02*
X139407502Y-92140000I-249998J0D01*
G01*
X138882498Y-92140000D01*
G75*
G02*
X138632500Y-91890002I0J249998D01*
G01*
G37*
%TD*%
%TO.C,R1*%
G36*
G01*
X140457500Y-89350002D02*
X140457500Y-88449998D01*
G75*
G02*
X140707498Y-88200000I249998J0D01*
G01*
X141232502Y-88200000D01*
G75*
G02*
X141482500Y-88449998I0J-249998D01*
G01*
X141482500Y-89350002D01*
G75*
G02*
X141232502Y-89600000I-249998J0D01*
G01*
X140707498Y-89600000D01*
G75*
G02*
X140457500Y-89350002I0J249998D01*
G01*
G37*
G36*
G01*
X138632500Y-89350002D02*
X138632500Y-88449998D01*
G75*
G02*
X138882498Y-88200000I249998J0D01*
G01*
X139407502Y-88200000D01*
G75*
G02*
X139657500Y-88449998I0J-249998D01*
G01*
X139657500Y-89350002D01*
G75*
G02*
X139407502Y-89600000I-249998J0D01*
G01*
X138882498Y-89600000D01*
G75*
G02*
X138632500Y-89350002I0J249998D01*
G01*
G37*
%TD*%
M02*
