%TF.GenerationSoftware,KiCad,Pcbnew,(5.1.9)-1*%
%TF.CreationDate,2021-02-16T23:53:01+08:00*%
%TF.ProjectId,ChipInspector24,43686970-496e-4737-9065-63746f723234,rev?*%
%TF.SameCoordinates,Original*%
%TF.FileFunction,Soldermask,Bot*%
%TF.FilePolarity,Negative*%
%FSLAX46Y46*%
G04 Gerber Fmt 4.6, Leading zero omitted, Abs format (unit mm)*
G04 Created by KiCad (PCBNEW (5.1.9)-1) date 2021-02-16 23:53:01*
%MOMM*%
%LPD*%
G01*
G04 APERTURE LIST*
%ADD10O,2.000000X1.440000*%
%ADD11R,2.000000X1.440000*%
%ADD12O,1.600000X1.600000*%
G04 APERTURE END LIST*
D10*
%TO.C,J1*%
X133350000Y-115570000D03*
X125730000Y-115570000D03*
X133350000Y-113030000D03*
X125730000Y-113030000D03*
X133350000Y-110490000D03*
X125730000Y-110490000D03*
X133350000Y-107950000D03*
X125730000Y-107950000D03*
X133350000Y-105410000D03*
X125730000Y-105410000D03*
X133350000Y-102870000D03*
X125730000Y-102870000D03*
X133350000Y-100330000D03*
X125730000Y-100330000D03*
X133350000Y-97790000D03*
X125730000Y-97790000D03*
X133350000Y-95250000D03*
X125730000Y-95250000D03*
X133350000Y-92710000D03*
X125730000Y-92710000D03*
X133350000Y-90170000D03*
X125730000Y-90170000D03*
X133350000Y-87630000D03*
D11*
X125730000Y-87630000D03*
%TD*%
D12*
%TO.C,M1*%
X163830000Y-91440000D03*
X161290000Y-91440000D03*
X170180000Y-76200000D03*
X170180000Y-78740000D03*
X170180000Y-81280000D03*
X170180000Y-83820000D03*
X170180000Y-86360000D03*
X170180000Y-88900000D03*
X170180000Y-91440000D03*
X170180000Y-93980000D03*
X170180000Y-96520000D03*
X170180000Y-99060000D03*
X170180000Y-101600000D03*
X170180000Y-104140000D03*
X170180000Y-106680000D03*
X170180000Y-109220000D03*
X170180000Y-111760000D03*
X170180000Y-114300000D03*
X170180000Y-116840000D03*
X170180000Y-119380000D03*
X170180000Y-121920000D03*
X170180000Y-124460000D03*
X154940000Y-124460000D03*
X154940000Y-121920000D03*
X154940000Y-119380000D03*
X154940000Y-116840000D03*
X154940000Y-114300000D03*
X154940000Y-111760000D03*
X154940000Y-109220000D03*
X154940000Y-106680000D03*
X154940000Y-104140000D03*
X154940000Y-101600000D03*
X154940000Y-99060000D03*
X154940000Y-96520000D03*
X154940000Y-93980000D03*
X154940000Y-91440000D03*
X154940000Y-88900000D03*
X154940000Y-86360000D03*
X154940000Y-83820000D03*
X154940000Y-81280000D03*
X154940000Y-78740000D03*
X154940000Y-76200000D03*
X160020000Y-124460000D03*
X162560000Y-124460000D03*
X165100000Y-124460000D03*
X160020000Y-116840000D03*
X162560000Y-116840000D03*
X162560000Y-114300000D03*
X162560000Y-111760000D03*
X162560000Y-109220000D03*
X165100000Y-109220000D03*
X165100000Y-111760000D03*
X165100000Y-114300000D03*
X165100000Y-116840000D03*
%TD*%
M02*
