%TF.GenerationSoftware,KiCad,Pcbnew,(5.1.9)-1*%
%TF.CreationDate,2021-02-16T23:53:01+08:00*%
%TF.ProjectId,ChipInspector24,43686970-496e-4737-9065-63746f723234,rev?*%
%TF.SameCoordinates,Original*%
%TF.FileFunction,Legend,Top*%
%TF.FilePolarity,Positive*%
%FSLAX46Y46*%
G04 Gerber Fmt 4.6, Leading zero omitted, Abs format (unit mm)*
G04 Created by KiCad (PCBNEW (5.1.9)-1) date 2021-02-16 23:53:01*
%MOMM*%
%LPD*%
G01*
G04 APERTURE LIST*
%ADD10C,0.225000*%
%ADD11C,0.150000*%
%ADD12C,0.450000*%
%ADD13C,0.120000*%
%ADD14C,0.100000*%
%ADD15C,0.090000*%
G04 APERTURE END LIST*
D10*
X121285000Y-91440000D02*
X120015000Y-91440000D01*
X120015000Y-88265000D02*
X121285000Y-91440000D01*
X118745000Y-91440000D02*
X120015000Y-88265000D01*
X120015000Y-91440000D02*
X118745000Y-91440000D01*
X120015000Y-99695000D02*
X120015000Y-91440000D01*
X110550000Y-94350476D02*
X110550000Y-93100476D01*
X111145238Y-93517142D02*
X111145238Y-94350476D01*
X111145238Y-93636190D02*
X111204761Y-93576666D01*
X111323809Y-93517142D01*
X111502380Y-93517142D01*
X111621428Y-93576666D01*
X111680952Y-93695714D01*
X111680952Y-94350476D01*
X112216666Y-94290952D02*
X112335714Y-94350476D01*
X112573809Y-94350476D01*
X112692857Y-94290952D01*
X112752380Y-94171904D01*
X112752380Y-94112380D01*
X112692857Y-93993333D01*
X112573809Y-93933809D01*
X112395238Y-93933809D01*
X112276190Y-93874285D01*
X112216666Y-93755238D01*
X112216666Y-93695714D01*
X112276190Y-93576666D01*
X112395238Y-93517142D01*
X112573809Y-93517142D01*
X112692857Y-93576666D01*
X113764285Y-94290952D02*
X113645238Y-94350476D01*
X113407142Y-94350476D01*
X113288095Y-94290952D01*
X113228571Y-94171904D01*
X113228571Y-93695714D01*
X113288095Y-93576666D01*
X113407142Y-93517142D01*
X113645238Y-93517142D01*
X113764285Y-93576666D01*
X113823809Y-93695714D01*
X113823809Y-93814761D01*
X113228571Y-93933809D01*
X114359523Y-94350476D02*
X114359523Y-93517142D01*
X114359523Y-93755238D02*
X114419047Y-93636190D01*
X114478571Y-93576666D01*
X114597619Y-93517142D01*
X114716666Y-93517142D01*
X114954761Y-93517142D02*
X115430952Y-93517142D01*
X115133333Y-93100476D02*
X115133333Y-94171904D01*
X115192857Y-94290952D01*
X115311904Y-94350476D01*
X115430952Y-94350476D01*
X116800000Y-94350476D02*
X116800000Y-93100476D01*
X118109523Y-94231428D02*
X118050000Y-94290952D01*
X117871428Y-94350476D01*
X117752380Y-94350476D01*
X117573809Y-94290952D01*
X117454761Y-94171904D01*
X117395238Y-94052857D01*
X117335714Y-93814761D01*
X117335714Y-93636190D01*
X117395238Y-93398095D01*
X117454761Y-93279047D01*
X117573809Y-93160000D01*
X117752380Y-93100476D01*
X117871428Y-93100476D01*
X118050000Y-93160000D01*
X118109523Y-93219523D01*
X110371428Y-96450476D02*
X110371428Y-95795714D01*
X110311904Y-95676666D01*
X110192857Y-95617142D01*
X109954761Y-95617142D01*
X109835714Y-95676666D01*
X110371428Y-96390952D02*
X110252380Y-96450476D01*
X109954761Y-96450476D01*
X109835714Y-96390952D01*
X109776190Y-96271904D01*
X109776190Y-96152857D01*
X109835714Y-96033809D01*
X109954761Y-95974285D01*
X110252380Y-95974285D01*
X110371428Y-95914761D01*
X110788095Y-95617142D02*
X111264285Y-95617142D01*
X110966666Y-95200476D02*
X110966666Y-96271904D01*
X111026190Y-96390952D01*
X111145238Y-96450476D01*
X111264285Y-96450476D01*
X112454761Y-95617142D02*
X112930952Y-95617142D01*
X112633333Y-95200476D02*
X112633333Y-96271904D01*
X112692857Y-96390952D01*
X112811904Y-96450476D01*
X112930952Y-96450476D01*
X113526190Y-96450476D02*
X113407142Y-96390952D01*
X113347619Y-96331428D01*
X113288095Y-96212380D01*
X113288095Y-95855238D01*
X113347619Y-95736190D01*
X113407142Y-95676666D01*
X113526190Y-95617142D01*
X113704761Y-95617142D01*
X113823809Y-95676666D01*
X113883333Y-95736190D01*
X113942857Y-95855238D01*
X113942857Y-96212380D01*
X113883333Y-96331428D01*
X113823809Y-96390952D01*
X113704761Y-96450476D01*
X113526190Y-96450476D01*
X114478571Y-95617142D02*
X114478571Y-96867142D01*
X114478571Y-95676666D02*
X114597619Y-95617142D01*
X114835714Y-95617142D01*
X114954761Y-95676666D01*
X115014285Y-95736190D01*
X115073809Y-95855238D01*
X115073809Y-96212380D01*
X115014285Y-96331428D01*
X114954761Y-96390952D01*
X114835714Y-96450476D01*
X114597619Y-96450476D01*
X114478571Y-96390952D01*
X116740476Y-96450476D02*
X116621428Y-96390952D01*
X116561904Y-96331428D01*
X116502380Y-96212380D01*
X116502380Y-95855238D01*
X116561904Y-95736190D01*
X116621428Y-95676666D01*
X116740476Y-95617142D01*
X116919047Y-95617142D01*
X117038095Y-95676666D01*
X117097619Y-95736190D01*
X117157142Y-95855238D01*
X117157142Y-96212380D01*
X117097619Y-96331428D01*
X117038095Y-96390952D01*
X116919047Y-96450476D01*
X116740476Y-96450476D01*
X117514285Y-95617142D02*
X117990476Y-95617142D01*
X117692857Y-96450476D02*
X117692857Y-95379047D01*
X117752380Y-95260000D01*
X117871428Y-95200476D01*
X117990476Y-95200476D01*
X111234523Y-98490952D02*
X111353571Y-98550476D01*
X111591666Y-98550476D01*
X111710714Y-98490952D01*
X111770238Y-98371904D01*
X111770238Y-98312380D01*
X111710714Y-98193333D01*
X111591666Y-98133809D01*
X111413095Y-98133809D01*
X111294047Y-98074285D01*
X111234523Y-97955238D01*
X111234523Y-97895714D01*
X111294047Y-97776666D01*
X111413095Y-97717142D01*
X111591666Y-97717142D01*
X111710714Y-97776666D01*
X112484523Y-98550476D02*
X112365476Y-98490952D01*
X112305952Y-98431428D01*
X112246428Y-98312380D01*
X112246428Y-97955238D01*
X112305952Y-97836190D01*
X112365476Y-97776666D01*
X112484523Y-97717142D01*
X112663095Y-97717142D01*
X112782142Y-97776666D01*
X112841666Y-97836190D01*
X112901190Y-97955238D01*
X112901190Y-98312380D01*
X112841666Y-98431428D01*
X112782142Y-98490952D01*
X112663095Y-98550476D01*
X112484523Y-98550476D01*
X113972619Y-98490952D02*
X113853571Y-98550476D01*
X113615476Y-98550476D01*
X113496428Y-98490952D01*
X113436904Y-98431428D01*
X113377380Y-98312380D01*
X113377380Y-97955238D01*
X113436904Y-97836190D01*
X113496428Y-97776666D01*
X113615476Y-97717142D01*
X113853571Y-97717142D01*
X113972619Y-97776666D01*
X114508333Y-98550476D02*
X114508333Y-97300476D01*
X114627380Y-98074285D02*
X114984523Y-98550476D01*
X114984523Y-97717142D02*
X114508333Y-98193333D01*
X115996428Y-98490952D02*
X115877380Y-98550476D01*
X115639285Y-98550476D01*
X115520238Y-98490952D01*
X115460714Y-98371904D01*
X115460714Y-97895714D01*
X115520238Y-97776666D01*
X115639285Y-97717142D01*
X115877380Y-97717142D01*
X115996428Y-97776666D01*
X116055952Y-97895714D01*
X116055952Y-98014761D01*
X115460714Y-98133809D01*
X116413095Y-97717142D02*
X116889285Y-97717142D01*
X116591666Y-97300476D02*
X116591666Y-98371904D01*
X116651190Y-98490952D01*
X116770238Y-98550476D01*
X116889285Y-98550476D01*
X117305952Y-98431428D02*
X117365476Y-98490952D01*
X117305952Y-98550476D01*
X117246428Y-98490952D01*
X117305952Y-98431428D01*
X117305952Y-98550476D01*
D11*
X175727857Y-86830000D02*
X175680238Y-86782380D01*
X175632619Y-86639523D01*
X175632619Y-86544285D01*
X175680238Y-86401428D01*
X175775476Y-86306190D01*
X175870714Y-86258571D01*
X176061190Y-86210952D01*
X176204047Y-86210952D01*
X176394523Y-86258571D01*
X176489761Y-86306190D01*
X176585000Y-86401428D01*
X176632619Y-86544285D01*
X176632619Y-86639523D01*
X176585000Y-86782380D01*
X176537380Y-86830000D01*
X175632619Y-87258571D02*
X176299285Y-87258571D01*
X176108809Y-87258571D02*
X176204047Y-87306190D01*
X176251666Y-87353809D01*
X176299285Y-87449047D01*
X176299285Y-87544285D01*
X175680238Y-88258571D02*
X175632619Y-88163333D01*
X175632619Y-87972857D01*
X175680238Y-87877619D01*
X175775476Y-87830000D01*
X176156428Y-87830000D01*
X176251666Y-87877619D01*
X176299285Y-87972857D01*
X176299285Y-88163333D01*
X176251666Y-88258571D01*
X176156428Y-88306190D01*
X176061190Y-88306190D01*
X175965952Y-87830000D01*
X175632619Y-89163333D02*
X176156428Y-89163333D01*
X176251666Y-89115714D01*
X176299285Y-89020476D01*
X176299285Y-88830000D01*
X176251666Y-88734761D01*
X175680238Y-89163333D02*
X175632619Y-89068095D01*
X175632619Y-88830000D01*
X175680238Y-88734761D01*
X175775476Y-88687142D01*
X175870714Y-88687142D01*
X175965952Y-88734761D01*
X176013571Y-88830000D01*
X176013571Y-89068095D01*
X176061190Y-89163333D01*
X176299285Y-89496666D02*
X176299285Y-89877619D01*
X176632619Y-89639523D02*
X175775476Y-89639523D01*
X175680238Y-89687142D01*
X175632619Y-89782380D01*
X175632619Y-89877619D01*
X175680238Y-90591904D02*
X175632619Y-90496666D01*
X175632619Y-90306190D01*
X175680238Y-90210952D01*
X175775476Y-90163333D01*
X176156428Y-90163333D01*
X176251666Y-90210952D01*
X176299285Y-90306190D01*
X176299285Y-90496666D01*
X176251666Y-90591904D01*
X176156428Y-90639523D01*
X176061190Y-90639523D01*
X175965952Y-90163333D01*
X175632619Y-91496666D02*
X176632619Y-91496666D01*
X175680238Y-91496666D02*
X175632619Y-91401428D01*
X175632619Y-91210952D01*
X175680238Y-91115714D01*
X175727857Y-91068095D01*
X175823095Y-91020476D01*
X176108809Y-91020476D01*
X176204047Y-91068095D01*
X176251666Y-91115714D01*
X176299285Y-91210952D01*
X176299285Y-91401428D01*
X176251666Y-91496666D01*
X176537380Y-92687142D02*
X176585000Y-92734761D01*
X176632619Y-92830000D01*
X176632619Y-93068095D01*
X176585000Y-93163333D01*
X176537380Y-93210952D01*
X176442142Y-93258571D01*
X176346904Y-93258571D01*
X176204047Y-93210952D01*
X175632619Y-92639523D01*
X175632619Y-93258571D01*
X176632619Y-93877619D02*
X176632619Y-93972857D01*
X176585000Y-94068095D01*
X176537380Y-94115714D01*
X176442142Y-94163333D01*
X176251666Y-94210952D01*
X176013571Y-94210952D01*
X175823095Y-94163333D01*
X175727857Y-94115714D01*
X175680238Y-94068095D01*
X175632619Y-93972857D01*
X175632619Y-93877619D01*
X175680238Y-93782380D01*
X175727857Y-93734761D01*
X175823095Y-93687142D01*
X176013571Y-93639523D01*
X176251666Y-93639523D01*
X176442142Y-93687142D01*
X176537380Y-93734761D01*
X176585000Y-93782380D01*
X176632619Y-93877619D01*
X176537380Y-94591904D02*
X176585000Y-94639523D01*
X176632619Y-94734761D01*
X176632619Y-94972857D01*
X176585000Y-95068095D01*
X176537380Y-95115714D01*
X176442142Y-95163333D01*
X176346904Y-95163333D01*
X176204047Y-95115714D01*
X175632619Y-94544285D01*
X175632619Y-95163333D01*
X175632619Y-96115714D02*
X175632619Y-95544285D01*
X175632619Y-95830000D02*
X176632619Y-95830000D01*
X176489761Y-95734761D01*
X176394523Y-95639523D01*
X176346904Y-95544285D01*
X175632619Y-97306190D02*
X176632619Y-97306190D01*
X176251666Y-97306190D02*
X176299285Y-97401428D01*
X176299285Y-97591904D01*
X176251666Y-97687142D01*
X176204047Y-97734761D01*
X176108809Y-97782380D01*
X175823095Y-97782380D01*
X175727857Y-97734761D01*
X175680238Y-97687142D01*
X175632619Y-97591904D01*
X175632619Y-97401428D01*
X175680238Y-97306190D01*
X176299285Y-98115714D02*
X175632619Y-98353809D01*
X176299285Y-98591904D02*
X175632619Y-98353809D01*
X175394523Y-98258571D01*
X175346904Y-98210952D01*
X175299285Y-98115714D01*
X176632619Y-100020476D02*
X175918333Y-100020476D01*
X175775476Y-99972857D01*
X175680238Y-99877619D01*
X175632619Y-99734761D01*
X175632619Y-99639523D01*
X175632619Y-100925238D02*
X176156428Y-100925238D01*
X176251666Y-100877619D01*
X176299285Y-100782380D01*
X176299285Y-100591904D01*
X176251666Y-100496666D01*
X175680238Y-100925238D02*
X175632619Y-100829999D01*
X175632619Y-100591904D01*
X175680238Y-100496666D01*
X175775476Y-100449047D01*
X175870714Y-100449047D01*
X175965952Y-100496666D01*
X176013571Y-100591904D01*
X176013571Y-100829999D01*
X176061190Y-100925238D01*
X176299285Y-101306190D02*
X175632619Y-101544285D01*
X176299285Y-101782380D02*
X175632619Y-101544285D01*
X175394523Y-101449047D01*
X175346904Y-101401428D01*
X175299285Y-101306190D01*
X175680238Y-102544285D02*
X175632619Y-102449047D01*
X175632619Y-102258571D01*
X175680238Y-102163333D01*
X175775476Y-102115714D01*
X176156428Y-102115714D01*
X176251666Y-102163333D01*
X176299285Y-102258571D01*
X176299285Y-102449047D01*
X176251666Y-102544285D01*
X176156428Y-102591904D01*
X176061190Y-102591904D01*
X175965952Y-102115714D01*
X175680238Y-102972857D02*
X175632619Y-103068095D01*
X175632619Y-103258571D01*
X175680238Y-103353809D01*
X175775476Y-103401428D01*
X175823095Y-103401428D01*
X175918333Y-103353809D01*
X175965952Y-103258571D01*
X175965952Y-103115714D01*
X176013571Y-103020476D01*
X176108809Y-102972857D01*
X176156428Y-102972857D01*
X176251666Y-103020476D01*
X176299285Y-103115714D01*
X176299285Y-103258571D01*
X176251666Y-103353809D01*
X175632619Y-103972857D02*
X175680238Y-103877619D01*
X175727857Y-103829999D01*
X175823095Y-103782380D01*
X176108809Y-103782380D01*
X176204047Y-103829999D01*
X176251666Y-103877619D01*
X176299285Y-103972857D01*
X176299285Y-104115714D01*
X176251666Y-104210952D01*
X176204047Y-104258571D01*
X176108809Y-104306190D01*
X175823095Y-104306190D01*
X175727857Y-104258571D01*
X175680238Y-104210952D01*
X175632619Y-104115714D01*
X175632619Y-103972857D01*
X176299285Y-104734761D02*
X175632619Y-104734761D01*
X176204047Y-104734761D02*
X176251666Y-104782380D01*
X176299285Y-104877619D01*
X176299285Y-105020476D01*
X176251666Y-105115714D01*
X176156428Y-105163333D01*
X175632619Y-105163333D01*
X175632619Y-106877619D02*
X175632619Y-106401428D01*
X176632619Y-106401428D01*
X175680238Y-107591904D02*
X175632619Y-107496666D01*
X175632619Y-107306190D01*
X175680238Y-107210952D01*
X175775476Y-107163333D01*
X176156428Y-107163333D01*
X176251666Y-107210952D01*
X176299285Y-107306190D01*
X176299285Y-107496666D01*
X176251666Y-107591904D01*
X176156428Y-107639523D01*
X176061190Y-107639523D01*
X175965952Y-107163333D01*
X175680238Y-108449047D02*
X175632619Y-108353809D01*
X175632619Y-108163333D01*
X175680238Y-108068095D01*
X175775476Y-108020476D01*
X176156428Y-108020476D01*
X176251666Y-108068095D01*
X176299285Y-108163333D01*
X176299285Y-108353809D01*
X176251666Y-108449047D01*
X176156428Y-108496666D01*
X176061190Y-108496666D01*
X175965952Y-108020476D01*
X176013571Y-108925238D02*
X176013571Y-109687142D01*
X175680238Y-110115714D02*
X175632619Y-110258571D01*
X175632619Y-110496666D01*
X175680238Y-110591904D01*
X175727857Y-110639523D01*
X175823095Y-110687142D01*
X175918333Y-110687142D01*
X176013571Y-110639523D01*
X176061190Y-110591904D01*
X176108809Y-110496666D01*
X176156428Y-110306190D01*
X176204047Y-110210952D01*
X176251666Y-110163333D01*
X176346904Y-110115714D01*
X176442142Y-110115714D01*
X176537380Y-110163333D01*
X176585000Y-110210952D01*
X176632619Y-110306190D01*
X176632619Y-110544285D01*
X176585000Y-110687142D01*
X176299285Y-110972857D02*
X176299285Y-111353809D01*
X176632619Y-111115714D02*
X175775476Y-111115714D01*
X175680238Y-111163333D01*
X175632619Y-111258571D01*
X175632619Y-111353809D01*
X175680238Y-112068095D02*
X175632619Y-111972857D01*
X175632619Y-111782380D01*
X175680238Y-111687142D01*
X175775476Y-111639523D01*
X176156428Y-111639523D01*
X176251666Y-111687142D01*
X176299285Y-111782380D01*
X176299285Y-111972857D01*
X176251666Y-112068095D01*
X176156428Y-112115714D01*
X176061190Y-112115714D01*
X175965952Y-111639523D01*
X175680238Y-112925238D02*
X175632619Y-112829999D01*
X175632619Y-112639523D01*
X175680238Y-112544285D01*
X175775476Y-112496666D01*
X176156428Y-112496666D01*
X176251666Y-112544285D01*
X176299285Y-112639523D01*
X176299285Y-112829999D01*
X176251666Y-112925238D01*
X176156428Y-112972857D01*
X176061190Y-112972857D01*
X175965952Y-112496666D01*
X175632619Y-113401428D02*
X176299285Y-113401428D01*
X176108809Y-113401428D02*
X176204047Y-113449047D01*
X176251666Y-113496666D01*
X176299285Y-113591904D01*
X176299285Y-113687142D01*
X175680238Y-114401428D02*
X175632619Y-114306190D01*
X175632619Y-114115714D01*
X175680238Y-114020476D01*
X175775476Y-113972857D01*
X176156428Y-113972857D01*
X176251666Y-114020476D01*
X176299285Y-114115714D01*
X176299285Y-114306190D01*
X176251666Y-114401428D01*
X176156428Y-114449047D01*
X176061190Y-114449047D01*
X175965952Y-113972857D01*
X173982619Y-88830000D02*
X174982619Y-88830000D01*
X174982619Y-89210952D01*
X174935000Y-89306190D01*
X174887380Y-89353809D01*
X174792142Y-89401428D01*
X174649285Y-89401428D01*
X174554047Y-89353809D01*
X174506428Y-89306190D01*
X174458809Y-89210952D01*
X174458809Y-88830000D01*
X173982619Y-89972857D02*
X174030238Y-89877619D01*
X174125476Y-89830000D01*
X174982619Y-89830000D01*
X173982619Y-90782380D02*
X174506428Y-90782380D01*
X174601666Y-90734761D01*
X174649285Y-90639523D01*
X174649285Y-90449047D01*
X174601666Y-90353809D01*
X174030238Y-90782380D02*
X173982619Y-90687142D01*
X173982619Y-90449047D01*
X174030238Y-90353809D01*
X174125476Y-90306190D01*
X174220714Y-90306190D01*
X174315952Y-90353809D01*
X174363571Y-90449047D01*
X174363571Y-90687142D01*
X174411190Y-90782380D01*
X174030238Y-91687142D02*
X173982619Y-91591904D01*
X173982619Y-91401428D01*
X174030238Y-91306190D01*
X174077857Y-91258571D01*
X174173095Y-91210952D01*
X174458809Y-91210952D01*
X174554047Y-91258571D01*
X174601666Y-91306190D01*
X174649285Y-91401428D01*
X174649285Y-91591904D01*
X174601666Y-91687142D01*
X174030238Y-92496666D02*
X173982619Y-92401428D01*
X173982619Y-92210952D01*
X174030238Y-92115714D01*
X174125476Y-92068095D01*
X174506428Y-92068095D01*
X174601666Y-92115714D01*
X174649285Y-92210952D01*
X174649285Y-92401428D01*
X174601666Y-92496666D01*
X174506428Y-92544285D01*
X174411190Y-92544285D01*
X174315952Y-92068095D01*
X173982619Y-93401428D02*
X174982619Y-93401428D01*
X174030238Y-93401428D02*
X173982619Y-93306190D01*
X173982619Y-93115714D01*
X174030238Y-93020476D01*
X174077857Y-92972857D01*
X174173095Y-92925238D01*
X174458809Y-92925238D01*
X174554047Y-92972857D01*
X174601666Y-93020476D01*
X174649285Y-93115714D01*
X174649285Y-93306190D01*
X174601666Y-93401428D01*
X173982619Y-94639523D02*
X174649285Y-94639523D01*
X174982619Y-94639523D02*
X174935000Y-94591904D01*
X174887380Y-94639523D01*
X174935000Y-94687142D01*
X174982619Y-94639523D01*
X174887380Y-94639523D01*
X174649285Y-95115714D02*
X173982619Y-95115714D01*
X174554047Y-95115714D02*
X174601666Y-95163333D01*
X174649285Y-95258571D01*
X174649285Y-95401428D01*
X174601666Y-95496666D01*
X174506428Y-95544285D01*
X173982619Y-95544285D01*
X174649285Y-95877619D02*
X174649285Y-96258571D01*
X174982619Y-96020476D02*
X174125476Y-96020476D01*
X174030238Y-96068095D01*
X173982619Y-96163333D01*
X173982619Y-96258571D01*
X173982619Y-96734761D02*
X174030238Y-96639523D01*
X174077857Y-96591904D01*
X174173095Y-96544285D01*
X174458809Y-96544285D01*
X174554047Y-96591904D01*
X174601666Y-96639523D01*
X174649285Y-96734761D01*
X174649285Y-96877619D01*
X174601666Y-96972857D01*
X174554047Y-97020476D01*
X174458809Y-97068095D01*
X174173095Y-97068095D01*
X174077857Y-97020476D01*
X174030238Y-96972857D01*
X173982619Y-96877619D01*
X173982619Y-96734761D01*
X174649285Y-98115714D02*
X174649285Y-98496666D01*
X174982619Y-98258571D02*
X174125476Y-98258571D01*
X174030238Y-98306190D01*
X173982619Y-98401428D01*
X173982619Y-98496666D01*
X173982619Y-98830000D02*
X174982619Y-98830000D01*
X173982619Y-99258571D02*
X174506428Y-99258571D01*
X174601666Y-99210952D01*
X174649285Y-99115714D01*
X174649285Y-98972857D01*
X174601666Y-98877619D01*
X174554047Y-98830000D01*
X174030238Y-100115714D02*
X173982619Y-100020476D01*
X173982619Y-99830000D01*
X174030238Y-99734761D01*
X174125476Y-99687142D01*
X174506428Y-99687142D01*
X174601666Y-99734761D01*
X174649285Y-99830000D01*
X174649285Y-100020476D01*
X174601666Y-100115714D01*
X174506428Y-100163333D01*
X174411190Y-100163333D01*
X174315952Y-99687142D01*
X173982619Y-101353809D02*
X174982619Y-101353809D01*
X174982619Y-101734761D01*
X174935000Y-101830000D01*
X174887380Y-101877619D01*
X174792142Y-101925238D01*
X174649285Y-101925238D01*
X174554047Y-101877619D01*
X174506428Y-101830000D01*
X174458809Y-101734761D01*
X174458809Y-101353809D01*
X174649285Y-102782380D02*
X173982619Y-102782380D01*
X174649285Y-102353809D02*
X174125476Y-102353809D01*
X174030238Y-102401428D01*
X173982619Y-102496666D01*
X173982619Y-102639523D01*
X174030238Y-102734761D01*
X174077857Y-102782380D01*
X173982619Y-103258571D02*
X174982619Y-103258571D01*
X174601666Y-103258571D02*
X174649285Y-103353809D01*
X174649285Y-103544285D01*
X174601666Y-103639523D01*
X174554047Y-103687142D01*
X174458809Y-103734761D01*
X174173095Y-103734761D01*
X174077857Y-103687142D01*
X174030238Y-103639523D01*
X173982619Y-103544285D01*
X173982619Y-103353809D01*
X174030238Y-103258571D01*
X173982619Y-104306190D02*
X174030238Y-104210952D01*
X174125476Y-104163333D01*
X174982619Y-104163333D01*
X173982619Y-104687142D02*
X174649285Y-104687142D01*
X174982619Y-104687142D02*
X174935000Y-104639523D01*
X174887380Y-104687142D01*
X174935000Y-104734761D01*
X174982619Y-104687142D01*
X174887380Y-104687142D01*
X174030238Y-105591904D02*
X173982619Y-105496666D01*
X173982619Y-105306190D01*
X174030238Y-105210952D01*
X174077857Y-105163333D01*
X174173095Y-105115714D01*
X174458809Y-105115714D01*
X174554047Y-105163333D01*
X174601666Y-105210952D01*
X174649285Y-105306190D01*
X174649285Y-105496666D01*
X174601666Y-105591904D01*
X173982619Y-106782380D02*
X174982619Y-106782380D01*
X174982619Y-107020476D01*
X174935000Y-107163333D01*
X174839761Y-107258571D01*
X174744523Y-107306190D01*
X174554047Y-107353809D01*
X174411190Y-107353809D01*
X174220714Y-107306190D01*
X174125476Y-107258571D01*
X174030238Y-107163333D01*
X173982619Y-107020476D01*
X173982619Y-106782380D01*
X173982619Y-107925238D02*
X174030238Y-107830000D01*
X174077857Y-107782380D01*
X174173095Y-107734761D01*
X174458809Y-107734761D01*
X174554047Y-107782380D01*
X174601666Y-107830000D01*
X174649285Y-107925238D01*
X174649285Y-108068095D01*
X174601666Y-108163333D01*
X174554047Y-108210952D01*
X174458809Y-108258571D01*
X174173095Y-108258571D01*
X174077857Y-108210952D01*
X174030238Y-108163333D01*
X173982619Y-108068095D01*
X173982619Y-107925238D01*
X173982619Y-108687142D02*
X174649285Y-108687142D01*
X174554047Y-108687142D02*
X174601666Y-108734761D01*
X174649285Y-108830000D01*
X174649285Y-108972857D01*
X174601666Y-109068095D01*
X174506428Y-109115714D01*
X173982619Y-109115714D01*
X174506428Y-109115714D02*
X174601666Y-109163333D01*
X174649285Y-109258571D01*
X174649285Y-109401428D01*
X174601666Y-109496666D01*
X174506428Y-109544285D01*
X173982619Y-109544285D01*
X173982619Y-110449047D02*
X174506428Y-110449047D01*
X174601666Y-110401428D01*
X174649285Y-110306190D01*
X174649285Y-110115714D01*
X174601666Y-110020476D01*
X174030238Y-110449047D02*
X173982619Y-110353809D01*
X173982619Y-110115714D01*
X174030238Y-110020476D01*
X174125476Y-109972857D01*
X174220714Y-109972857D01*
X174315952Y-110020476D01*
X174363571Y-110115714D01*
X174363571Y-110353809D01*
X174411190Y-110449047D01*
X173982619Y-110925238D02*
X174649285Y-110925238D01*
X174982619Y-110925238D02*
X174935000Y-110877619D01*
X174887380Y-110925238D01*
X174935000Y-110972857D01*
X174982619Y-110925238D01*
X174887380Y-110925238D01*
X174649285Y-111401428D02*
X173982619Y-111401428D01*
X174554047Y-111401428D02*
X174601666Y-111449047D01*
X174649285Y-111544285D01*
X174649285Y-111687142D01*
X174601666Y-111782380D01*
X174506428Y-111830000D01*
X173982619Y-111830000D01*
D12*
X179268571Y-82330000D02*
X179125714Y-82187142D01*
X178982857Y-81758571D01*
X178982857Y-81472857D01*
X179125714Y-81044285D01*
X179411428Y-80758571D01*
X179697142Y-80615714D01*
X180268571Y-80472857D01*
X180697142Y-80472857D01*
X181268571Y-80615714D01*
X181554285Y-80758571D01*
X181840000Y-81044285D01*
X181982857Y-81472857D01*
X181982857Y-81758571D01*
X181840000Y-82187142D01*
X181697142Y-82330000D01*
X178982857Y-83615714D02*
X181982857Y-83615714D01*
X178982857Y-84901428D02*
X180554285Y-84901428D01*
X180840000Y-84758571D01*
X180982857Y-84472857D01*
X180982857Y-84044285D01*
X180840000Y-83758571D01*
X180697142Y-83615714D01*
X178982857Y-86330000D02*
X180982857Y-86330000D01*
X181982857Y-86330000D02*
X181840000Y-86187142D01*
X181697142Y-86330000D01*
X181840000Y-86472857D01*
X181982857Y-86330000D01*
X181697142Y-86330000D01*
X180982857Y-87758571D02*
X177982857Y-87758571D01*
X180840000Y-87758571D02*
X180982857Y-88044285D01*
X180982857Y-88615714D01*
X180840000Y-88901428D01*
X180697142Y-89044285D01*
X180411428Y-89187142D01*
X179554285Y-89187142D01*
X179268571Y-89044285D01*
X179125714Y-88901428D01*
X178982857Y-88615714D01*
X178982857Y-88044285D01*
X179125714Y-87758571D01*
X178982857Y-92758571D02*
X181982857Y-92758571D01*
X180982857Y-94187142D02*
X178982857Y-94187142D01*
X180697142Y-94187142D02*
X180840000Y-94330000D01*
X180982857Y-94615714D01*
X180982857Y-95044285D01*
X180840000Y-95330000D01*
X180554285Y-95472857D01*
X178982857Y-95472857D01*
X179125714Y-96758571D02*
X178982857Y-97044285D01*
X178982857Y-97615714D01*
X179125714Y-97901428D01*
X179411428Y-98044285D01*
X179554285Y-98044285D01*
X179840000Y-97901428D01*
X179982857Y-97615714D01*
X179982857Y-97187142D01*
X180125714Y-96901428D01*
X180411428Y-96758571D01*
X180554285Y-96758571D01*
X180840000Y-96901428D01*
X180982857Y-97187142D01*
X180982857Y-97615714D01*
X180840000Y-97901428D01*
X180982857Y-99330000D02*
X177982857Y-99330000D01*
X180840000Y-99330000D02*
X180982857Y-99615714D01*
X180982857Y-100187142D01*
X180840000Y-100472857D01*
X180697142Y-100615714D01*
X180411428Y-100758571D01*
X179554285Y-100758571D01*
X179268571Y-100615714D01*
X179125714Y-100472857D01*
X178982857Y-100187142D01*
X178982857Y-99615714D01*
X179125714Y-99330000D01*
X179125714Y-103187142D02*
X178982857Y-102901428D01*
X178982857Y-102330000D01*
X179125714Y-102044285D01*
X179411428Y-101901428D01*
X180554285Y-101901428D01*
X180840000Y-102044285D01*
X180982857Y-102330000D01*
X180982857Y-102901428D01*
X180840000Y-103187142D01*
X180554285Y-103330000D01*
X180268571Y-103330000D01*
X179982857Y-101901428D01*
X179125714Y-105901428D02*
X178982857Y-105615714D01*
X178982857Y-105044285D01*
X179125714Y-104758571D01*
X179268571Y-104615714D01*
X179554285Y-104472857D01*
X180411428Y-104472857D01*
X180697142Y-104615714D01*
X180840000Y-104758571D01*
X180982857Y-105044285D01*
X180982857Y-105615714D01*
X180840000Y-105901428D01*
X180982857Y-106758571D02*
X180982857Y-107901428D01*
X181982857Y-107187142D02*
X179411428Y-107187142D01*
X179125714Y-107330000D01*
X178982857Y-107615714D01*
X178982857Y-107901428D01*
X178982857Y-109330000D02*
X179125714Y-109044285D01*
X179268571Y-108901428D01*
X179554285Y-108758571D01*
X180411428Y-108758571D01*
X180697142Y-108901428D01*
X180840000Y-109044285D01*
X180982857Y-109330000D01*
X180982857Y-109758571D01*
X180840000Y-110044285D01*
X180697142Y-110187142D01*
X180411428Y-110330000D01*
X179554285Y-110330000D01*
X179268571Y-110187142D01*
X179125714Y-110044285D01*
X178982857Y-109758571D01*
X178982857Y-109330000D01*
X178982857Y-111615714D02*
X180982857Y-111615714D01*
X180411428Y-111615714D02*
X180697142Y-111758571D01*
X180840000Y-111901428D01*
X180982857Y-112187142D01*
X180982857Y-112472857D01*
X181697142Y-115615714D02*
X181840000Y-115758571D01*
X181982857Y-116044285D01*
X181982857Y-116758571D01*
X181840000Y-117044285D01*
X181697142Y-117187142D01*
X181411428Y-117330000D01*
X181125714Y-117330000D01*
X180697142Y-117187142D01*
X178982857Y-115472857D01*
X178982857Y-117330000D01*
X180982857Y-119901428D02*
X178982857Y-119901428D01*
X182125714Y-119187142D02*
X179982857Y-118472857D01*
X179982857Y-120330000D01*
D11*
X139200714Y-122086666D02*
X139676904Y-122086666D01*
X139105476Y-122372380D02*
X139438809Y-121372380D01*
X139772142Y-122372380D01*
X140248333Y-122372380D02*
X140153095Y-122324761D01*
X140105476Y-122229523D01*
X140105476Y-121372380D01*
X140772142Y-122372380D02*
X140676904Y-122324761D01*
X140629285Y-122229523D01*
X140629285Y-121372380D01*
X141915000Y-122372380D02*
X141915000Y-121705714D01*
X141915000Y-121896190D02*
X141962619Y-121800952D01*
X142010238Y-121753333D01*
X142105476Y-121705714D01*
X142200714Y-121705714D01*
X142915000Y-122324761D02*
X142819761Y-122372380D01*
X142629285Y-122372380D01*
X142534047Y-122324761D01*
X142486428Y-122229523D01*
X142486428Y-121848571D01*
X142534047Y-121753333D01*
X142629285Y-121705714D01*
X142819761Y-121705714D01*
X142915000Y-121753333D01*
X142962619Y-121848571D01*
X142962619Y-121943809D01*
X142486428Y-122039047D01*
X143343571Y-122324761D02*
X143438809Y-122372380D01*
X143629285Y-122372380D01*
X143724523Y-122324761D01*
X143772142Y-122229523D01*
X143772142Y-122181904D01*
X143724523Y-122086666D01*
X143629285Y-122039047D01*
X143486428Y-122039047D01*
X143391190Y-121991428D01*
X143343571Y-121896190D01*
X143343571Y-121848571D01*
X143391190Y-121753333D01*
X143486428Y-121705714D01*
X143629285Y-121705714D01*
X143724523Y-121753333D01*
X144200714Y-122372380D02*
X144200714Y-121705714D01*
X144200714Y-121372380D02*
X144153095Y-121420000D01*
X144200714Y-121467619D01*
X144248333Y-121420000D01*
X144200714Y-121372380D01*
X144200714Y-121467619D01*
X144629285Y-122324761D02*
X144724523Y-122372380D01*
X144915000Y-122372380D01*
X145010238Y-122324761D01*
X145057857Y-122229523D01*
X145057857Y-122181904D01*
X145010238Y-122086666D01*
X144915000Y-122039047D01*
X144772142Y-122039047D01*
X144676904Y-121991428D01*
X144629285Y-121896190D01*
X144629285Y-121848571D01*
X144676904Y-121753333D01*
X144772142Y-121705714D01*
X144915000Y-121705714D01*
X145010238Y-121753333D01*
X145343571Y-121705714D02*
X145724523Y-121705714D01*
X145486428Y-121372380D02*
X145486428Y-122229523D01*
X145534047Y-122324761D01*
X145629285Y-122372380D01*
X145724523Y-122372380D01*
X146200714Y-122372380D02*
X146105476Y-122324761D01*
X146057857Y-122277142D01*
X146010238Y-122181904D01*
X146010238Y-121896190D01*
X146057857Y-121800952D01*
X146105476Y-121753333D01*
X146200714Y-121705714D01*
X146343571Y-121705714D01*
X146438809Y-121753333D01*
X146486428Y-121800952D01*
X146534047Y-121896190D01*
X146534047Y-122181904D01*
X146486428Y-122277142D01*
X146438809Y-122324761D01*
X146343571Y-122372380D01*
X146200714Y-122372380D01*
X146962619Y-122372380D02*
X146962619Y-121705714D01*
X146962619Y-121896190D02*
X147010238Y-121800952D01*
X147057857Y-121753333D01*
X147153095Y-121705714D01*
X147248333Y-121705714D01*
X147534047Y-122324761D02*
X147629285Y-122372380D01*
X147819761Y-122372380D01*
X147915000Y-122324761D01*
X147962619Y-122229523D01*
X147962619Y-122181904D01*
X147915000Y-122086666D01*
X147819761Y-122039047D01*
X147676904Y-122039047D01*
X147581666Y-121991428D01*
X147534047Y-121896190D01*
X147534047Y-121848571D01*
X147581666Y-121753333D01*
X147676904Y-121705714D01*
X147819761Y-121705714D01*
X147915000Y-121753333D01*
X149676904Y-122372380D02*
X149105476Y-122372380D01*
X149391190Y-122372380D02*
X149391190Y-121372380D01*
X149295952Y-121515238D01*
X149200714Y-121610476D01*
X149105476Y-121658095D01*
X150295952Y-121372380D02*
X150391190Y-121372380D01*
X150486428Y-121420000D01*
X150534047Y-121467619D01*
X150581666Y-121562857D01*
X150629285Y-121753333D01*
X150629285Y-121991428D01*
X150581666Y-122181904D01*
X150534047Y-122277142D01*
X150486428Y-122324761D01*
X150391190Y-122372380D01*
X150295952Y-122372380D01*
X150200714Y-122324761D01*
X150153095Y-122277142D01*
X150105476Y-122181904D01*
X150057857Y-121991428D01*
X150057857Y-121753333D01*
X150105476Y-121562857D01*
X150153095Y-121467619D01*
X150200714Y-121420000D01*
X150295952Y-121372380D01*
X151057857Y-122372380D02*
X151057857Y-121372380D01*
X151629285Y-122372380D02*
X151200714Y-121800952D01*
X151629285Y-121372380D02*
X151057857Y-121943809D01*
D13*
%TO.C,J1*%
X124080000Y-76970000D02*
X124080000Y-79230000D01*
X121840000Y-76970000D02*
X121840000Y-78830000D01*
X137240000Y-76970000D02*
X121840000Y-76970000D01*
X137240000Y-122670000D02*
X137240000Y-76970000D01*
X121840000Y-122670000D02*
X137240000Y-122670000D01*
X121840000Y-83730000D02*
X121840000Y-122670000D01*
X123430000Y-81280000D02*
G75*
G03*
X123430000Y-81280000I-900000J0D01*
G01*
X125080000Y-81280000D02*
G75*
G03*
X125080000Y-81280000I-2550000J0D01*
G01*
D11*
%TO.C,M1*%
X155075000Y-73905000D02*
X155075000Y-75175000D01*
X170045000Y-73905000D02*
X170045000Y-75175000D01*
X170045000Y-126755000D02*
X170045000Y-125485000D01*
X155075000Y-126755000D02*
X155075000Y-125485000D01*
X155075000Y-73905000D02*
X170045000Y-73905000D01*
X155075000Y-126755000D02*
X170045000Y-126755000D01*
X155075000Y-75175000D02*
X154140000Y-75175000D01*
D13*
%TO.C,R23*%
X147450436Y-90905000D02*
X147904564Y-90905000D01*
X147450436Y-89435000D02*
X147904564Y-89435000D01*
%TO.C,R22*%
X147450436Y-93445000D02*
X147904564Y-93445000D01*
X147450436Y-91975000D02*
X147904564Y-91975000D01*
%TO.C,R21*%
X147450436Y-95985000D02*
X147904564Y-95985000D01*
X147450436Y-94515000D02*
X147904564Y-94515000D01*
%TO.C,R20*%
X147450436Y-98525000D02*
X147904564Y-98525000D01*
X147450436Y-97055000D02*
X147904564Y-97055000D01*
%TO.C,R19*%
X147450436Y-101065000D02*
X147904564Y-101065000D01*
X147450436Y-99595000D02*
X147904564Y-99595000D01*
%TO.C,R18*%
X147450436Y-103605000D02*
X147904564Y-103605000D01*
X147450436Y-102135000D02*
X147904564Y-102135000D01*
%TO.C,R17*%
X147450436Y-106145000D02*
X147904564Y-106145000D01*
X147450436Y-104675000D02*
X147904564Y-104675000D01*
%TO.C,R16*%
X147450436Y-107215000D02*
X147904564Y-107215000D01*
X147450436Y-108685000D02*
X147904564Y-108685000D01*
%TO.C,R15*%
X147450436Y-111225000D02*
X147904564Y-111225000D01*
X147450436Y-109755000D02*
X147904564Y-109755000D01*
%TO.C,R14*%
X147450436Y-113765000D02*
X147904564Y-113765000D01*
X147450436Y-112295000D02*
X147904564Y-112295000D01*
%TO.C,R13*%
X147450436Y-116305000D02*
X147904564Y-116305000D01*
X147450436Y-114835000D02*
X147904564Y-114835000D01*
%TO.C,R12*%
X139830436Y-117575000D02*
X140284564Y-117575000D01*
X139830436Y-116105000D02*
X140284564Y-116105000D01*
%TO.C,R11*%
X139830436Y-115035000D02*
X140284564Y-115035000D01*
X139830436Y-113565000D02*
X140284564Y-113565000D01*
%TO.C,R10*%
X139830436Y-112495000D02*
X140284564Y-112495000D01*
X139830436Y-111025000D02*
X140284564Y-111025000D01*
%TO.C,R9*%
X139830436Y-109955000D02*
X140284564Y-109955000D01*
X139830436Y-108485000D02*
X140284564Y-108485000D01*
%TO.C,R8*%
X139830436Y-107415000D02*
X140284564Y-107415000D01*
X139830436Y-105945000D02*
X140284564Y-105945000D01*
%TO.C,R7*%
X139830436Y-104875000D02*
X140284564Y-104875000D01*
X139830436Y-103405000D02*
X140284564Y-103405000D01*
%TO.C,R6*%
X139830436Y-102335000D02*
X140284564Y-102335000D01*
X139830436Y-100865000D02*
X140284564Y-100865000D01*
%TO.C,R5*%
X139830436Y-99795000D02*
X140284564Y-99795000D01*
X139830436Y-98325000D02*
X140284564Y-98325000D01*
%TO.C,R4*%
X139830436Y-97255000D02*
X140284564Y-97255000D01*
X139830436Y-95785000D02*
X140284564Y-95785000D01*
%TO.C,R3*%
X139830436Y-94715000D02*
X140284564Y-94715000D01*
X139830436Y-93245000D02*
X140284564Y-93245000D01*
%TO.C,R2*%
X139830436Y-92175000D02*
X140284564Y-92175000D01*
X139830436Y-90705000D02*
X140284564Y-90705000D01*
%TO.C,R1*%
X139830436Y-89635000D02*
X140284564Y-89635000D01*
X139830436Y-88165000D02*
X140284564Y-88165000D01*
%TD*%
D14*
X163080000Y-91440000D02*
X163080000Y-91440000D01*
X164580000Y-91440000D02*
X164580000Y-91440000D01*
X163080000Y-91440000D02*
G75*
G03*
X164580000Y-91440000I750000J0D01*
G01*
X164580000Y-91440000D02*
G75*
G03*
X163080000Y-91440000I-750000J0D01*
G01*
X160540000Y-91440000D02*
X160540000Y-91440000D01*
X162040000Y-91440000D02*
X162040000Y-91440000D01*
X160540000Y-91440000D02*
G75*
G03*
X162040000Y-91440000I750000J0D01*
G01*
X162040000Y-91440000D02*
G75*
G03*
X160540000Y-91440000I-750000J0D01*
G01*
X169430000Y-76200000D02*
X169430000Y-76200000D01*
X170930000Y-76200000D02*
X170930000Y-76200000D01*
X169430000Y-76200000D02*
G75*
G03*
X170930000Y-76200000I750000J0D01*
G01*
X170930000Y-76200000D02*
G75*
G03*
X169430000Y-76200000I-750000J0D01*
G01*
X169430000Y-78740000D02*
X169430000Y-78740000D01*
X170930000Y-78740000D02*
X170930000Y-78740000D01*
X169430000Y-78740000D02*
G75*
G03*
X170930000Y-78740000I750000J0D01*
G01*
X170930000Y-78740000D02*
G75*
G03*
X169430000Y-78740000I-750000J0D01*
G01*
X169430000Y-81280000D02*
X169430000Y-81280000D01*
X170930000Y-81280000D02*
X170930000Y-81280000D01*
X169430000Y-81280000D02*
G75*
G03*
X170930000Y-81280000I750000J0D01*
G01*
X170930000Y-81280000D02*
G75*
G03*
X169430000Y-81280000I-750000J0D01*
G01*
X169430000Y-83820000D02*
X169430000Y-83820000D01*
X170930000Y-83820000D02*
X170930000Y-83820000D01*
X169430000Y-83820000D02*
G75*
G03*
X170930000Y-83820000I750000J0D01*
G01*
X170930000Y-83820000D02*
G75*
G03*
X169430000Y-83820000I-750000J0D01*
G01*
X169430000Y-86360000D02*
X169430000Y-86360000D01*
X170930000Y-86360000D02*
X170930000Y-86360000D01*
X169430000Y-86360000D02*
G75*
G03*
X170930000Y-86360000I750000J0D01*
G01*
X170930000Y-86360000D02*
G75*
G03*
X169430000Y-86360000I-750000J0D01*
G01*
X169430000Y-88900000D02*
X169430000Y-88900000D01*
X170930000Y-88900000D02*
X170930000Y-88900000D01*
X169430000Y-88900000D02*
G75*
G03*
X170930000Y-88900000I750000J0D01*
G01*
X170930000Y-88900000D02*
G75*
G03*
X169430000Y-88900000I-750000J0D01*
G01*
X169430000Y-91440000D02*
X169430000Y-91440000D01*
X170930000Y-91440000D02*
X170930000Y-91440000D01*
X169430000Y-91440000D02*
G75*
G03*
X170930000Y-91440000I750000J0D01*
G01*
X170930000Y-91440000D02*
G75*
G03*
X169430000Y-91440000I-750000J0D01*
G01*
X169430000Y-93980000D02*
X169430000Y-93980000D01*
X170930000Y-93980000D02*
X170930000Y-93980000D01*
X169430000Y-93980000D02*
G75*
G03*
X170930000Y-93980000I750000J0D01*
G01*
X170930000Y-93980000D02*
G75*
G03*
X169430000Y-93980000I-750000J0D01*
G01*
X169430000Y-96520000D02*
X169430000Y-96520000D01*
X170930000Y-96520000D02*
X170930000Y-96520000D01*
X169430000Y-96520000D02*
G75*
G03*
X170930000Y-96520000I750000J0D01*
G01*
X170930000Y-96520000D02*
G75*
G03*
X169430000Y-96520000I-750000J0D01*
G01*
X169430000Y-99060000D02*
X169430000Y-99060000D01*
X170930000Y-99060000D02*
X170930000Y-99060000D01*
X169430000Y-99060000D02*
G75*
G03*
X170930000Y-99060000I750000J0D01*
G01*
X170930000Y-99060000D02*
G75*
G03*
X169430000Y-99060000I-750000J0D01*
G01*
X169430000Y-101600000D02*
X169430000Y-101600000D01*
X170930000Y-101600000D02*
X170930000Y-101600000D01*
X169430000Y-101600000D02*
G75*
G03*
X170930000Y-101600000I750000J0D01*
G01*
X170930000Y-101600000D02*
G75*
G03*
X169430000Y-101600000I-750000J0D01*
G01*
X169430000Y-104140000D02*
X169430000Y-104140000D01*
X170930000Y-104140000D02*
X170930000Y-104140000D01*
X169430000Y-104140000D02*
G75*
G03*
X170930000Y-104140000I750000J0D01*
G01*
X170930000Y-104140000D02*
G75*
G03*
X169430000Y-104140000I-750000J0D01*
G01*
X169430000Y-106680000D02*
X169430000Y-106680000D01*
X170930000Y-106680000D02*
X170930000Y-106680000D01*
X169430000Y-106680000D02*
G75*
G03*
X170930000Y-106680000I750000J0D01*
G01*
X170930000Y-106680000D02*
G75*
G03*
X169430000Y-106680000I-750000J0D01*
G01*
X169430000Y-109220000D02*
X169430000Y-109220000D01*
X170930000Y-109220000D02*
X170930000Y-109220000D01*
X169430000Y-109220000D02*
G75*
G03*
X170930000Y-109220000I750000J0D01*
G01*
X170930000Y-109220000D02*
G75*
G03*
X169430000Y-109220000I-750000J0D01*
G01*
X169430000Y-111760000D02*
X169430000Y-111760000D01*
X170930000Y-111760000D02*
X170930000Y-111760000D01*
X169430000Y-111760000D02*
G75*
G03*
X170930000Y-111760000I750000J0D01*
G01*
X170930000Y-111760000D02*
G75*
G03*
X169430000Y-111760000I-750000J0D01*
G01*
X169430000Y-114300000D02*
X169430000Y-114300000D01*
X170930000Y-114300000D02*
X170930000Y-114300000D01*
X169430000Y-114300000D02*
G75*
G03*
X170930000Y-114300000I750000J0D01*
G01*
X170930000Y-114300000D02*
G75*
G03*
X169430000Y-114300000I-750000J0D01*
G01*
X169430000Y-116840000D02*
X169430000Y-116840000D01*
X170930000Y-116840000D02*
X170930000Y-116840000D01*
X169430000Y-116840000D02*
G75*
G03*
X170930000Y-116840000I750000J0D01*
G01*
X170930000Y-116840000D02*
G75*
G03*
X169430000Y-116840000I-750000J0D01*
G01*
X169430000Y-119380000D02*
X169430000Y-119380000D01*
X170930000Y-119380000D02*
X170930000Y-119380000D01*
X169430000Y-119380000D02*
G75*
G03*
X170930000Y-119380000I750000J0D01*
G01*
X170930000Y-119380000D02*
G75*
G03*
X169430000Y-119380000I-750000J0D01*
G01*
X169430000Y-121920000D02*
X169430000Y-121920000D01*
X170930000Y-121920000D02*
X170930000Y-121920000D01*
X169430000Y-121920000D02*
G75*
G03*
X170930000Y-121920000I750000J0D01*
G01*
X170930000Y-121920000D02*
G75*
G03*
X169430000Y-121920000I-750000J0D01*
G01*
X169430000Y-124460000D02*
X169430000Y-124460000D01*
X170930000Y-124460000D02*
X170930000Y-124460000D01*
X169430000Y-124460000D02*
G75*
G03*
X170930000Y-124460000I750000J0D01*
G01*
X170930000Y-124460000D02*
G75*
G03*
X169430000Y-124460000I-750000J0D01*
G01*
X154190000Y-124460000D02*
X154190000Y-124460000D01*
X155690000Y-124460000D02*
X155690000Y-124460000D01*
X154190000Y-124460000D02*
G75*
G03*
X155690000Y-124460000I750000J0D01*
G01*
X155690000Y-124460000D02*
G75*
G03*
X154190000Y-124460000I-750000J0D01*
G01*
X154190000Y-121920000D02*
X154190000Y-121920000D01*
X155690000Y-121920000D02*
X155690000Y-121920000D01*
X154190000Y-121920000D02*
G75*
G03*
X155690000Y-121920000I750000J0D01*
G01*
X155690000Y-121920000D02*
G75*
G03*
X154190000Y-121920000I-750000J0D01*
G01*
X154190000Y-119380000D02*
X154190000Y-119380000D01*
X155690000Y-119380000D02*
X155690000Y-119380000D01*
X154190000Y-119380000D02*
G75*
G03*
X155690000Y-119380000I750000J0D01*
G01*
X155690000Y-119380000D02*
G75*
G03*
X154190000Y-119380000I-750000J0D01*
G01*
X154190000Y-116840000D02*
X154190000Y-116840000D01*
X155690000Y-116840000D02*
X155690000Y-116840000D01*
X154190000Y-116840000D02*
G75*
G03*
X155690000Y-116840000I750000J0D01*
G01*
X155690000Y-116840000D02*
G75*
G03*
X154190000Y-116840000I-750000J0D01*
G01*
X154190000Y-114300000D02*
X154190000Y-114300000D01*
X155690000Y-114300000D02*
X155690000Y-114300000D01*
X154190000Y-114300000D02*
G75*
G03*
X155690000Y-114300000I750000J0D01*
G01*
X155690000Y-114300000D02*
G75*
G03*
X154190000Y-114300000I-750000J0D01*
G01*
X154190000Y-111760000D02*
X154190000Y-111760000D01*
X155690000Y-111760000D02*
X155690000Y-111760000D01*
X154190000Y-111760000D02*
G75*
G03*
X155690000Y-111760000I750000J0D01*
G01*
X155690000Y-111760000D02*
G75*
G03*
X154190000Y-111760000I-750000J0D01*
G01*
X154190000Y-109220000D02*
X154190000Y-109220000D01*
X155690000Y-109220000D02*
X155690000Y-109220000D01*
X154190000Y-109220000D02*
G75*
G03*
X155690000Y-109220000I750000J0D01*
G01*
X155690000Y-109220000D02*
G75*
G03*
X154190000Y-109220000I-750000J0D01*
G01*
X154190000Y-106680000D02*
X154190000Y-106680000D01*
X155690000Y-106680000D02*
X155690000Y-106680000D01*
X154190000Y-106680000D02*
G75*
G03*
X155690000Y-106680000I750000J0D01*
G01*
X155690000Y-106680000D02*
G75*
G03*
X154190000Y-106680000I-750000J0D01*
G01*
X154190000Y-104140000D02*
X154190000Y-104140000D01*
X155690000Y-104140000D02*
X155690000Y-104140000D01*
X154190000Y-104140000D02*
G75*
G03*
X155690000Y-104140000I750000J0D01*
G01*
X155690000Y-104140000D02*
G75*
G03*
X154190000Y-104140000I-750000J0D01*
G01*
X154190000Y-101600000D02*
X154190000Y-101600000D01*
X155690000Y-101600000D02*
X155690000Y-101600000D01*
X154190000Y-101600000D02*
G75*
G03*
X155690000Y-101600000I750000J0D01*
G01*
X155690000Y-101600000D02*
G75*
G03*
X154190000Y-101600000I-750000J0D01*
G01*
X154190000Y-99060000D02*
X154190000Y-99060000D01*
X155690000Y-99060000D02*
X155690000Y-99060000D01*
X154190000Y-99060000D02*
G75*
G03*
X155690000Y-99060000I750000J0D01*
G01*
X155690000Y-99060000D02*
G75*
G03*
X154190000Y-99060000I-750000J0D01*
G01*
X154190000Y-96520000D02*
X154190000Y-96520000D01*
X155690000Y-96520000D02*
X155690000Y-96520000D01*
X154190000Y-96520000D02*
G75*
G03*
X155690000Y-96520000I750000J0D01*
G01*
X155690000Y-96520000D02*
G75*
G03*
X154190000Y-96520000I-750000J0D01*
G01*
X154190000Y-93980000D02*
X154190000Y-93980000D01*
X155690000Y-93980000D02*
X155690000Y-93980000D01*
X154190000Y-93980000D02*
G75*
G03*
X155690000Y-93980000I750000J0D01*
G01*
X155690000Y-93980000D02*
G75*
G03*
X154190000Y-93980000I-750000J0D01*
G01*
X154190000Y-91440000D02*
X154190000Y-91440000D01*
X155690000Y-91440000D02*
X155690000Y-91440000D01*
X154190000Y-91440000D02*
G75*
G03*
X155690000Y-91440000I750000J0D01*
G01*
X155690000Y-91440000D02*
G75*
G03*
X154190000Y-91440000I-750000J0D01*
G01*
X154190000Y-88900000D02*
X154190000Y-88900000D01*
X155690000Y-88900000D02*
X155690000Y-88900000D01*
X154190000Y-88900000D02*
G75*
G03*
X155690000Y-88900000I750000J0D01*
G01*
X155690000Y-88900000D02*
G75*
G03*
X154190000Y-88900000I-750000J0D01*
G01*
X154190000Y-86360000D02*
X154190000Y-86360000D01*
X155690000Y-86360000D02*
X155690000Y-86360000D01*
X154190000Y-86360000D02*
G75*
G03*
X155690000Y-86360000I750000J0D01*
G01*
X155690000Y-86360000D02*
G75*
G03*
X154190000Y-86360000I-750000J0D01*
G01*
X154190000Y-83820000D02*
X154190000Y-83820000D01*
X155690000Y-83820000D02*
X155690000Y-83820000D01*
X154190000Y-83820000D02*
G75*
G03*
X155690000Y-83820000I750000J0D01*
G01*
X155690000Y-83820000D02*
G75*
G03*
X154190000Y-83820000I-750000J0D01*
G01*
X154190000Y-81280000D02*
X154190000Y-81280000D01*
X155690000Y-81280000D02*
X155690000Y-81280000D01*
X154190000Y-81280000D02*
G75*
G03*
X155690000Y-81280000I750000J0D01*
G01*
X155690000Y-81280000D02*
G75*
G03*
X154190000Y-81280000I-750000J0D01*
G01*
X154190000Y-78740000D02*
X154190000Y-78740000D01*
X155690000Y-78740000D02*
X155690000Y-78740000D01*
X154190000Y-78740000D02*
G75*
G03*
X155690000Y-78740000I750000J0D01*
G01*
X155690000Y-78740000D02*
G75*
G03*
X154190000Y-78740000I-750000J0D01*
G01*
X154190000Y-76200000D02*
X154190000Y-76200000D01*
X155690000Y-76200000D02*
X155690000Y-76200000D01*
X154190000Y-76200000D02*
G75*
G03*
X155690000Y-76200000I750000J0D01*
G01*
X155690000Y-76200000D02*
G75*
G03*
X154190000Y-76200000I-750000J0D01*
G01*
X159270000Y-124460000D02*
X159270000Y-124460000D01*
X160770000Y-124460000D02*
X160770000Y-124460000D01*
X159270000Y-124460000D02*
G75*
G03*
X160770000Y-124460000I750000J0D01*
G01*
X160770000Y-124460000D02*
G75*
G03*
X159270000Y-124460000I-750000J0D01*
G01*
X161810000Y-124460000D02*
X161810000Y-124460000D01*
X163310000Y-124460000D02*
X163310000Y-124460000D01*
X161810000Y-124460000D02*
G75*
G03*
X163310000Y-124460000I750000J0D01*
G01*
X163310000Y-124460000D02*
G75*
G03*
X161810000Y-124460000I-750000J0D01*
G01*
X164350000Y-124460000D02*
X164350000Y-124460000D01*
X165850000Y-124460000D02*
X165850000Y-124460000D01*
X164350000Y-124460000D02*
G75*
G03*
X165850000Y-124460000I750000J0D01*
G01*
X165850000Y-124460000D02*
G75*
G03*
X164350000Y-124460000I-750000J0D01*
G01*
X159270000Y-116840000D02*
X159270000Y-116840000D01*
X160770000Y-116840000D02*
X160770000Y-116840000D01*
X159270000Y-116840000D02*
G75*
G03*
X160770000Y-116840000I750000J0D01*
G01*
X160770000Y-116840000D02*
G75*
G03*
X159270000Y-116840000I-750000J0D01*
G01*
X161810000Y-116840000D02*
X161810000Y-116840000D01*
X163310000Y-116840000D02*
X163310000Y-116840000D01*
X161810000Y-116840000D02*
G75*
G03*
X163310000Y-116840000I750000J0D01*
G01*
X163310000Y-116840000D02*
G75*
G03*
X161810000Y-116840000I-750000J0D01*
G01*
X161810000Y-114300000D02*
X161810000Y-114300000D01*
X163310000Y-114300000D02*
X163310000Y-114300000D01*
X161810000Y-114300000D02*
G75*
G03*
X163310000Y-114300000I750000J0D01*
G01*
X163310000Y-114300000D02*
G75*
G03*
X161810000Y-114300000I-750000J0D01*
G01*
X161810000Y-111760000D02*
X161810000Y-111760000D01*
X163310000Y-111760000D02*
X163310000Y-111760000D01*
X161810000Y-111760000D02*
G75*
G03*
X163310000Y-111760000I750000J0D01*
G01*
X163310000Y-111760000D02*
G75*
G03*
X161810000Y-111760000I-750000J0D01*
G01*
X161810000Y-109220000D02*
X161810000Y-109220000D01*
X163310000Y-109220000D02*
X163310000Y-109220000D01*
X161810000Y-109220000D02*
G75*
G03*
X163310000Y-109220000I750000J0D01*
G01*
X163310000Y-109220000D02*
G75*
G03*
X161810000Y-109220000I-750000J0D01*
G01*
X164350000Y-109220000D02*
X164350000Y-109220000D01*
X165850000Y-109220000D02*
X165850000Y-109220000D01*
X164350000Y-109220000D02*
G75*
G03*
X165850000Y-109220000I750000J0D01*
G01*
X165850000Y-109220000D02*
G75*
G03*
X164350000Y-109220000I-750000J0D01*
G01*
X164350000Y-111760000D02*
X164350000Y-111760000D01*
X165850000Y-111760000D02*
X165850000Y-111760000D01*
X164350000Y-111760000D02*
G75*
G03*
X165850000Y-111760000I750000J0D01*
G01*
X165850000Y-111760000D02*
G75*
G03*
X164350000Y-111760000I-750000J0D01*
G01*
X164350000Y-114300000D02*
X164350000Y-114300000D01*
X165850000Y-114300000D02*
X165850000Y-114300000D01*
X164350000Y-114300000D02*
G75*
G03*
X165850000Y-114300000I750000J0D01*
G01*
X165850000Y-114300000D02*
G75*
G03*
X164350000Y-114300000I-750000J0D01*
G01*
X164350000Y-116840000D02*
X164350000Y-116840000D01*
X165850000Y-116840000D02*
X165850000Y-116840000D01*
X164350000Y-116840000D02*
G75*
G03*
X165850000Y-116840000I750000J0D01*
G01*
X165850000Y-116840000D02*
G75*
G03*
X164350000Y-116840000I-750000J0D01*
G01*
%TO.C,J1*%
D11*
X129206666Y-77557380D02*
X129206666Y-78271666D01*
X129159047Y-78414523D01*
X129063809Y-78509761D01*
X128920952Y-78557380D01*
X128825714Y-78557380D01*
X130206666Y-78557380D02*
X129635238Y-78557380D01*
X129920952Y-78557380D02*
X129920952Y-77557380D01*
X129825714Y-77700238D01*
X129730476Y-77795476D01*
X129635238Y-77843095D01*
D15*
X127225714Y-79046428D02*
X127625714Y-79046428D01*
X127225714Y-79646428D01*
X127625714Y-79646428D01*
X127854285Y-79646428D02*
X127854285Y-79046428D01*
X128340000Y-79332142D02*
X128140000Y-79332142D01*
X128140000Y-79646428D02*
X128140000Y-79046428D01*
X128425714Y-79046428D01*
X129082857Y-79617857D02*
X129168571Y-79646428D01*
X129311428Y-79646428D01*
X129368571Y-79617857D01*
X129397142Y-79589285D01*
X129425714Y-79532142D01*
X129425714Y-79475000D01*
X129397142Y-79417857D01*
X129368571Y-79389285D01*
X129311428Y-79360714D01*
X129197142Y-79332142D01*
X129140000Y-79303571D01*
X129111428Y-79275000D01*
X129082857Y-79217857D01*
X129082857Y-79160714D01*
X129111428Y-79103571D01*
X129140000Y-79075000D01*
X129197142Y-79046428D01*
X129340000Y-79046428D01*
X129425714Y-79075000D01*
X129768571Y-79646428D02*
X129711428Y-79617857D01*
X129682857Y-79589285D01*
X129654285Y-79532142D01*
X129654285Y-79360714D01*
X129682857Y-79303571D01*
X129711428Y-79275000D01*
X129768571Y-79246428D01*
X129854285Y-79246428D01*
X129911428Y-79275000D01*
X129940000Y-79303571D01*
X129968571Y-79360714D01*
X129968571Y-79532142D01*
X129940000Y-79589285D01*
X129911428Y-79617857D01*
X129854285Y-79646428D01*
X129768571Y-79646428D01*
X130482857Y-79617857D02*
X130425714Y-79646428D01*
X130311428Y-79646428D01*
X130254285Y-79617857D01*
X130225714Y-79589285D01*
X130197142Y-79532142D01*
X130197142Y-79360714D01*
X130225714Y-79303571D01*
X130254285Y-79275000D01*
X130311428Y-79246428D01*
X130425714Y-79246428D01*
X130482857Y-79275000D01*
X130740000Y-79646428D02*
X130740000Y-79046428D01*
X130797142Y-79417857D02*
X130968571Y-79646428D01*
X130968571Y-79246428D02*
X130740000Y-79475000D01*
X131454285Y-79617857D02*
X131397142Y-79646428D01*
X131282857Y-79646428D01*
X131225714Y-79617857D01*
X131197142Y-79560714D01*
X131197142Y-79332142D01*
X131225714Y-79275000D01*
X131282857Y-79246428D01*
X131397142Y-79246428D01*
X131454285Y-79275000D01*
X131482857Y-79332142D01*
X131482857Y-79389285D01*
X131197142Y-79446428D01*
X131654285Y-79246428D02*
X131882857Y-79246428D01*
X131740000Y-79046428D02*
X131740000Y-79560714D01*
X131768571Y-79617857D01*
X131825714Y-79646428D01*
X131882857Y-79646428D01*
%TO.C,M1*%
D11*
X161750476Y-75382380D02*
X161750476Y-74382380D01*
X162083809Y-75096666D01*
X162417142Y-74382380D01*
X162417142Y-75382380D01*
X163417142Y-75382380D02*
X162845714Y-75382380D01*
X163131428Y-75382380D02*
X163131428Y-74382380D01*
X163036190Y-74525238D01*
X162940952Y-74620476D01*
X162845714Y-74668095D01*
X157369523Y-75652380D02*
X157940952Y-75652380D01*
X157655238Y-76652380D02*
X157655238Y-75652380D01*
X158274285Y-76128571D02*
X158607619Y-76128571D01*
X158750476Y-76652380D02*
X158274285Y-76652380D01*
X158274285Y-75652380D01*
X158750476Y-75652380D01*
X159179047Y-76128571D02*
X159512380Y-76128571D01*
X159655238Y-76652380D02*
X159179047Y-76652380D01*
X159179047Y-75652380D01*
X159655238Y-75652380D01*
X160083809Y-76652380D02*
X160083809Y-75652380D01*
X160655238Y-76652380D01*
X160655238Y-75652380D01*
X161083809Y-76604761D02*
X161226666Y-76652380D01*
X161464761Y-76652380D01*
X161560000Y-76604761D01*
X161607619Y-76557142D01*
X161655238Y-76461904D01*
X161655238Y-76366666D01*
X161607619Y-76271428D01*
X161560000Y-76223809D01*
X161464761Y-76176190D01*
X161274285Y-76128571D01*
X161179047Y-76080952D01*
X161131428Y-76033333D01*
X161083809Y-75938095D01*
X161083809Y-75842857D01*
X161131428Y-75747619D01*
X161179047Y-75700000D01*
X161274285Y-75652380D01*
X161512380Y-75652380D01*
X161655238Y-75700000D01*
X162274285Y-76176190D02*
X162274285Y-76652380D01*
X161940952Y-75652380D02*
X162274285Y-76176190D01*
X162607619Y-75652380D01*
X162702857Y-76747619D02*
X163464761Y-76747619D01*
X163655238Y-75747619D02*
X163702857Y-75700000D01*
X163798095Y-75652380D01*
X164036190Y-75652380D01*
X164131428Y-75700000D01*
X164179047Y-75747619D01*
X164226666Y-75842857D01*
X164226666Y-75938095D01*
X164179047Y-76080952D01*
X163607619Y-76652380D01*
X164226666Y-76652380D01*
X164655238Y-76557142D02*
X164702857Y-76604761D01*
X164655238Y-76652380D01*
X164607619Y-76604761D01*
X164655238Y-76557142D01*
X164655238Y-76652380D01*
X165321904Y-75652380D02*
X165417142Y-75652380D01*
X165512380Y-75700000D01*
X165560000Y-75747619D01*
X165607619Y-75842857D01*
X165655238Y-76033333D01*
X165655238Y-76271428D01*
X165607619Y-76461904D01*
X165560000Y-76557142D01*
X165512380Y-76604761D01*
X165417142Y-76652380D01*
X165321904Y-76652380D01*
X165226666Y-76604761D01*
X165179047Y-76557142D01*
X165131428Y-76461904D01*
X165083809Y-76271428D01*
X165083809Y-76033333D01*
X165131428Y-75842857D01*
X165179047Y-75747619D01*
X165226666Y-75700000D01*
X165321904Y-75652380D01*
X166083809Y-76652380D02*
X166083809Y-75652380D01*
X166464761Y-75652380D01*
X166560000Y-75700000D01*
X166607619Y-75747619D01*
X166655238Y-75842857D01*
X166655238Y-75985714D01*
X166607619Y-76080952D01*
X166560000Y-76128571D01*
X166464761Y-76176190D01*
X166083809Y-76176190D01*
X167083809Y-76652380D02*
X167083809Y-75652380D01*
X167464761Y-75652380D01*
X167560000Y-75700000D01*
X167607619Y-75747619D01*
X167655238Y-75842857D01*
X167655238Y-75985714D01*
X167607619Y-76080952D01*
X167560000Y-76128571D01*
X167464761Y-76176190D01*
X167083809Y-76176190D01*
%TO.C,R23*%
X150487142Y-90622380D02*
X150153809Y-90146190D01*
X149915714Y-90622380D02*
X149915714Y-89622380D01*
X150296666Y-89622380D01*
X150391904Y-89670000D01*
X150439523Y-89717619D01*
X150487142Y-89812857D01*
X150487142Y-89955714D01*
X150439523Y-90050952D01*
X150391904Y-90098571D01*
X150296666Y-90146190D01*
X149915714Y-90146190D01*
X150868095Y-89717619D02*
X150915714Y-89670000D01*
X151010952Y-89622380D01*
X151249047Y-89622380D01*
X151344285Y-89670000D01*
X151391904Y-89717619D01*
X151439523Y-89812857D01*
X151439523Y-89908095D01*
X151391904Y-90050952D01*
X150820476Y-90622380D01*
X151439523Y-90622380D01*
X151772857Y-89622380D02*
X152391904Y-89622380D01*
X152058571Y-90003333D01*
X152201428Y-90003333D01*
X152296666Y-90050952D01*
X152344285Y-90098571D01*
X152391904Y-90193809D01*
X152391904Y-90431904D01*
X152344285Y-90527142D01*
X152296666Y-90574761D01*
X152201428Y-90622380D01*
X151915714Y-90622380D01*
X151820476Y-90574761D01*
X151772857Y-90527142D01*
%TO.C,R22*%
X150487142Y-93162380D02*
X150153809Y-92686190D01*
X149915714Y-93162380D02*
X149915714Y-92162380D01*
X150296666Y-92162380D01*
X150391904Y-92210000D01*
X150439523Y-92257619D01*
X150487142Y-92352857D01*
X150487142Y-92495714D01*
X150439523Y-92590952D01*
X150391904Y-92638571D01*
X150296666Y-92686190D01*
X149915714Y-92686190D01*
X150868095Y-92257619D02*
X150915714Y-92210000D01*
X151010952Y-92162380D01*
X151249047Y-92162380D01*
X151344285Y-92210000D01*
X151391904Y-92257619D01*
X151439523Y-92352857D01*
X151439523Y-92448095D01*
X151391904Y-92590952D01*
X150820476Y-93162380D01*
X151439523Y-93162380D01*
X151820476Y-92257619D02*
X151868095Y-92210000D01*
X151963333Y-92162380D01*
X152201428Y-92162380D01*
X152296666Y-92210000D01*
X152344285Y-92257619D01*
X152391904Y-92352857D01*
X152391904Y-92448095D01*
X152344285Y-92590952D01*
X151772857Y-93162380D01*
X152391904Y-93162380D01*
%TO.C,R21*%
X150487142Y-95702380D02*
X150153809Y-95226190D01*
X149915714Y-95702380D02*
X149915714Y-94702380D01*
X150296666Y-94702380D01*
X150391904Y-94750000D01*
X150439523Y-94797619D01*
X150487142Y-94892857D01*
X150487142Y-95035714D01*
X150439523Y-95130952D01*
X150391904Y-95178571D01*
X150296666Y-95226190D01*
X149915714Y-95226190D01*
X150868095Y-94797619D02*
X150915714Y-94750000D01*
X151010952Y-94702380D01*
X151249047Y-94702380D01*
X151344285Y-94750000D01*
X151391904Y-94797619D01*
X151439523Y-94892857D01*
X151439523Y-94988095D01*
X151391904Y-95130952D01*
X150820476Y-95702380D01*
X151439523Y-95702380D01*
X152391904Y-95702380D02*
X151820476Y-95702380D01*
X152106190Y-95702380D02*
X152106190Y-94702380D01*
X152010952Y-94845238D01*
X151915714Y-94940476D01*
X151820476Y-94988095D01*
%TO.C,R20*%
X150487142Y-98242380D02*
X150153809Y-97766190D01*
X149915714Y-98242380D02*
X149915714Y-97242380D01*
X150296666Y-97242380D01*
X150391904Y-97290000D01*
X150439523Y-97337619D01*
X150487142Y-97432857D01*
X150487142Y-97575714D01*
X150439523Y-97670952D01*
X150391904Y-97718571D01*
X150296666Y-97766190D01*
X149915714Y-97766190D01*
X150868095Y-97337619D02*
X150915714Y-97290000D01*
X151010952Y-97242380D01*
X151249047Y-97242380D01*
X151344285Y-97290000D01*
X151391904Y-97337619D01*
X151439523Y-97432857D01*
X151439523Y-97528095D01*
X151391904Y-97670952D01*
X150820476Y-98242380D01*
X151439523Y-98242380D01*
X152058571Y-97242380D02*
X152153809Y-97242380D01*
X152249047Y-97290000D01*
X152296666Y-97337619D01*
X152344285Y-97432857D01*
X152391904Y-97623333D01*
X152391904Y-97861428D01*
X152344285Y-98051904D01*
X152296666Y-98147142D01*
X152249047Y-98194761D01*
X152153809Y-98242380D01*
X152058571Y-98242380D01*
X151963333Y-98194761D01*
X151915714Y-98147142D01*
X151868095Y-98051904D01*
X151820476Y-97861428D01*
X151820476Y-97623333D01*
X151868095Y-97432857D01*
X151915714Y-97337619D01*
X151963333Y-97290000D01*
X152058571Y-97242380D01*
%TO.C,R19*%
X150487142Y-100782380D02*
X150153809Y-100306190D01*
X149915714Y-100782380D02*
X149915714Y-99782380D01*
X150296666Y-99782380D01*
X150391904Y-99830000D01*
X150439523Y-99877619D01*
X150487142Y-99972857D01*
X150487142Y-100115714D01*
X150439523Y-100210952D01*
X150391904Y-100258571D01*
X150296666Y-100306190D01*
X149915714Y-100306190D01*
X151439523Y-100782380D02*
X150868095Y-100782380D01*
X151153809Y-100782380D02*
X151153809Y-99782380D01*
X151058571Y-99925238D01*
X150963333Y-100020476D01*
X150868095Y-100068095D01*
X151915714Y-100782380D02*
X152106190Y-100782380D01*
X152201428Y-100734761D01*
X152249047Y-100687142D01*
X152344285Y-100544285D01*
X152391904Y-100353809D01*
X152391904Y-99972857D01*
X152344285Y-99877619D01*
X152296666Y-99830000D01*
X152201428Y-99782380D01*
X152010952Y-99782380D01*
X151915714Y-99830000D01*
X151868095Y-99877619D01*
X151820476Y-99972857D01*
X151820476Y-100210952D01*
X151868095Y-100306190D01*
X151915714Y-100353809D01*
X152010952Y-100401428D01*
X152201428Y-100401428D01*
X152296666Y-100353809D01*
X152344285Y-100306190D01*
X152391904Y-100210952D01*
%TO.C,R18*%
X150487142Y-103322380D02*
X150153809Y-102846190D01*
X149915714Y-103322380D02*
X149915714Y-102322380D01*
X150296666Y-102322380D01*
X150391904Y-102370000D01*
X150439523Y-102417619D01*
X150487142Y-102512857D01*
X150487142Y-102655714D01*
X150439523Y-102750952D01*
X150391904Y-102798571D01*
X150296666Y-102846190D01*
X149915714Y-102846190D01*
X151439523Y-103322380D02*
X150868095Y-103322380D01*
X151153809Y-103322380D02*
X151153809Y-102322380D01*
X151058571Y-102465238D01*
X150963333Y-102560476D01*
X150868095Y-102608095D01*
X152010952Y-102750952D02*
X151915714Y-102703333D01*
X151868095Y-102655714D01*
X151820476Y-102560476D01*
X151820476Y-102512857D01*
X151868095Y-102417619D01*
X151915714Y-102370000D01*
X152010952Y-102322380D01*
X152201428Y-102322380D01*
X152296666Y-102370000D01*
X152344285Y-102417619D01*
X152391904Y-102512857D01*
X152391904Y-102560476D01*
X152344285Y-102655714D01*
X152296666Y-102703333D01*
X152201428Y-102750952D01*
X152010952Y-102750952D01*
X151915714Y-102798571D01*
X151868095Y-102846190D01*
X151820476Y-102941428D01*
X151820476Y-103131904D01*
X151868095Y-103227142D01*
X151915714Y-103274761D01*
X152010952Y-103322380D01*
X152201428Y-103322380D01*
X152296666Y-103274761D01*
X152344285Y-103227142D01*
X152391904Y-103131904D01*
X152391904Y-102941428D01*
X152344285Y-102846190D01*
X152296666Y-102798571D01*
X152201428Y-102750952D01*
%TO.C,R17*%
X150487142Y-105862380D02*
X150153809Y-105386190D01*
X149915714Y-105862380D02*
X149915714Y-104862380D01*
X150296666Y-104862380D01*
X150391904Y-104910000D01*
X150439523Y-104957619D01*
X150487142Y-105052857D01*
X150487142Y-105195714D01*
X150439523Y-105290952D01*
X150391904Y-105338571D01*
X150296666Y-105386190D01*
X149915714Y-105386190D01*
X151439523Y-105862380D02*
X150868095Y-105862380D01*
X151153809Y-105862380D02*
X151153809Y-104862380D01*
X151058571Y-105005238D01*
X150963333Y-105100476D01*
X150868095Y-105148095D01*
X151772857Y-104862380D02*
X152439523Y-104862380D01*
X152010952Y-105862380D01*
%TO.C,R16*%
X150487142Y-108402380D02*
X150153809Y-107926190D01*
X149915714Y-108402380D02*
X149915714Y-107402380D01*
X150296666Y-107402380D01*
X150391904Y-107450000D01*
X150439523Y-107497619D01*
X150487142Y-107592857D01*
X150487142Y-107735714D01*
X150439523Y-107830952D01*
X150391904Y-107878571D01*
X150296666Y-107926190D01*
X149915714Y-107926190D01*
X151439523Y-108402380D02*
X150868095Y-108402380D01*
X151153809Y-108402380D02*
X151153809Y-107402380D01*
X151058571Y-107545238D01*
X150963333Y-107640476D01*
X150868095Y-107688095D01*
X152296666Y-107402380D02*
X152106190Y-107402380D01*
X152010952Y-107450000D01*
X151963333Y-107497619D01*
X151868095Y-107640476D01*
X151820476Y-107830952D01*
X151820476Y-108211904D01*
X151868095Y-108307142D01*
X151915714Y-108354761D01*
X152010952Y-108402380D01*
X152201428Y-108402380D01*
X152296666Y-108354761D01*
X152344285Y-108307142D01*
X152391904Y-108211904D01*
X152391904Y-107973809D01*
X152344285Y-107878571D01*
X152296666Y-107830952D01*
X152201428Y-107783333D01*
X152010952Y-107783333D01*
X151915714Y-107830952D01*
X151868095Y-107878571D01*
X151820476Y-107973809D01*
%TO.C,R15*%
X150487142Y-110942380D02*
X150153809Y-110466190D01*
X149915714Y-110942380D02*
X149915714Y-109942380D01*
X150296666Y-109942380D01*
X150391904Y-109990000D01*
X150439523Y-110037619D01*
X150487142Y-110132857D01*
X150487142Y-110275714D01*
X150439523Y-110370952D01*
X150391904Y-110418571D01*
X150296666Y-110466190D01*
X149915714Y-110466190D01*
X151439523Y-110942380D02*
X150868095Y-110942380D01*
X151153809Y-110942380D02*
X151153809Y-109942380D01*
X151058571Y-110085238D01*
X150963333Y-110180476D01*
X150868095Y-110228095D01*
X152344285Y-109942380D02*
X151868095Y-109942380D01*
X151820476Y-110418571D01*
X151868095Y-110370952D01*
X151963333Y-110323333D01*
X152201428Y-110323333D01*
X152296666Y-110370952D01*
X152344285Y-110418571D01*
X152391904Y-110513809D01*
X152391904Y-110751904D01*
X152344285Y-110847142D01*
X152296666Y-110894761D01*
X152201428Y-110942380D01*
X151963333Y-110942380D01*
X151868095Y-110894761D01*
X151820476Y-110847142D01*
%TO.C,R14*%
X150487142Y-113482380D02*
X150153809Y-113006190D01*
X149915714Y-113482380D02*
X149915714Y-112482380D01*
X150296666Y-112482380D01*
X150391904Y-112530000D01*
X150439523Y-112577619D01*
X150487142Y-112672857D01*
X150487142Y-112815714D01*
X150439523Y-112910952D01*
X150391904Y-112958571D01*
X150296666Y-113006190D01*
X149915714Y-113006190D01*
X151439523Y-113482380D02*
X150868095Y-113482380D01*
X151153809Y-113482380D02*
X151153809Y-112482380D01*
X151058571Y-112625238D01*
X150963333Y-112720476D01*
X150868095Y-112768095D01*
X152296666Y-112815714D02*
X152296666Y-113482380D01*
X152058571Y-112434761D02*
X151820476Y-113149047D01*
X152439523Y-113149047D01*
%TO.C,R13*%
X150487142Y-116022380D02*
X150153809Y-115546190D01*
X149915714Y-116022380D02*
X149915714Y-115022380D01*
X150296666Y-115022380D01*
X150391904Y-115070000D01*
X150439523Y-115117619D01*
X150487142Y-115212857D01*
X150487142Y-115355714D01*
X150439523Y-115450952D01*
X150391904Y-115498571D01*
X150296666Y-115546190D01*
X149915714Y-115546190D01*
X151439523Y-116022380D02*
X150868095Y-116022380D01*
X151153809Y-116022380D02*
X151153809Y-115022380D01*
X151058571Y-115165238D01*
X150963333Y-115260476D01*
X150868095Y-115308095D01*
X151772857Y-115022380D02*
X152391904Y-115022380D01*
X152058571Y-115403333D01*
X152201428Y-115403333D01*
X152296666Y-115450952D01*
X152344285Y-115498571D01*
X152391904Y-115593809D01*
X152391904Y-115831904D01*
X152344285Y-115927142D01*
X152296666Y-115974761D01*
X152201428Y-116022380D01*
X151915714Y-116022380D01*
X151820476Y-115974761D01*
X151772857Y-115927142D01*
%TO.C,R12*%
X139414642Y-119197380D02*
X139081309Y-118721190D01*
X138843214Y-119197380D02*
X138843214Y-118197380D01*
X139224166Y-118197380D01*
X139319404Y-118245000D01*
X139367023Y-118292619D01*
X139414642Y-118387857D01*
X139414642Y-118530714D01*
X139367023Y-118625952D01*
X139319404Y-118673571D01*
X139224166Y-118721190D01*
X138843214Y-118721190D01*
X140367023Y-119197380D02*
X139795595Y-119197380D01*
X140081309Y-119197380D02*
X140081309Y-118197380D01*
X139986071Y-118340238D01*
X139890833Y-118435476D01*
X139795595Y-118483095D01*
X140747976Y-118292619D02*
X140795595Y-118245000D01*
X140890833Y-118197380D01*
X141128928Y-118197380D01*
X141224166Y-118245000D01*
X141271785Y-118292619D01*
X141319404Y-118387857D01*
X141319404Y-118483095D01*
X141271785Y-118625952D01*
X140700357Y-119197380D01*
X141319404Y-119197380D01*
%TO.C,R11*%
X143502142Y-114752380D02*
X143168809Y-114276190D01*
X142930714Y-114752380D02*
X142930714Y-113752380D01*
X143311666Y-113752380D01*
X143406904Y-113800000D01*
X143454523Y-113847619D01*
X143502142Y-113942857D01*
X143502142Y-114085714D01*
X143454523Y-114180952D01*
X143406904Y-114228571D01*
X143311666Y-114276190D01*
X142930714Y-114276190D01*
X144454523Y-114752380D02*
X143883095Y-114752380D01*
X144168809Y-114752380D02*
X144168809Y-113752380D01*
X144073571Y-113895238D01*
X143978333Y-113990476D01*
X143883095Y-114038095D01*
X145406904Y-114752380D02*
X144835476Y-114752380D01*
X145121190Y-114752380D02*
X145121190Y-113752380D01*
X145025952Y-113895238D01*
X144930714Y-113990476D01*
X144835476Y-114038095D01*
%TO.C,R10*%
X143502142Y-112212380D02*
X143168809Y-111736190D01*
X142930714Y-112212380D02*
X142930714Y-111212380D01*
X143311666Y-111212380D01*
X143406904Y-111260000D01*
X143454523Y-111307619D01*
X143502142Y-111402857D01*
X143502142Y-111545714D01*
X143454523Y-111640952D01*
X143406904Y-111688571D01*
X143311666Y-111736190D01*
X142930714Y-111736190D01*
X144454523Y-112212380D02*
X143883095Y-112212380D01*
X144168809Y-112212380D02*
X144168809Y-111212380D01*
X144073571Y-111355238D01*
X143978333Y-111450476D01*
X143883095Y-111498095D01*
X145073571Y-111212380D02*
X145168809Y-111212380D01*
X145264047Y-111260000D01*
X145311666Y-111307619D01*
X145359285Y-111402857D01*
X145406904Y-111593333D01*
X145406904Y-111831428D01*
X145359285Y-112021904D01*
X145311666Y-112117142D01*
X145264047Y-112164761D01*
X145168809Y-112212380D01*
X145073571Y-112212380D01*
X144978333Y-112164761D01*
X144930714Y-112117142D01*
X144883095Y-112021904D01*
X144835476Y-111831428D01*
X144835476Y-111593333D01*
X144883095Y-111402857D01*
X144930714Y-111307619D01*
X144978333Y-111260000D01*
X145073571Y-111212380D01*
%TO.C,R9*%
X143343333Y-109672380D02*
X143010000Y-109196190D01*
X142771904Y-109672380D02*
X142771904Y-108672380D01*
X143152857Y-108672380D01*
X143248095Y-108720000D01*
X143295714Y-108767619D01*
X143343333Y-108862857D01*
X143343333Y-109005714D01*
X143295714Y-109100952D01*
X143248095Y-109148571D01*
X143152857Y-109196190D01*
X142771904Y-109196190D01*
X143819523Y-109672380D02*
X144010000Y-109672380D01*
X144105238Y-109624761D01*
X144152857Y-109577142D01*
X144248095Y-109434285D01*
X144295714Y-109243809D01*
X144295714Y-108862857D01*
X144248095Y-108767619D01*
X144200476Y-108720000D01*
X144105238Y-108672380D01*
X143914761Y-108672380D01*
X143819523Y-108720000D01*
X143771904Y-108767619D01*
X143724285Y-108862857D01*
X143724285Y-109100952D01*
X143771904Y-109196190D01*
X143819523Y-109243809D01*
X143914761Y-109291428D01*
X144105238Y-109291428D01*
X144200476Y-109243809D01*
X144248095Y-109196190D01*
X144295714Y-109100952D01*
%TO.C,R8*%
X143343333Y-107132380D02*
X143010000Y-106656190D01*
X142771904Y-107132380D02*
X142771904Y-106132380D01*
X143152857Y-106132380D01*
X143248095Y-106180000D01*
X143295714Y-106227619D01*
X143343333Y-106322857D01*
X143343333Y-106465714D01*
X143295714Y-106560952D01*
X143248095Y-106608571D01*
X143152857Y-106656190D01*
X142771904Y-106656190D01*
X143914761Y-106560952D02*
X143819523Y-106513333D01*
X143771904Y-106465714D01*
X143724285Y-106370476D01*
X143724285Y-106322857D01*
X143771904Y-106227619D01*
X143819523Y-106180000D01*
X143914761Y-106132380D01*
X144105238Y-106132380D01*
X144200476Y-106180000D01*
X144248095Y-106227619D01*
X144295714Y-106322857D01*
X144295714Y-106370476D01*
X144248095Y-106465714D01*
X144200476Y-106513333D01*
X144105238Y-106560952D01*
X143914761Y-106560952D01*
X143819523Y-106608571D01*
X143771904Y-106656190D01*
X143724285Y-106751428D01*
X143724285Y-106941904D01*
X143771904Y-107037142D01*
X143819523Y-107084761D01*
X143914761Y-107132380D01*
X144105238Y-107132380D01*
X144200476Y-107084761D01*
X144248095Y-107037142D01*
X144295714Y-106941904D01*
X144295714Y-106751428D01*
X144248095Y-106656190D01*
X144200476Y-106608571D01*
X144105238Y-106560952D01*
%TO.C,R7*%
X143343333Y-104592380D02*
X143010000Y-104116190D01*
X142771904Y-104592380D02*
X142771904Y-103592380D01*
X143152857Y-103592380D01*
X143248095Y-103640000D01*
X143295714Y-103687619D01*
X143343333Y-103782857D01*
X143343333Y-103925714D01*
X143295714Y-104020952D01*
X143248095Y-104068571D01*
X143152857Y-104116190D01*
X142771904Y-104116190D01*
X143676666Y-103592380D02*
X144343333Y-103592380D01*
X143914761Y-104592380D01*
%TO.C,R6*%
X143343333Y-102052380D02*
X143010000Y-101576190D01*
X142771904Y-102052380D02*
X142771904Y-101052380D01*
X143152857Y-101052380D01*
X143248095Y-101100000D01*
X143295714Y-101147619D01*
X143343333Y-101242857D01*
X143343333Y-101385714D01*
X143295714Y-101480952D01*
X143248095Y-101528571D01*
X143152857Y-101576190D01*
X142771904Y-101576190D01*
X144200476Y-101052380D02*
X144010000Y-101052380D01*
X143914761Y-101100000D01*
X143867142Y-101147619D01*
X143771904Y-101290476D01*
X143724285Y-101480952D01*
X143724285Y-101861904D01*
X143771904Y-101957142D01*
X143819523Y-102004761D01*
X143914761Y-102052380D01*
X144105238Y-102052380D01*
X144200476Y-102004761D01*
X144248095Y-101957142D01*
X144295714Y-101861904D01*
X144295714Y-101623809D01*
X144248095Y-101528571D01*
X144200476Y-101480952D01*
X144105238Y-101433333D01*
X143914761Y-101433333D01*
X143819523Y-101480952D01*
X143771904Y-101528571D01*
X143724285Y-101623809D01*
%TO.C,R5*%
X143343333Y-99512380D02*
X143010000Y-99036190D01*
X142771904Y-99512380D02*
X142771904Y-98512380D01*
X143152857Y-98512380D01*
X143248095Y-98560000D01*
X143295714Y-98607619D01*
X143343333Y-98702857D01*
X143343333Y-98845714D01*
X143295714Y-98940952D01*
X143248095Y-98988571D01*
X143152857Y-99036190D01*
X142771904Y-99036190D01*
X144248095Y-98512380D02*
X143771904Y-98512380D01*
X143724285Y-98988571D01*
X143771904Y-98940952D01*
X143867142Y-98893333D01*
X144105238Y-98893333D01*
X144200476Y-98940952D01*
X144248095Y-98988571D01*
X144295714Y-99083809D01*
X144295714Y-99321904D01*
X144248095Y-99417142D01*
X144200476Y-99464761D01*
X144105238Y-99512380D01*
X143867142Y-99512380D01*
X143771904Y-99464761D01*
X143724285Y-99417142D01*
%TO.C,R4*%
X143343333Y-96972380D02*
X143010000Y-96496190D01*
X142771904Y-96972380D02*
X142771904Y-95972380D01*
X143152857Y-95972380D01*
X143248095Y-96020000D01*
X143295714Y-96067619D01*
X143343333Y-96162857D01*
X143343333Y-96305714D01*
X143295714Y-96400952D01*
X143248095Y-96448571D01*
X143152857Y-96496190D01*
X142771904Y-96496190D01*
X144200476Y-96305714D02*
X144200476Y-96972380D01*
X143962380Y-95924761D02*
X143724285Y-96639047D01*
X144343333Y-96639047D01*
%TO.C,R3*%
X143343333Y-94432380D02*
X143010000Y-93956190D01*
X142771904Y-94432380D02*
X142771904Y-93432380D01*
X143152857Y-93432380D01*
X143248095Y-93480000D01*
X143295714Y-93527619D01*
X143343333Y-93622857D01*
X143343333Y-93765714D01*
X143295714Y-93860952D01*
X143248095Y-93908571D01*
X143152857Y-93956190D01*
X142771904Y-93956190D01*
X143676666Y-93432380D02*
X144295714Y-93432380D01*
X143962380Y-93813333D01*
X144105238Y-93813333D01*
X144200476Y-93860952D01*
X144248095Y-93908571D01*
X144295714Y-94003809D01*
X144295714Y-94241904D01*
X144248095Y-94337142D01*
X144200476Y-94384761D01*
X144105238Y-94432380D01*
X143819523Y-94432380D01*
X143724285Y-94384761D01*
X143676666Y-94337142D01*
%TO.C,R2*%
X143343333Y-91892380D02*
X143010000Y-91416190D01*
X142771904Y-91892380D02*
X142771904Y-90892380D01*
X143152857Y-90892380D01*
X143248095Y-90940000D01*
X143295714Y-90987619D01*
X143343333Y-91082857D01*
X143343333Y-91225714D01*
X143295714Y-91320952D01*
X143248095Y-91368571D01*
X143152857Y-91416190D01*
X142771904Y-91416190D01*
X143724285Y-90987619D02*
X143771904Y-90940000D01*
X143867142Y-90892380D01*
X144105238Y-90892380D01*
X144200476Y-90940000D01*
X144248095Y-90987619D01*
X144295714Y-91082857D01*
X144295714Y-91178095D01*
X144248095Y-91320952D01*
X143676666Y-91892380D01*
X144295714Y-91892380D01*
%TO.C,R1*%
X143343333Y-89352380D02*
X143010000Y-88876190D01*
X142771904Y-89352380D02*
X142771904Y-88352380D01*
X143152857Y-88352380D01*
X143248095Y-88400000D01*
X143295714Y-88447619D01*
X143343333Y-88542857D01*
X143343333Y-88685714D01*
X143295714Y-88780952D01*
X143248095Y-88828571D01*
X143152857Y-88876190D01*
X142771904Y-88876190D01*
X144295714Y-89352380D02*
X143724285Y-89352380D01*
X144010000Y-89352380D02*
X144010000Y-88352380D01*
X143914761Y-88495238D01*
X143819523Y-88590476D01*
X143724285Y-88638095D01*
%TD*%
M02*
